<?xml version="1.0" encoding="UTF-8"?>
<svg id="_图层_1" data-name="图层 1" xmlns="http://www.w3.org/2000/svg" viewBox="0 0 3840 2161.59">
  <defs>
    <style>
      .cls-1 {
        fill: none;
        stroke: #ff0;
        stroke-miterlimit: 10;
        stroke-width: 6px;
      }
    </style>
  </defs>
  <path class="cls-1" d="m2134.23,2036.33c0,.09.01.43.07.88.06.43.13.73.16.9.06.37.14.91.23,1.82.62,6.13-.11,10.29-.46,13.59-.62,5.81-.19,10.1.59,18.37.89,9.44,1.94,9.89,1.18,13.62-1.05,5.17-3.34,5.57-7.77,13.62-1.56,2.85-5.11,9.36-6.56,17.17-1.05,5.57.22,5.09,0,15.99-.16,8.77-1.18.96-2.15,14.6-.32,4.39-.26,5.06.19,5.94,3.51,6.7,19.27,3.3,38.75,2.61,18.35-.63,24.69.08,54.94.9,32.53.86,41.5-2.22,52.03,1.13,1.35.44,5.4,1.81,10.14.68,5.45-1.32,11.34-5.86,10.7-7.59-5.68-14.14-11.53-15.54-11.53-15.54-2.26-2.19-4.17-3.52-5.97-4.8-10.76-7.57-17.19-6.66-24.53-11.2-4.63-2.85-7.85-8.42-14.34-19.54-2.93-5.01-8.53-14.77-12.56-28.44-2.39-8.1-3.85-16.18-5.38-24.87-1.59-8.88-2.37-13.3-2.37-13.3-.03-.99-.08-6.93-2.18-11.73-.22-.53-.48-1.07-.83-1.63-2.07-3.31-4.52-2.96-5.84-5.17-.93-1.58.15-2.01-.25-6.87-.07-.81-.38-2.55-1-6-1.02-5.67-1.23-6.44-1-8,.29-2.01.56-3.84,2-5,2.38-1.92,6.68-.95,8-3,.1-.15.18-.32.18-.32.79-1.56.3-3.26.18-3.73-.68-2.61-.11-5.4-.43-8.07-1.02-8.71,1.66-21.42-.16-39.1-.69-6.71-1.64-14.21-1.64-14.21-.63-4.94-.9-6.6-1.14-9.65-.51-6.53-.22-11.43-.16-12.86.44-9.27-.76-28.94-2.28-53.92-3.53-57.92-4.92-50.63-5.38-72.85-.16-7.8-.34-25.55-4.61-49.21-.08-.47-.36-2.02-.77-4.1-1.99-10.21-5.81-27.31-16.14-56.85-7.76-22.18-9.12-22.6-10.76-31.99-1.72-9.85-1.05-14.12-3.58-24.87-1.86-7.91-4.25-13.67-8.96-24.87-8.36-19.88-13.3-26.99-17.94-42.65-1.41-4.77-2.22-8.38-2.79-11.55-1.54-8.6-1.29-13.66-1.76-20.72-.44-6.75-1.47-12.11-3.52-22.83-.52-2.74-3.02-15.6-8.07-32.87-1.12-3.82-1.98-6.56-2.99-9.77-3-9.52-6.13-18.33-12.26-35.54-5.83-16.39-8.81-24.74-10.76-37.32-.24-1.54-.4-2.74-.5-3.48-.79-5.92-1.97-16.99-1.3-35.62.61-17.13,2.22-24.77-.79-38.66-.02-.1-.05-.25-.1-.45-5.26-23.64-21.4-41.49-30.47-51.52,0,0-8.82-9.75-13.45-19.54-.99-2.09-1.74-3.98-1.74-3.98-1.25-3.11-1.58-4.62-2.48-7.11-.11-.3-1.22-3.34-2.95-6.69-3.48-6.73-6.17-8.32-6.35-13.05-.03-.73.01-1.23.09-2.06.46-5.27,2.79-11.35,2.45-12.95-.2-.95-.54-1.87-.54-1.87s-.05-.15-.11-.29c-.59-1.54-7.58-8.81-9.87-11.54-1.73-2.06-2.74-3.86-2.99-4.29-4.34-7.83-3.79-16.85-5.08-22.34-.52-2.23-1.31-4.33-1.31-4.33s-.26-.7-.55-1.37c-1.45-3.42-6.87-10.22-8.88-13.03-1.62-2.27-2.88-5-5.41-10.45-2.15-4.66-3.46-7.5-4.49-11.54-1.38-5.37-2.07-8.06-1.13-10.37,3.12-7.7,18.22-7.78,21.44-6.96.19.05,3.47.91,3.47.91,0,0,1.3.45,2.29.83,1.09.41,1.82.72,2.25.91,2.11.88,4.21,1.5,5.08,1.76,5.45,1.61,9.96,1.91,11.74,1.99.05,0,.14,0,.25.01,6.46.25,11.75-1.41,13.34-1.89,9.05-2.75,9.69-1.13,17.03-3.79,2.32-.84,11.44-4.33,20.17-12.87,4.72-4.62,8.77-8.58,10.76-15.11,1.66-5.46,1.77-12.34,1.8-14.66.03-2.25-.05-4-.13-5.51-.28-5.6-.87-8.34-1.67-14.48-.56-4.3-1.05-8.02-1.36-13.05-.35-5.5-.19-7.66-.86-12.72-.43-3.2-.92-5.55-1.35-7.55-.89-4.19-2.25-8.63-4.92-17.33-2.04-6.63-3.39-10.74-5.84-15.99-.12-.25-.2-.42-.32-.68-2.74-5.78-4.35-8.4-8.64-16.2-1.61-2.94-2.92-5.36-4.14-7.62,0,0-1.79-3.32-3.58-6.67-3.84-7.22-6.49-12.44-11.11-21.24-2.61-4.98-7.82-14.9-11.83-22.15-.39-.7-1.57-2.82-3.15-5.74-.37-.68-1.85-3.4-4.24-7.93-.48-.91-2.6-4.92-4.98-9.49-7.71-14.85-14.61-28.89-14.61-28.89-2.92-5.94-5.8-11.82-9.6-19.96-3.94-8.46-5.92-12.69-8.23-18.15-2.99-7.06-4.59-11.41-8.2-18.95-.88-1.83-2.28-4.7-4.17-8.21-2.17-4.03-3.77-6.68-5.38-9.33-.87-1.43-1.92-3.12-3.44-5.21-.46-.62-.79-1.07-1.21-1.61-2.98-3.88-4.67-5.6-6.24-8-.69-1.06-1.31-2.15-1.31-2.15s-.5-.9-.95-1.82c-1.51-3.1-2.69-7.49-4.06-10.08-.49-.93-1.07-1.85-1.07-1.85-.45-.71-.82-1.24-1-1.48-.02-.03-.12-.16-.24-.33-.45-.61-1.35-1.79-2.72-3.16-.07-.07-.12-.12-.18-.18-1.16-1.15-2.76-2.71-4.93-4.11,0,0-.64-.41-1.4-.83-3.46-1.92-7.54-2.75-10.41-3.46-5.59-1.38-8.38-2.06-10.76-3.25-.54-.27-4.27-2.16-7.18-1.49-.58.13-1.12.33-1.12.33-1.68.62-2.4,1.47-3.67,2.33-1.07.73-1.96,1.09-3.11,1.54-2.29.91-2.76.59-5.22,1.57-.17.07-1.39.55-2.72,1.35-.41.24-.71.44-.98.64-.76.55-1.24,1.06-1.4,1.21-.56.57-1.57,1.34-3.6,2.89-3.6,2.76-5.4,4.14-7.48,5.33-1.69.97-2.87,1.48-5.68,3.18-1.1.66-1.71,1.06-2.39,1.56-1.8,1.34-2.96,2.2-3.74,3.55-.91,1.57-.26,2.01-1.13,5.78-.38,1.64-.64,2.77-1.34,4.21-1.04,2.12-2.44,3.68-3.15,4.45-.47.52-.87.91-1.48,1.49-1.75,1.7-2.27,1.96-3.02,2.72-.54.55-.68.82-2.9,5.12-1.97,3.81-2.05,3.95-2.25,4.29-.9,1.53-1.48,2.34-2.37,4.02-.35.67-.78,1.54-1.22,2.56-.09.22-.27.64-.47,1.15-.52,1.35-.79,2.38-.95,2.97-.07.27-.47,1.47-1.27,3.88-2.2,6.66-4.49,12.66-4.49,12.66-.47,1.23-.86,2.24-1.43,3.65-.9,2.23-1.28,3.03-2.02,4.95-.54,1.39-.91,2.43-1.26,3.4-.79,2.23-1.86,5.25-2.9,9.12-.14.54-.54,2-.98,3.95-1.11,4.87-1.17,6.72-2.28,11.62-.18.79-.46,2.02-.89,3.64-.39,1.48-.58,2.03-.96,3.44-.45,1.67-.74,2.91-1.06,4.27-1.47,6.35-2.8,13.94-2.8,13.94-.86,4.95-1.41,8.07-1.96,12.53-.61,4.91-1.16,10.75-2.21,17.49-.1.66-.21,1.31-.21,1.31s-.84,5.22-1.89,10.41c-1.42,7-6.13,25.07-8.07,34.65-4.04,19.98-6.93,34.25.89,42.65,9.55,10.26,19.96,10.5,19.96,10.5,2.48.06,7.33-.32,8.36,1.92.37.8,0,1.39-.75,4-.31,1.08-.81,3.58-1.8,8.58-.32,1.6-.75,3.86-1.18,6.58-.22,1.41-.34,2.28-.43,3.02-.22,1.77-.29,2.83-.41,4.29-.28,3.22-.39,3.13-.58,5.43-.34,4.14-.5,6.24.3,7.92.28.59,1.18,2.48,3.15,3.41,1.72.81,3.06.33,8.66-.59,2.89-.47,4.33-.71,4.63-.69,4.2.19,11.82,2.91,12.1,2.91,0,0,.07,0,.16,0,.12.01.22.04.24.05.54.15,2.5.37,4.46,1.47.16.09.07.05.67.4,1.04.62,1.27.72,1.86,1.07,2.28,1.34,2.47,1.46,2.47,1.46.4.25.77.5,1.18.4.43-.1.52-.49.81-.64.9-.47,2.94,1.76,3.39,2.24,1.58,1.7,3.58,2.97,5.16,4.66,2.82,3.01,5.66,3.26,14.34,7.78,0,0,6.51,3.39,17.27,10.45,2.46,1.62,4.25,2.87,4.25,2.87,1.8,1.27,1.94,1.43,3.88,2.8.37.26,2.09,1.46,4.43,2.99,1.51.99,2.66,1.71,2.92,1.87,2.34,1.47,4.12,2.49,4.81,2.89,1.62.94,1.21.74,8.87,5.44,0,0,6.23,3.82,11.94,7.14.59.34.87.49.87.49.04.02.15.08.3.16,0,0,.17.1.34.2.67.4,5.77,5.53,10.3,5.54,1.73,0,3.66-.74,4.03-.88.66-.25,1.24-.48,1.96-.93,1.39-.88,1.84-1.71,3.42-2.4,0,0,.38-.17.87-.32,2.96-.91,9.9,2.21,11.69,2.98,5.89,2.56,5.22,1.14,11.22,3.79,2.96,1.3,4.83,2.4,7.85,2.45,1.78.03,3.32-.31,5.59-1.12,6.51-2.3,11.05-3.91,14.34-8.29,3.16-4.21,4.23-9.73,4.44-10.82.13-.65.49-2.7,1.21-5.2.62-2.16,1.31-3.96,1.47-4.37.19-.48.33-.84.36-.91.26-.63,2.74-6.87,4.65-14.77,2.98-12.28,1.44-15.6,4.3-23.16.38-1,2.74-7.12,2.74-7.12,0,0,1.35-3.05,2.23-5.36.69-1.8,1.14-3.27,1.88-5.89,1.65-5.82,2.47-8.73,2.77-10.4,1.18-6.58-.99-12.18-4.55-21-1.78-4.43-3.35-7.4-6.43-13.17-6.34-11.89-14.1-24.74-16.86-30.39-1.79-3.66-3.43-7.41-3.43-7.41s-.33-.75-.63-1.47c-2.07-4.87-3.74-9.68-3.93-10.21-1.27-3.65-2.96-7.33-6.35-14.69-5.4-11.75-8.86-17.94-18.83-38.2-4.52-9.18-5.96-12.29-7.49-16.72-.74-2.13-1.63-4.97-3.39-9.05-.69-1.6-2-4.52-4.37-8.88-1.75-3.22-4.6-8.43-8.99-14.6-6.24-8.77-8.58-9.65-12.39-16.81-.79-1.49-1.77-3.85-3.72-8.57-4.18-10.12-8.52-22.16-11.35-25.48-.27-.32-1.51-1.71-2.72-3.9-.08-.15-.47-.85-.86-1.72-1.99-4.46-4.64-14.57-4.79-14.82,0,0-.03-.05-.06-.11-.06-.13-.1-.23-.1-.23-.03-.08-3.27-8.54-10.14-10.16-.89-.21-2.92-.66-5.06.21-1.12.46-1.87,1.12-2.23,1.44-1.26,1.12-2.09,2.53-3.15,4.32-.12.21-.38.65-.77,1.21-.55.8-1.02,1.35-1.17,1.53-.9,1.07-1.72,2.29-2.87,4.03-1.4,2.1-2.26,3.62-2.47,4-.52.93-.93,1.72-1.32,2.61-.09.21-.37.85-.65,1.63-.73,2.02-1.06,3.75-1.18,4.31-1.05,5.19-3.48,9.66-4.6,11.17-.58.79-1.24,1.49-1.24,1.49-.86.93-1.3,1.39-1.78,1.65-1.66.9-4.11-.37-7.88-2.32-.66-.34-1.35-.71-1.35-.71-1.11-.6-1.61-.9-2.68-1.5,0,0-.7-.39-2.01-1.09-2.72-1.45-6.88-3.34-7.86-3.79-4.84-2.21-7.26-3.32-8.07-4-3.17-2.64-4.5-6.5-7.18-14.21-.85-2.44-1.45-4.81-1.5-5.01,0,0-.41-1.62-.73-3.28-1.13-5.8-2.08-36.37-2.99-50.35-.6-9.36-1.78-20.6-1.96-22.31-.21-2-.56-5.17-1.02-9.06-1.18-9.81-1.85-13.56-4.2-30.2-1.8-12.75-2-14.84-2.16-16.68-.39-4.49-.43-6.83-1.09-12.36-.23-1.95-.71-5.79-1.54-10.65-.66-3.88-1.29-6.96-1.66-8.71-1.23-5.78-2.3-9.59-3.13-12.71-1.23-4.69-2.21-9.41-4.17-18.86-2.72-13.15-4.55-22.07-5.97-33.77-.46-3.82-.8-7.25-.94-8.64-1.01-10.32-1.36-17.85-1.46-19.8-1.38-26.64-10.54-42.34-3.58-48.57,10.07-9.02,43.93,10.74,45.43,11.83.08.06.81.61,1.87,1.22,0,0,1.16.67,2.32,1.15,3.25,1.35,6.85,1.21,9.25,2.08.46.16.89.36.89.36,1.09.5,1.82,1.05,2.04,1.21.36.27,1.56.93,3.96,2.26,3.54,1.97,5.44,3.02,7.18,3.55,4.01,1.2,7.76-.24,10.17-1.17,12.17-4.7,22.62-23.93,19.12-27.24-3.42-3.24-16.4,12.41-25.71,7.7-8.88-4.49-8.94-24.74-8.96-30.81,0-3.31-.02-5.85.67-9.28.81-4.02,2.1-6.87,3.66-13.62.2-.87.39-1.74.59-2.76,0,0,.72-3.71,1.05-7.5.91-10.35-3.96-25.17,3.58-35.53.63-.87,1.19-1.48,1.5-1.82,4.94-5.4,9.77-5.44,17.62-8.84,4.29-1.86,10.49-4.54,15.4-9.08.97-.9,3.53-3.38,7.66-5.3,0,0,2.1-.98,4.43-1.61,9.91-2.68,25.2,2.25,37.66-2.37,3.98-1.48,9.13-3.39,10.76-7.7,5.59-14.8-36.98-39.73-34.67-43.23,1.98-3.01,36.4,10.62,37.06,25.48.13,2.87-.73,11.88,4.79,15.99.16.12.28.2.41.29,2.97,2.01,7.05,3.18,19.3,2.08,5.08-.46,8.76-1.05,12.86.96.29.14.82.4,1.47.83,5.31,3.46,3.92,8.04,7.18,10.66,3.74,3,7.8-1.23,20.93,1.17.81.15,1.43.26,2.25.47,9.29,2.3,15.02,8.74,17.46,11.37,13.76,14.85,19.47,13.2,33.46,30.81,10.28,12.94,15.42,19.41,16.14,27.24.74,8.13-1.48,21.22,2.99,26.07.4.43,2.63,2.73,5.36,6.24.95,1.22,1.88,2.48,2.41,3.25,4.24,6.14,5.58,13.52,6.56,18.95.3,1.66.78,4.33,1.04,7.91.39,5.34-.07,7.61-.2,13.66-.13,6.13.31,5.59.34,13.37.04,8.81.05,13.21-1.18,15.41-3.29,5.83-12.07,9.78-18.53,7.7-6.65-2.14-7.33-9.53-13.74-10.08-3.89-.33-8.1,2.01-8.42,2.29-.16.14-.3.29-.3.29-.31.34-.46.66-.5.72-.26.5-1.21,1.65-2.3,3.06-2.31,3-3.26,4.62-3.71,5.44-.08.15-.13.23-.19.35-.23.44-.65,1.3-1.56,4.02,0,.02-.03.08-.05.15-.09.22-.17.38-.19.41-.22.4-1.87,4.28-2.85,6.21-.33.65-.67,1.25-.67,1.25-.17.3-.31.53-.44.76-.35.59-.62,1.02-.69,1.14-.28.46-.61,1.02-1.34,2.35-1.3,2.34-1.8,3.36-3.15,5.78-1.07,1.93-1.37,2.4-1.53,2.65-.34.52-.66.99-1.12,1.78-.32.56-.58,1.05-.8,1.49-.54,1.09-1.08,2.28-2.23,5.04-.62,1.48-1,2.41-1.68,3.86-.07.16-.23.49-.42.88-.94,1.95-1.85,3.62-2.23,4.29-1.22,2.14-2.61,3.87-4.63,6.37-1.4,1.74-2.42,2.89-4.33,5.04-3.77,4.25-5.68,6.38-6.72,6.96-4.47,2.45-8.85,1.36-9.87.75-.18-.11-.37-.23-.37-.23-1.09-.74-1.65-1.55-2.09-2.11-.12-.16-.96-1-2.63-2.69-.79-.8-1.4-1.4-1.85-1.84-.63-.63-1.1-1.08-1.14-1.12-3.06-2.98-5.38-8.45-5.38-8.45-3.25-7.67.53,3.19-9.58-21.32-3.02-7.33-5.94-14.55-5.97-20.74-.01-2.69.36-4.88.36-4.88.58-3.43,1.4-4.06,2.53-8.33.16-.58.86-3.3,1.31-6.94.33-2.73.39-4.96.39-6.33.01-4.25-.5-5.42-.63-9.59,0,0-.09-2.95.24-7.18.5-6.34,1.19-15.17,5.38-21.32,6.66-9.77,23.14-14.23,27.49-9.49,7.34,8-16.91,45.31-21.52,43.53-2.48-.96-.18-13.57,4.2-22.82,2.56-5.41,5.84-12.35,12.27-13.62,3.48-.69,8.41.18,10.46,3.25.5.75.73,2.08,1.18,4.74.66,3.88.66,7.15.66,9.74,0,1.51-.04,2.68-.07,3.29-.04.82-.12,2.38-.34,4.37-.23,2.12-.34,2.3-.54,4.14-.22,2-.27,3.53-.3,4.52-.1,3.13.1,3.83-.09,6.79-.04.56-.09,1.17-.21,2.38-.58,6.14-.84,6.4-.59,7.12,1.2,3.54,10.3,5.65,13.45,2.37,2.9-3.02-.63-9.22,2.1-10.96,1.51-.96,3.84.15,5.97,1.17,4.08,1.96,6.26,5.13,7.18,6.5,2.63,3.93,3.25,7.68,3.58,9.78.25,1.6,1.19,8.15-1.51,14.21-.83,1.88-2.85,5.57-3.71,7.12-.49.89-.9,1.61-1.5,2.62-.95,1.6-1.38,2.22-2.3,3.8-.56.96-.95,1.67-1.26,2.25-2.09,3.83-3.13,5.75-3.93,8-.5,1.41-1.08,3.36-2.01,5.24-.16.32-.45.9-.9,1.64-.51.83-.83,1.2-1.49,2.12-.69.95-1.16,1.7-1.52,2.25-.86,1.33-1.11,1.85-2.03,3.17-.13.19-.32.46-.58.82-.99,1.35-1.81,2.28-3.15,3.78-.34.38-.76.85-1.34,1.47-.7.75-1.02,1.06-1.84,1.93-.72.76-1.08,1.14-1.53,1.63-1.74,1.94-2.09,2.66-3.49,3.71-.14.11-.34.26-.63.45-.49.32-2.12,1.32-4.59,1.66-.03,0-.17.02-.33.04-3.5.39-5.8-1.27-7.4-.83-1.95.55-2.52,4.19-2.91,6.66-1.46,9.38,2.44,17.3,3.58,19.54.92,1.81,1.88,3.3,2.13,3.7,2.37,3.67,3.97,4.9,6.83,8.75,0,0,1.16,1.56,3.06,4.54,4.9,7.65,8.31,16.93,8.58,17.66,1.6,4.33,6.15,12.66,15.25,29.32,5.7,10.43,10.4,19,17.03,29.32,4.93,7.68,7.4,11.52,9.74,14.37,1.82,2.2,4.61,5.36,7.76,10.39,0,0,1.65,2.63,3.12,5.45,7,13.39,9.91,35.81,10.76,42.65,1.01,8.06,1.19,12.76,1.26,14.92.19,6.44-.18,9.62-.31,15.39-.15,6.88.18,11.05.85,21.22.3,4.54,3.1,48.17.35,62.83-.04.19-.54,2.88-1.24,6.48-.6,3.09-1.36,7.01-2.27,11.5-1.88,9.21-2.1,9.45-2.65,13.15-.58,3.86-.91,6.1-.94,9.32-.05,4.78.64,4.75.75,11.2.06,3.8-.13,6.83-.43,9.47-.09.75-.24,2.09-.53,3.73-.86,4.85-2.22,8.42-2.57,9.37-.9,2.43-.69,2.47-5.45,20.68-4.12,15.76-6.21,23.74-7.96,28.55-2.24,6.16-4.78,12.03-6.16,15.22-2.88,6.66-4.01,8.7-7.18,16.21-2.57,6.1-3.86,9.14-4.71,11.54-2.57,7.27-3.5,12.01-8.07,17.11-.73.82-1.28,1.33-2.12,2.13-1.45,1.37-6.58,6.05-20.28,12.74-2.28,1.12-7.69,3.69-12.25,7.29-.73.58-1.33,1.09-1.87,1.58-1.13,1.04-4.17,3.86-6.05,7.54-2.52,4.93-.53,6.65-2.69,8.45-1.21,1-4.01,1.19-9.63,1.55-1.56.1-2.56.11-4.36.35-1.68.22-2.35.42-4.51.68-1.59.19-2.77.28-3.02.3-.7.05-2.82.19-5.46.09-3.83-.13-5.23-.62-9.67-1.12-2.26-.25-3.86-.34-7.06-.52-1.69-.09-6.83-.36-19.96-.21-8.33.09-9.17.23-11.14-.51-2.2-.82-5.61-2.67-8.74-3.84-.35-.13-1.25-.46-2.4-1.05-1.03-.53-1.43-.84-2.45-1.43-1.17-.68-2.04-1.09-3.31-1.68-1.91-.89-3.47-1.48-4.22-1.75-2.65-.97-3.2-.93-5.41-1.83-1.4-.57-2.41-1.08-3.15-1.46-1.47-.75-4.64-2.47-8.15-5.33-1.07-.87-1.8-1.47-2.74-2.41-1.35-1.36-1.76-2.07-3.3-3.42-.93-.82-1.66-1.35-1.87-1.49-1.42-1-2.62-1.58-2.99-1.75-1.9-.89-2.21-.62-4.34-1.55-.51-.22-1.55-.7-2.76-1.44-.68-.42-2.2-1.36-3.75-2.92-2.12-2.12-1.97-3.05-4-4.8-1.22-1.05-2.34-1.64-2.72-1.83-3.85-1.93-6.03-.43-10.45-2.29-.85-.36-1.76-.74-2.79-1.55-1.5-1.18-1.81-2.15-3.61-4.02-.15-.16-1.06-1.09-2.28-2.06-3.05-2.43-6.1-3.53-7.91-4.16-.67-.23-1.88-.65-3.52-1.02-2.77-.63-3.8-.45-5.73-1.13-1.61-.57-2.7-1.34-3.42-1.85-3.78-2.7-3.81-5.27-7.34-7.03-1.02-.5-1.84-.71-2.51-.87-3.28-.8-5.39-.06-8.4.26-1.72.18-4.07-.02-8.76-.43-5.17-.45-7.76-.67-9.09-1.01-.79-.2-3.09-.84-6.05-.56-.12.01-.4.04-.75.09-2.24.32-3.91,1.04-5.97,2.02-.34.16-6.3,2.99-8.23,3.36-.51.1-1.02.13-1.02.13s-.86.06-1.74-.07c-2.56-.38-5.39-1.87-5.39-1.87-4.78-2.52-11.52,1.18-17.94.61-1.66-.15-3.12-.54-3.12-.54-1.53-.41-2.38-.85-3.48-1.28-1.55-.6-2.76-.82-5.18-1.25-6.42-1.15-12.37-1.01-14.9-.93-2.15.06-3.42.1-5.25.32-2.05.25-2.93.51-5.27.68-1.72.13-3.02.12-3.44.12-2.04-.02-3.66-.21-4.52-.32-2.73-.37-3.15-.75-6.46-1.39-.4-.08-2.38-.46-4.94-.74-1.53-.17-4.16-.45-7.49-.38-4.04.09-4.26.59-7.61.42-2.19-.11-4.03-.42-5.18-.66-.5-.1-2.07-.43-4.11-1.1-3.31-1.08-3.84-1.72-6.41-2.46-1.94-.56-3.46-.71-4.73-.84-3.24-.32-3.79.14-8.26-.13-1.04-.06-2.38-.17-4.01-.43-1.12-.18-2.03-.37-2.53-.48-1.61-.36-2.23-.6-3.72-.99-1.27-.33-2.16-.51-3.62-.79-3.55-.69-6.72-1.01-12.16-1.55-3.06-.3-4.62-.46-6.02-.49-.37,0-1.38-.03-2.76-.14,0,0-1.22-.1-2.44-.25-5.06-.66-11.31-1.47-16.54-5.41-1.93-1.46-2.74-2.6-2.99-2.96-1.3-1.91-1.42-3.41-2.1-6.66-.68-3.25-1.69-6.41-2.53-9.62-.92-3.55-1.39-5.34-1.69-6.32-.9-2.97-1.36-4.01-2.31-7.21-.66-2.23-1.08-3.91-1.38-5.12-1.27-5.08-2.63-10.53-3.23-17.09-.57-6.31.03-8.55-1.48-13.94,0,0-.64-2.28-1.56-4.5-4.22-10.2-23.26-23.27-27.78-26.65-8.24-6.15-13.26-15.94-23.32-35.53-7.24-14.1-11.2-27.07-18.83-52.43-7.4-24.59-11.09-36.88-14.34-55.1-4.68-26.28-6.93-39.75-2.69-55.52,2.98-11.09,8.61-22.33,14.34-33.77,1.8-3.6,6.16-12.13,12.56-22.66,7.14-11.75,14.12-21.54,24.21-36.86,1.47-2.23,3.31-5.05,5.61-8.71,1.95-3.11,2.66-4.33,4.57-7.42,2.5-4.03,4.38-6.92,6.42-10.08,18.37-28.31,32.28-47.53,32.28-47.53.68-.94,6.18-8.54,11.35-15.87,2.88-4.09,5.68-8.12,5.68-8.12,1.38-1.99,2.44-3.52,3.91-5.66,2.22-3.25,3.04-4.49,4.96-7.26,0,0,1.28-1.84,2.78-3.94,10.12-14.23,19.29-25.32,19.29-25.32,7.19-8.7,10.91-13.21,17.03-19.11,9.44-9.11,17.72-14.92,23.75-19.11,8.2-5.7,12.3-8.55,18.37-11.12,9.25-3.91,17.31-5.04,22.86-5.78,4.29-.57,9.29-.68,19.29-.88,0,0,14.44-.29,23.75,1.79,2.22.5,4.25,1.17,4.25,1.17,3.16,1.06,5.34,2.21,6.35,2.72,1.47.74,4.79,1.87,11.37,4.1,6.87,2.33,7.89,2.58,13.91,4.66,3.23,1.12,7.11,2.49,10.09,4,1.77.9,2.57,1.3,4.17,2.09.9.45,1.7.85,2.74,1.34.76.37,1.37.65,2.37,1.12,2.25,1.05,3.38,1.57,4.08,1.89,4.84,2.19,6.4,2.51,9.98,4.63.1.06.17.1.19.11,2.52,1.51,6.41,3.84,8.66,7.12,1.62,2.36,1.98,4.73,2.69,9.49.4,2.65.45,4.69.49,6.41.12,4.99-.42,7.14.1,11.95.15,1.35.34,2.63.38,2.88.43,2.72.78,3.82,1.32,6.36.41,1.94.66,3.62,1.18,6.97.48,3.1.72,5.1.78,5.67.1.86.17,1.49.26,2.38.28,2.62.35,3.61.62,6.18,0,0,.11,1.09.3,2.69.83,7.29,3.52,22.58,3.52,22.58,0,0,4.87,22.26,7.77,45.02,1.05,8.21,1.69,16.93,2.99,34.36,1.2,16.17,1.67,26.43,1.8,35.53.14,9.44.21,14.17-.11,17.67-.18,2.01-.59,5.86-.43,10.56.09,2.76.38,5.73.54,7.3.1,1,.21,2,.4,3.16.06.34.11.65.21,1.21.58,3.1.74,3.43,1.05,5.33.04.23.24,1.43.43,3.04,0,0,.07.6.14,1.2.28,2.63.46,8.4.54,10.58,0,0,.17,5.14.35,7.97,0,.04.03.51.07,1.15.02.36.04.63.04.64.09,1.61-2.97,9.7-.67,13.78.58,1.04,2.67,3.87,2.95,4.81.21.7.2,1.4.2,1.4s0,.18-.02.37c-.12,1.24-1.77,5.06-2.08,5.79-.79,1.87-1.13,3.06-1.26,3.57-.12.44-.25.97-.38,1.69-.2,1.18-.16,1.68-.34,2.98-.11.84-.24,1.46-.34,1.89-.4,1.9-.92,3.39-1.26,4.37-.09.25-.15.43-.2.56-.48,1.33-.92,2.37-1.23,3.07-1.18,2.71-1.37,2.74-1.94,4.26,0,0-.45,1.21-.83,2.77-1.14,4.62-1.18,10.95-1.18,10.96-.03,4.38-1.37,5.09-4.2,14.21-3.16,10.18-4.55,19.11-6.27,30.2-.48,3.08-.72,4.63-1.01,6.9-.51,4.02-.59,5.66-1.14,9.01-.29,1.75-.6,3.29-1.08,5.46-1.5,6.79-2.91,11.65-4.09,16.13-.91,3.45-1.76,7.18-3.47,14.63-1.08,4.72-2.38,10.38-3.88,17.75-1.88,9.19-1.85,10.1-3.53,17.67-.84,3.78-1.05,4.47-2.46,10.77-1.14,5.07-1.85,8.24-2.75,12.56,0,0-2.92,14.08-3.33,21.8,0,.03,0,.18-.02.39-.03.41-.06.58-.08.97-.02.24-.02.41-.03.45-.02.31-.31,4.66-1.72,10.5,0,0-.4,1.65-1.24,4.53-.14.47-.2.7-.3.96-.08.23-.16.43-.27.78-.06.21-.06.24-.11.36,0,0-.13.37-.35.73-.61,1.01-13.53.46-14.15.47,0,0-.06,0-.13,0-.56,0-.99-.06-1.13-.08-1.09-.14-3.16-.29-4.46-.53-.06-.01-.28-.05-.59-.11-.53-.09-.92-.15-.97-.16-1.97-.31-6.85-2.58-9.87-1.2-2.58,1.18-3.89,5.04-4.79,7.7-.05.16-.09.27-.12.38-2.51,7.85-1.98,16.79-1.98,16.79.11,1.87.35,3.98.18,7.33-.02.45-.07,1.45-.18,2.45-.39,3.55-.87,7.82-3.28,10.08-3.61,3.37-11,1.72-11.94,1.49-1.14-.27-4.03-1.11-7.73-.53-.43.07-.74.13-.86.16-5.53,1.14-19.95-1.19-29.07-2.3,0,0-6.15-.74-11.97-.93-1.81-.06-3.18-.06-3.18-.06-2.22,0-3.14.06-5.48.07,0,0-1.42,0-3.55-.03-5.74-.11-12.47-.73-13.48-.83-5.89-.55-9.01-.84-13.45-1.65-3.67-.67-8.25-1.7-12.35-2.35-1.76-.28-3.74-.59-5.59-.77-.25-.02-.95-.09-1.91-.21-.7-.09-1.4-.19-2.53-.37-.79-.13-2.13-.35-3.95-.69-1.1-.21-2.72-.53-4.72-.97-2.73-.61-4.74-1.13-5.37-1.29-5.47-1.4-11.53-2.16-15.55-2.67-5.83-.73-8.74-1.1-11.04-.98-.89.05-2.75.18-5.3-.04-2.01-.17-2.88-.43-4.88-.77-5.19-.87-7.78-1.31-9.25-.29-1.99,1.38-1.71,4.54-1.8,7.7-.08,2.55-1.55,7.63-4.49,17.78-1.94,6.69-4.31,14.86-9.87,23.11-1.96,2.91-8.06,11.95-17.03,17.78,0,0-7.34,4.77-12.11,11.26-.73,1-1.34,2.07-1.34,2.07-.05.09-1.05,1.88-1.71,3.93-1.54,4.83-.74,9.84-2.79,18.28-.11.45-.19.75-.35,1.36-1.98,7.54-3.87,11.43-6.83,19.08-3.44,8.88-6.14,17.16-7.71,22-.09.29-.2.63-.36,1.11-1.8,5.58-3.72,11.59-5.38,18.66-.59,2.51-.94,4.3-1.53,7.27-1.22,6.14-1.64,9.2-2.04,11.39-1.21,6.47-4.39,12.91-10.76,25.78-1.71,3.45-2.99,6.03-4.95,9.58-2.61,4.72-3.68,6.18-6.07,10.92-1.55,3.06-2.66,5.52-3.32,7.04-1.22,2.79-2.05,4.96-2.32,5.68-1.21,3.17-1.55,4.47-2.57,7.41-1.04,2.97-1.87,5.02-3.17,8.23-3.22,7.93-6.46,14.17-12.56,27.53-3.92,8.58-5.88,12.87-7.12,16.35-.44,1.24-1.49,4.24-3.24,8.23-.38.86-1.42,3.23-3.09,6.53-2.35,4.65-4.62,8.57-6.55,11.71-5.45,8.88-6.01,8.11-10.21,15.41-2.77,4.81-4.64,8.81-5.64,11.07-1.34,3-2.29,5.49-2.79,6.81-1.56,4.18-1.59,4.98-3.01,8.96-1.47,4.13-2.81,7.16-4.08,10.01-1.99,4.47-3.72,7.85-4.45,9.27-2.71,5.21-3.5,6.06-5.95,10.84-1.81,3.53-3,6.22-3.93,8.33-6.24,14.18-9.69,22-10.76,31.99-.25,2.3-.74,8.21-2.18,15.53-.33,1.67-.73,3.52-1.4,5.79-.62,2.09-1.65,5.51-3.68,9.42-2.3,4.42-3.45,4.77-5.23,8.94,0,0-1.09,2.54-1.84,5.64-3.07,12.57,2.97,24.7-1.8,32.87-3.09,5.29-7.76,10.33-7.76,10.33-.13.14-.22.24-.31.33-5.3,5.65-8.29,7.26-10.76,9.78-3.74,3.82-4.94,8.37-7.18,16.87-.62,2.37-.94,4.08-1.44,6.82-1.71,9.34-1.06,11.03-2.14,17.17-.95,5.4-2.72,10.11-6.27,19.54-.53,1.4-1.68,4.43-3.87,9.65-4.91,11.71-7.78,17.15-10.47,23.22-2.07,4.66-1.2,3.31-8.96,25.78-3.82,11.05-9.14,26.18-11.65,38.2-1,4.8-1.4,8.35-1.53,9.58-.52,5-.4,7.89-.54,12.1-.16,4.71-.61,8.36-1.51,15.64-2.31,18.61-6.1,35.48-8.96,45.31-1.32,4.54-2.08,7.17-3.49,10.87-1.46,3.82-2.1,4.83-3.26,8.53-1.09,3.46-1.96,7.11-2.2,8.13,0,0-.38,1.61-.73,3.31-4.31,20.8-4.44,36.22-4.44,36.22-.01,1.22-.01,3.63-.21,6.97-.29,4.78-.8,8.48-1.13,10.57-.09.6-.31,1.91-.63,3.6-.66,3.45-1.07,4.79-1.55,7.14-.59,2.93-.82,5.16-.99,6.81-.51,5.03-.15,6.93-.28,12.94-.07,3.2-.24,5.37-.53,9.28-.56,7.34-1.32,12.95-2.39,20.74-.57,4.1-.92,6.68-1.51,10.37-.07.47-1.6,10.06-2.15,14.53-.13,1.04-.24,2.05-.24,2.05-.1.9-.25,2.38-.4,4.3-.23,3.05-.15,3.22-.34,5.22-.15,1.57-.33,2.72-.45,3.51-.76,5.02-2.23,10.65-2.39,11.25-1.97,7.44-2.61,8.48-3.87,14.21-1.24,5.65-1.35,7.98,0,9.49.88.98,3.04,2.35,2.99,3.84,0,.22-.09,1.01.21,1.98.03.11.13.44.3.77.58,1.14,1.5,1.38,2.17,2.06,1.09,1.1,1.01,2.84,1,3-.08,1.36-1.08,1.86-4.81,5.1-2.97,2.58-4.1,3.8-5.08,5.3-.53.81-1.01,1.7-1.13,1.92-.57,1.06-1.05,2.1-1.91,4.32-.59,1.53-2.03,5.24-2.77,8.16-.06.24-.56,2.24-.56,2.24,0,0-.14.77-.32,1.56-.05.2-.09.36-.16.68-.22.9-.4,1.61-.46,1.81-.21.8-.34,1.27-.56,2.11-.48,1.77-.72,2.65-.78,2.96-.06.29-.26,1.26-.4,2.88-.33,3.86.23,5.09-.13,8.77-.07.75-.19,1.67-.46,2.77-.13.53-.39,1.52-.86,2.72-.81,2.05-1.49,2.77-2.64,4.85-.76,1.37-1.19,2.37-1.88,3.97-2.03,4.7-2.65,8.2-4.49,13.33-.17.48-.51,1.41-1.09,2.56-.76,1.53-1.49,2.53-1.89,3.13-.77,1.13-1.51,2.61-2.99,5.56-3.3,6.59-4.95,9.89-5.68,13.03-1.11,4.8-.96,9.5-3.87,11.54-.41.29-.89.55-.89.55-2.24,1.22-3.49.77-6.59,1.53-1.5.37-2.7.83-3.28,1.06-1.41.55-1.72.81-3.39,1.47-.26.1-1.38.54-2.9,1.01-1.68.52-3.04.83-3.71.98-2.87.62-3.28.39-5.56,1.04-1.25.35-2.12.7-2.67.94-.56.25-1.43.63-2.45,1.28-1.12.72-1.26,1.01-2.44,1.83,0,0-.92.63-2.29,1.34-3.38,1.76-10.66,1.96-16.43,4.74-2.37,1.14-4.66,3.13-9.25,7.12-2.51,2.18-4,3.7-4.99,4.76-1.73,1.85-3.66,4.16-5.47,7.16-1.7,2.81-2.55,4.21-2.1,5.04.77,1.39,4.39,1.12,11.65.59.5-.04,1.71-.13,3.34-.11,2.02.03,3.5.22,4.16.3,2.08.25,4.86.3,10.43.4,1.36.02,3.94.06,7.25.03,4.59-.04,5.99-.16,10.97-.26,3.09-.06,5.28-.06,8.09-.07,7.85-.02,14.8.14,20.33.29,17.06.46,17.74.73,27.78.88,6.9.1,3.91-.06,17.94,0,15.72.07,22.98.3,34.49-1.12,1.6-.2,1.25-.17,2.87-.38,24.94-3.09,33.01,1.07,36.52-3.12,1.65-1.97.77-3.97-7.18-26.44-5.91-16.69-9.74-27.79-12.56-42.65-.32-1.68-.48-2.52-.65-3.65-1.99-12.92-1.32-29.77,4.23-37.21.58-.77,2.1-2.65,3.28-5.62.88-2.22.48-2.33,1.64-6.21,1.13-3.8,1.83-4.76,1.72-6.96-.07-1.53-.48-2.4-.94-3.81-.55-1.67-3.83-11.58.17-15.73.27-.28.98-1,2.13-1.4,2.42-.83,3.58.91,7.45.81,1.33-.03,3.12-.29,3.79-.39.61-.09,1.48-.22,2.75-.36,0,0,.77-.08,1.53-.14,4.01-.3,12.3,2.69,15.55-.59.26-.26.4-.47.54-.68,1.54-2.28.69-4.65.64-8.49,0-.78.09-1.98.3-4.38.39-4.59,1.14-8.13,1.5-9.83.69-3.23,2.06-7.29,4.79-15.41.41-1.22,1.39-4.1,2.68-7.78.22-.62,1.01-2.87,2.1-5.85.95-2.6,1.68-4.59,2.67-7.16,1.68-4.36,2.25-5.57,3.4-8.94.56-1.65.92-2.78,1.11-3.43.45-1.48,1.03-3.39,1.57-5.86.47-2.15.38-2.34.84-4.26,0,0,.47-1.97,1.17-4.09,1.96-5.93,6.37-13.56,8.96-20.44.67-1.8,1.09-3.17,1.28-3.86.67-2.33.93-3.91,1.28-5.58.39-1.87.9-3.72,1.93-7.43,1.37-4.91,3.21-10.44,9.58-28.44,1.32-3.74,1.96-5.52,2.8-7.82.52-1.44.97-2.64,1.69-4.64.2-.56.88-2.45,1.78-5.03,2.56-7.34,5.33-15.27,8.72-26.29.22-.71.42-1.37.7-2.29,2.82-9.36,4.23-14.03,4.92-18.21.82-4.92.72-7.91,1.61-14.94.11-.85.37-2.88.92-5.51.17-.79.43-1.99.81-3.41.79-2.98,1.44-4.62,2.37-7.31.68-1.98,1.19-3.67,2.21-7.06,1.07-3.56,1.85-6.16,2.75-9.68.79-3.11,1.02-4.38,1.82-7.2.71-2.48,1.46-4.74,1.56-5.04,0,0,.26-.79.54-1.58,1.98-5.67,8.58-21.23,8.58-21.23s4.61-10.87,7.35-18.25c.22-.58.42-1.15.42-1.15s1.1-3.01,2.11-6.08c1.54-4.65,2.78-9.14,4.77-15.24,1.1-3.37,2.12-6.5,3.73-10.71,1.56-4.08,2.2-5.34,3.94-10.03,1.25-3.36,2.19-6.14,2.79-7.99,1.29-3.93,2.59-7.88,3.85-13.04,1.23-5.04,1.17-6.08,2.44-10.04.35-1.09,1.19-3.58,2.53-6.69.5-1.16,1.62-3.68,3.39-6.88,2.27-4.11,3.31-5.2,5.29-8.47,1.07-1.76,2.05-3.56,5.07-10.13,4.89-10.64,7.33-15.96,9.25-20.74.72-1.8,2.73-6.85,6.56-11.83.63-.82,1.24-1.54,1.43-1.76,3.63-4.29,7.01-6.84,8.15-7.73,3.79-2.93,10.54-8.77,15.84-14.82,4.79-5.46,7.63-8.71,9.58-13.62,0,0,2.3-5.81,4.95-11.09.78-1.56,1.7-3.04,1.7-3.04.19-.3.46-.74.83-1.28,1.83-2.72,3.56-4.6,5.46-7.28.1-.15,1.04-1.46,2.02-3.07,2.61-4.26,3.03-6.4,6.56-13.91,1.02-2.17,1.53-3.15,2.25-4.29,1.43-2.27,1.92-2.4,3.89-5.1,2.03-2.78,3.38-5.2,4.32-6.89.42-.76,1.1-1.98,1.89-3.65.79-1.65,1.03-2.34,1.72-3.85.81-1.79,1.48-3.03,2.36-4.66,3.31-6.14,7.16-11.96,9.25-15.11.81-1.23,1.6-2.41,2.7-3.98,1.12-1.58,1.39-1.88,2.54-3.53,1.1-1.57,1.91-2.8,2.53-3.75.29-.44,1.24-1.89,2.53-3.96,1.96-3.14,2.25-3.77,3.75-6.1.88-1.38,1.54-2.33,2.38-3.56,2.32-3.39,3.67-5.35,5.75-7.81.42-.49,1.08-1.27,2.02-2.27,1.81-1.92,2.91-2.82,5.26-5.01,1.43-1.34,2.45-2.34,3.4-3.28,1.72-1.7,3.92-3.87,6.56-6.82,1.24-1.39,2.14-2.45,2.75-3.18,3.02-3.59,3.84-4.91,5.91-7.48,3.47-4.33,6.65-7.48,9.87-10.66,1.19-1.18,2.31-2.28,3.91-3.73,1.87-1.69,2.38-2.02,4.6-4.01.73-.66,2.09-1.9,3.75-3.51,1.86-1.8,3.25-3.25,3.81-3.84,2.33-2.44,2.35-2.66,4.65-5.07.49-.51,1.9-1.98,3.81-3.82.81-.78,1.95-1.88,3.49-3.25,1.72-1.54,2.31-1.96,4.14-3.53,1.67-1.44,2.83-2.51,4.32-3.88,6.85-6.31,9.17-9.49,15.55-14.82,1.25-1.05,2.68-2.23,4.68-3.69,2.72-1.97,5.76-3.89,7.56-5.03.16-.1.28-.18.3-.19,14.83-9.33,26.01-9.78,26.01-9.78,3.04-.12,11.97-.09,20.63,5.33.33.2,7.03,4.48,11.65,11.54,1.31,2.01,2.23,3.79,2.23,3.79,2.07,4,2.17,5.88,4.03,9.54.97,1.91,1.85,3.19,2.89,4.69,4.11,5.94,8.32,8.87,13.24,13.97,0,0,8.17,8.48,14.34,20.44.85,1.66,1.86,3.61,2.93,6.39,1.57,4.06,1.52,5.33,3.37,10.71,1.12,3.24,2.14,5.69,2.66,6.89,1.46,3.41,2.79,5.97,3.4,7.12,2.35,4.43,2.99,4.73,6.55,10.76,2.05,3.49,3.56,6.3,4.39,7.89,2.24,4.28,3.73,7.56,4.03,8.23,2.01,4.46,2.46,6.07,4.32,10.62,1.61,3.92,2.84,6.55,5.1,11.35,4.14,8.81,9.58,20.37,17.03,31.99,2.21,3.44,3.47,5.42,5.49,8.18,3.08,4.21,4.28,5.3,6.89,9.36,1.78,2.76,3.05,5.1,3.76,6.45,0,0,1.24,2.36,2.33,4.82,3.41,7.67,8.43,22.71,8.43,22.71,5.97,17.87,8.89,24.11,12.56,29.32,2.05,2.91,4.23,5.35,4.32,5.45,4.23,4.71,7.54,6.83,11.33,9.94,3.65,2.99,6.18,5.75,11.25,11.26,5.29,5.75,9.9,10.77,14.34,17.78,2.09,3.3,5.58,11.09,12.56,26.65,2.12,4.73,3.23,7.3,5.31,11.24,1.37,2.58,2.66,4.82,4.57,8.73,0,0,1.35,2.77,2.69,5.81,6.66,15.16,12.56,40.86,12.56,40.86,1.24,5.4,7.13,31.53,7.18,44.43,0,.9,0,5.93.24,12.87,0,.19.15,4.12.35,7.86.55,9.92,1.61,18.89,2.39,25.48.53,4.44,1.66,13.53,3.55,25.15.37,2.31,1.23,7.52,2.42,13.95,1.39,7.49,3.85,20.66,7.77,36.14,3.3,13.01,8.75,32.07,10.37,42.55.65,4.23.98,8.39.98,8.39.17,2.09.44,5.7.34,10.36-.11,5.11-.54,5.32-.5,9.53.04,3.9.44,6.86.75,9.14.3,2.16.95,6.27,2.42,11.61,2.42,8.81,4.02,9.87,5.66,16.96.61,2.62.9,5.26,1.5,10.54,1.98,17.67.61,20.48,3.58,23.7,2.5,2.71,6.85,3.39,15.55,4.74,9.71,1.51,15.25.47,16.73,3.55.81,1.68-.53,2.67-1.14,7.1-.54,3.94.45,3.7,1,12,.26,3.91.7,13.8.73,14.83Z"/>
</svg>