<?xml version="1.0" encoding="utf-8"?>
<!-- Generator: Adobe Illustrator 26.5.0, SVG Export Plug-In . SVG Version: 6.00 Build 0)  -->
<svg version="1.1" id="图层_1" pointer-events="none"
	 xmlns="http://www.w3.org/2000/svg" xmlns:xlink="http://www.w3.org/1999/xlink" x="0px" y="0px" viewBox="0 0 1975 1204"
	 style="enable-background:new 0 0 1975 1204;" xml:space="preserve">
<style type="text/css">
	
		.st0{fill-rule:evenodd;clip-rule:evenodd;fill:#FFFFFF;fill-opacity:0.2;stroke:#000000;stroke-width:2;stroke-linecap:round;stroke-linejoin:round;}
	
		.st1{fill-rule:evenodd;clip-rule:evenodd;fill:#FFFFFF;stroke:#000000;stroke-width:2;stroke-linecap:round;stroke-linejoin:round;}
</style>
<g>
	<path class="st0" d="M1172,628c3.7,0.6,11,10,11,10l10,4l7-2l18,3l16,5h43l29,9l8,6l5,1l4-4l9-27l-3-8l-39-2l-46-8l-55-23h-7l-7-3
		c0,0-9.8,0-13,0c-1.5,0-4.6,0.6-6,0c-2-0.8-6-6-6-6l-14-10l-10-3c0,0-5.9-4-8-5c-10.4-4.9-36.9-5.2-43.7-14.6
		c-0.4-0.5,2-0.3,2.7-0.4c0.8-0.2,3-1,3-1l1-4l-11-11l-14-5c0,0-4.5,1.4-6,1c-1.2-0.3-3-2.3-4-3c-0.7-0.5-3-2-3-2s-16.2-2.6-21-5
		c-19-9.6-66.7-33.8-65-55c0.1-1.5,5-3,5-3h15l19,10l40,26l31,15l38,9l42,20l36,15l25,3l10-1l8-3l26-13l7-5l5-7l2-10l-3-22l-7-53
		l-134-34l-37-15l-5,1l-11-5h-10l-14-7l-14-12l-12-4l-9-6l-22-4l-12-6l-6-6l-5-10l3-1l-2-6l-7-6l-7-10l-38-24l-15,2l-9,3l-33,18
		l-10,9l-32,37l14,3l74,83c0,0,39.9,24.8,42,39c1,6.9-9,19.2-14,24c-2.2,2.2-11,6-11,6v2h-2l1-4h-2l-1,3l-2-1v-2l-3,1l-3,3l1,2l-4,4
		l-4-1l-7,4l-2-2l-1,3l-3,1v2h-3v-3l-4,4l-1-2l2-1h-2l-2-6l-3-1v3l-4,4h2l-1,2l-8,1v-2l-6,4v2l-4,1l-4,4v4l-3,2l-7,2l-3-1l-7,4l-1,3
		l3,3l6,1l-1,4l-8,2l2,2l-1,2l6,3l-5,5v4l-3,2l2,3l-3,2l-1-1l-4,4h-5l-5,3l4,3l-6,2l-1-1v7l1,3l4-1l2,3h-2v2h7l1,11l-3,4l2,6l-1,1
		l1,3h5l-1-2l3-2l6,13h2l1,2l-3,3l-1,1l-6,1l-2-2l-6-1l-3-3h-3l-6,6l1,1l-3-1l-2-7l-3-3h-2l1,1l-2,2l-1,10l-10,2l-1,13l-2-1l4,1v4
		l-2,1l3,4l-2,4l3,14l-1,4l2-1l1,2v4l-2,1l4,1l-3,1l3,5h-2v2h2l1,3l-3,1h2v3l-2,3h-2v3l-3-3l-6,1l-1-2h-2v2l-2,1v2h2l-3,6l-3-4l-2,1
		l-1-2l-1,2h-2l-2,4l-6,1l-12,1l-27-6l-13,4h-12l-5,4l-1,5l-7,10l5,3l5-1l6,3l3-1l-1,1l3,5h2l2,4l-3,1l-3,15l4,9v11l4,2l1,4l4-2l4,2
		h6l-1-3l7-2v-7l4,1l1,4l3,1l-1,2h10l3,1l2,4v7h-2l3,1l2,9l2,1l-1,3l-4,1l-1,2l2,6h-2l3,10l2,2l-1,17h3v2h-3v2l-3,1l-1,3l2,4l7,1
		l1,4l4-1l2,5l-4,2l2,1l-2,3l1,3l-3,2l2,2h-2l-10,11v7l2,1l3-5l2,2l1-3l4-3v2l8,3l4,6v3l4-1l-1-3h-3l1-3l2-2l3,2l-1-4l8-4l-1-3l3-3
		h7l9-5l2,4l6-2l4,2l1,2l-3,7h7l2,1v3l1-1l-4,12l-1,13l-5,1l3,5l9,1l2-2l8,2v2l5-2l3,3l8-6l3,5h2v-6l3-2l6,1l6,10l1,7l13,8l5,6l1-1
		l2,2l-3,15l3,6l1,11l41,1l4-2l23-23l37-23l38-20l50-16l40-1l91,2l6,1l5,4l10,18l13-8l-7-16l-1-6l16-14l5-8l2-22l-1-21l-3-20l-7-29
		l-8-19l-8-11l-29-33l-3-6l-16-14l-22-25l-34-52l-11-13l-67-44l-28-7c0,0-6.9-2.7-9-4c-2.2-1.4-6.1-5.1-8-7c-1.6-1.6-6-7-6-7l-46-37
		c0,0-0.9-4.1,0-5c9.5-9.6,44.4-10.5,54-1c0.5,0.5-0.3,2.3,0,3c1.8,5,17,13,17,13l15,16l81,49l12,11l4,10l2,3l4,2l4,1l9,2
		c0,0,0.6-1.6,1-2C1166.4,629.7,1170.1,627.7,1172,628z M974,1009"/>
</g>
<path class="st1" d="M1074.3,550.4"/>
</svg>
