<svg xmlns="http://www.w3.org/2000/svg" pointer-events="none" class="leaflet-zoom-animated" width="1975" height="1204" viewBox="-165 -100 1975 1204" style="transform: translate3d(-165px, -100px, 0px);"><g><path class="leaflet-interactive" stroke="black" stroke-opacity="1" stroke-width="2" stroke-linecap="round" stroke-linejoin="round" fill="#fff" fill-opacity="0.2" fill-rule="evenodd" d="M1032 373L1033 370L1031 368L1033 366L1036 367L1036 365L1033 364L1040 361L1045 352L1053 345L1055 345L1056 340L1059 338L1061 329L1063 331L1069 330L1069 335L1075 340L1078 339L1080 341L1079 343L1083 347L1085 345L1090 344L1090 340L1094 336L1095 332L1097 332L1099 326L1105 327L1105 329L1110 332L1113 332L1112 333L1114 333L1116 340L1119 340L1123 343L1133 339L1136 339L1137 342L1141 338L1143 338L1145 340L1145 343L1147 344L1165 331L1169 331L1172 333L1174 332L1175 336L1180 329L1180 324L1182 321L1181 318L1180 319L1182 314L1186 311L1185 309L1187 307L1185 295L1183 293L1187 290L1180 289L1180 282L1184 279L1184 276L1181 271L1175 272L1175 267L1173 264L1171 265L1165 263L1164 261L1159 265L1156 265L1156 269L1148 280L1137 283L1135 282L1120 288L1118 287L1118 285L1115 283L1114 284L1102 275L1102 272L1095 267L1098 265L1102 266L1104 262L1108 259L1108 255L1104 254L1104 250L1107 250L1109 246L1108 243L1104 244L1102 237L1100 236L1096 240L1094 239L1095 238L1093 236L1091 229L1092 220L1090 219L1090 217L1100 214L1101 211L1105 210L1106 207L1104 205L1101 204L1096 208L1092 206L1090 203L1088 206L1079 206L1077 209L1073 207L1062 209L1062 207L1056 207L1056 204L1054 202L1052 211L1049 213L1048 217L1055 232L1055 240L1046 247L1044 247L1042 251L1040 251L1040 248L1035 245L1028 248L1027 252L1019 259L1016 264L1016 267L1018 269L1021 269L1023 275L1028 274L1022 281L1023 288L1021 292L1005 307L1002 311L1003 316L996 316L995 320L989 328L989 331L986 333L981 332L979 335L975 336L972 332L968 338L966 344L968 360L965 372L967 374L966 379L967 383L976 397L975 398L977 407L979 408L979 415L981 421L981 424L975 427L975 441L967 441L965 439L961 445L957 445L951 451L951 454L947 455L940 451L943 442L935 439L935 441L921 446L917 451L909 453L907 457L901 461L895 469L887 466L881 467L878 465L872 471L870 471L871 467L869 467L867 464L868 460L865 459L861 453L858 453L857 451L852 453L848 449L849 445L854 444L851 434L848 433L840 425L834 424L834 421L833 422L831 419L830 416L831 414L836 414L838 407L836 406L836 404L841 399L840 397L836 396L836 402L830 402L830 400L827 397L829 396L828 394L831 390L828 388L828 386L819 384L818 379L807 372L809 364L807 363L810 354L801 354L798 351L797 344L795 342L796 339L794 338L788 326L785 328L786 321L781 310L779 311L781 308L779 307L780 305L774 303L774 298L767 290L769 286L767 285L765 279L763 281L761 280L759 286L753 291L752 289L744 285L741 288L737 297L735 297L735 299L733 300L730 299L731 293L729 291L731 289L731 286L722 284L719 281L721 278L714 269L710 267L705 256L706 252L708 253L709 251L712 253L713 250L719 249L718 247L720 245L717 242L719 241L719 238L716 235L709 233L709 225L703 223L700 213L696 209L692 209L692 206L688 206L689 204L685 199L681 199L679 197L678 184L674 188L669 187L667 192L668 195L661 201L661 207L657 208L654 215L651 214L648 217L648 220L651 225L649 226L652 230L649 234L648 239L650 241L648 249L649 256L640 248L639 242L634 239L633 235L630 234L631 233L627 228L629 226L630 220L628 215L629 211L627 210L628 208L624 199L622 187L624 173L622 153L623 145L616 146L614 148L610 147L609 154L614 163L608 169L605 170L605 180L610 182L610 185L605 186L605 188L603 189L599 189L597 186L595 173L591 167L586 171L579 171L579 174L581 175L580 179L582 184L581 187L583 196L582 198L575 201L579 213L578 221L583 222L584 227L586 229L585 231L588 233L590 237L587 239L586 248L580 251L578 254L572 253L569 254L567 257L563 256L563 258L560 261L558 261L557 254L555 252L556 246L550 238L547 231L543 233L542 236L540 234L540 237L543 239L545 247L537 250L537 255L535 255L534 257L536 261L533 273L535 278L538 278L540 283L537 289L540 291L544 299L541 301L545 305L545 307L547 307L550 321L555 322L560 318L560 307L562 306L564 309L570 310L572 308L575 314L580 316L582 314L585 317L584 331L586 337L589 340L586 348L588 349L585 353L586 366L591 369L591 372L588 374L590 382L590 386L588 389L591 395L589 405L591 406L592 415L590 419L589 437L586 443L583 445L582 451L586 452L588 457L586 461L587 463L581 467L581 461L578 461L576 463L575 462L574 464L577 479L581 480L584 483L585 490L580 496L576 495L573 492L569 492L563 503L563 508L559 509L558 511L558 517L551 520L550 522L544 515L537 514L538 521L536 524L533 525L536 531L534 538L530 538L528 545L523 546L516 555L513 555L507 549L503 561L498 569L496 568L495 579L497 582L497 586L500 589L502 589L503 592L500 594L494 592L489 598L482 600L480 603L482 604L482 616L481 627L478 633L479 634L491 631L492 636L495 639L495 641L490 643L491 647L496 647L500 651L497 654L496 658L498 658L499 660L497 662L497 665L493 667L492 670L488 672L487 676L482 678L482 680L478 682L478 684L488 689L489 692L492 689L495 690L496 687L500 686L500 684L503 681L504 682L507 679L512 679L512 675L516 675L531 667L539 667L541 665L554 667L563 664L571 664L575 668L580 666L583 667L590 664L599 664L601 662L603 666L595 674L592 674L587 680L585 678L582 681L585 682L585 693L582 696L584 696L584 698L593 698L598 713L601 714L601 717L594 722L594 724L596 729L601 728L604 734L605 741L601 743L604 743L606 745L606 749L602 755L602 758L617 760L617 765L622 767L630 765L635 768L644 763L647 766L659 769L659 775L663 783L663 785L661 786L653 782L652 784L654 791L650 793L647 799L642 800L641 802L645 809L647 818L645 822L647 825L643 831L641 831L638 835L635 836L637 841L633 845L634 850L631 852L628 857L629 858L627 858L628 860L632 864L636 863L637 865L649 865L655 862L657 862L659 865L663 863L665 865L666 863L676 868L675 870L677 871L678 868L682 868L687 870L688 872L691 872L692 868L701 869L699 871L703 878L698 888L698 892L702 902L707 907L712 903L719 907L719 909L717 909L716 912L713 914L715 923L719 925L720 922L722 922L726 927L729 925L730 926L735 921L739 921L742 919L745 926L747 927L751 926L756 928L764 925L766 922L770 922L772 918L775 917L776 913L784 905L786 906L789 904L796 903L802 897L805 897L805 905L809 909L809 915L807 917L813 918L813 923L815 923L812 926L812 931L807 932L811 940L817 943L814 949L821 955L830 950L843 948L849 949L849 955L855 953L858 956L858 958L864 958L867 952L870 952L870 948L866 944L862 943L861 939L863 932L862 925L865 922L863 919L863 915L866 916L870 912L868 909L865 910L864 902L862 901L865 891L862 890L861 887L858 885L857 880L855 881L849 878L851 874L846 863L849 861L849 859L844 852L846 848L851 847L853 839L855 838L853 835L856 827L864 825L869 829L869 832L876 837L877 831L883 832L889 829L897 832L898 835L902 832L910 833L909 829L915 820L918 819L917 817L920 816L922 812L920 808L925 806L927 799L931 798L937 804L941 802L945 807L948 806L963 815L970 827L975 827L979 831L983 831L984 824L993 820L991 814L994 811L1002 808L1002 802L1006 798L1006 795L1016 800L1016 806L1018 810L1025 816L1029 809L1028 805L1035 796L1056 819L1064 825L1068 824L1071 803L1078 795L1091 792L1092 802L1102 806L1120 791L1122 791L1123 794L1124 792L1129 794L1134 793L1138 786L1146 782L1146 779L1142 773L1141 765L1147 764L1148 759L1150 758L1154 761L1156 756L1162 754L1167 750L1168 752L1175 748L1180 750L1182 742L1184 742L1188 737L1192 744L1196 748L1198 747L1202 751L1204 756L1208 758L1206 753L1212 745L1219 742L1219 744L1222 743L1220 741L1222 740L1217 736L1222 736L1226 733L1227 730L1232 730L1232 726L1236 724L1248 727L1249 731L1256 727L1262 719L1260 716L1264 704L1262 697L1267 694L1265 690L1267 690L1262 684L1258 675L1254 672L1254 668L1252 666L1250 667L1249 664L1246 666L1243 664L1241 665L1240 673L1237 671L1235 674L1231 674L1231 671L1228 669L1226 671L1222 670L1220 673L1217 673L1216 664L1213 663L1208 664L1205 667L1205 674L1203 675L1196 673L1187 665L1183 667L1185 669L1182 671L1175 663L1175 660L1179 660L1180 656L1174 649L1176 644L1171 639L1169 640L1168 635L1160 633L1152 636L1150 634L1143 632L1133 632L1131 635L1133 643L1132 645L1123 639L1125 637L1123 635L1120 635L1119 629L1117 628L1117 625L1113 618L1113 614L1111 612L1117 601L1116 595L1132 577L1130 571L1124 571L1130 569L1134 559L1133 557L1135 555L1141 560L1141 554L1143 553L1142 550L1134 550L1132 548L1126 547L1126 541L1117 536L1118 524L1108 527L1107 529L1105 526L1107 524L1106 518L1101 518L1100 516L1098 516L1096 511L1097 500L1101 503L1104 500L1104 496L1107 494L1106 492L1108 489L1107 486L1105 487L1105 485L1110 475L1109 468L1113 468L1115 466L1117 450L1121 444L1127 442L1127 440L1129 439L1128 432L1125 430L1123 424L1119 423L1120 418L1118 416L1112 417L1109 415L1110 410L1106 403L1104 404L1102 410L1096 414L1094 411L1092 413L1088 413L1082 410L1078 411L1073 419L1074 423L1072 424L1055 424L1051 422L1044 412L1046 410L1045 406L1047 403L1046 401L1045 402L1042 400L1041 395L1042 389L1047 388L1047 379L1045 378L1043 372L1040 369L1038 369L1036 372z"/></g></svg>