<?xml version="1.0" encoding="utf-8"?>
<!-- Generator: Adobe Illustrator 26.5.0, SVG Export Plug-In . SVG Version: 6.00 Build 0)  -->
<svg version="1.1" id="图层_1" pointer-events="none"
	 xmlns="http://www.w3.org/2000/svg" xmlns:xlink="http://www.w3.org/1999/xlink" x="0px" y="0px" viewBox="0 0 1975 1204"
	 style="enable-background:new 0 0 1975 1204;" xml:space="preserve">
<style type="text/css">
	
		.st0{fill-rule:evenodd;clip-rule:evenodd;fill:#FFFFFF;fill-opacity:0.2;stroke:#000000;stroke-width:2;stroke-linecap:round;stroke-linejoin:round;}
</style>
<g>
	<path class="st0" d="M1418,605h3l-2,4l1,1h2v-3l2,2v6l-11,3v2l-2,1l-6-1l1,2h-2v6l6,9l-3,4l1,2l-11,2l1,8l-2,3v5l-3,1l-3-5l-2,1
		l-2-6h-3l1,3l-4,3l-2-3l-3-1l-2-4l-4-2l-5,1l2,1v4l-2,4l-4,2l6,3l4-1l2,4v5l6,5l-2,1v4l3,1v3l-4,3l1,3l-2,7l1,7h2h-2l2,1l-2,3l1,5
		h2l1,4h2l-1,10l7,1l5-2l13-10h3v5l5,6l1,4h2l-2,4l4,7l2,6l-1,2l2,1l-1,6h-3l2,1l-1,1l-3-1l-1,3l3,4l3-2l3,4h4l-3,12l-2,4l-3-2l-7,2
		l-3,7h2l-5,3h-6l-1,2l-4-3l-3,1l-9-3l1,3l3,1l-2,2l-2,1l-5-2v2h-2l-2-2l-5,3l-1,6l-7,4l-2-3l-7,1l-10,9l-2,1l-3-2l-10,6l-1-1l-4,3
		v4l-3,1l-8,9l1,2l-2,2l-2-2l1-4l-1,1l-2-7l-4-6v-5l-6-1l-3-2l1-3l-3-1v2l-7,3l-1,3l5,5l-2,5l-1,13l4,3v2l-2-1v7h-2v4h-2l-1,2l-10-1
		l-2-2h-16l1-2l-3-4l1-4h-3l-3-7l1-2h4l2-4l-2-2l1-3l-2-1l2-1l-1-2l-5,2l1-2l-2-1v-3l-4-3l3-2l-1-4l-8-10h-10l-3,4l1,2h-10l-7,4l1,7
		l-4,1l3,5v3l-4,1l-1,2h-10v-2l-3-1l-3,3l-1,4l-3,1v2h-3l-3-7h-3l-5,5l-10,5l-1,1l2,4l-4-1v2l-6-2l-7,1v-9l3-2l-3-11l-2-2l-1,2l-7-1
		l-3,4l2,3l-5,1l-5,7l2,7l-2,2l1,3l-7-1l-5,5l3,1l-1,3l3,4l-5,5h-2l8,8v4l3,4l-3,1v8h-3l-4,3l-1-3l-8,7l-5,1h-3l-2-3l-7,1l-4,2l-2,5
		l-3,2l-8-4l-1-2l-4,2h-1v2l-3,2l-1,5l-7,10l-1,8l-5,1l-9-3l-2,1l-3,9h-6l-2,3l-1-4l3-3l-1-3l-8,3l-2,5l-6,6l-4-5h-3l-1,3l-8-6l3,7
		l-7,3h-2l-2-3l-1,1l3,3l-2,2l1,1l-2-1l-6,6l-2,6l-2,2h-3l-4,4l1,3h-3l-7,8l-3,7l1,1l-2,1l5,5v3l-3,4h-2l-1-4l-2-1l-2,15l-5,1l-3-2
		l-3,2l-6-1l-3,2l-4-2l-1-5h-4l-6-4l-1,1l-7-3l-3-6l-5-3l-6,2l-17-8l4-3l2-4l1-9l9-10v-5l-3-1l-3-5v-7h-6l-3,4l-7,1v4h-4l-3,8l-3,2
		l1,2l-3,3l-2,6l1,2l-2,10l2,3l-3,3l-1,4l3,4l-3,9l-5,3l-12,2l-6,4l-20,3v2l-8,2l-10-8l-7-8l-8-3l-1-5v-4l5-3v-5l-3-5l14-10l5-9l6-5
		l-1-7l-4-6l1-5l-7-2l-17,6l-10,9l-14-3l-4-3l-18,6l-2,1l7,8l-9,10l-3-2l-3,2l-1-3l-7-2v-2l-5-5l1-3l-8,3v-2l-2-2l-1,2l-2-3l2-2
		l-1-12h-11v-3l-6-2v-4l-2-3l-11-4l-3-3l-12-2l2,1l12-6l2-5l7-6v-11l3-3l-6-12l-13-2l-3,4h-13v4l-2,3h-2l-2-4l-6,3v4l-3-2l-1-5l-3,1
		l2,3l-10,5v-15l-12-8l-11-14v-2l7-8l-21-49l33,6l42,4l15-4l10,1l1-2h18l30,8l6,7l2,5l13,3h8l23,12l14,3h8l14-3l-1,9l13,1l3,3l7-8
		l12-6l33-15l21-5l1-2l5-2l3,2h12l10-2h9l6,2l9-2l10,1l6-1l6-5l8-3h6l1-2l10-4l18-25l11-4l3-3h4l7-8h3l3-3l-3-9l-7-5l-8-15l5-8l6-18
		l8-6l13,2l1-1l5,7l8,4l25,4l6-5h2l1-3h5l13-13l3-5v-3l6-3l6,3h14l11-3l5-6l12-7l2-5l-2-2l1-4l10-13v-2l8-3h18v-5l2-3l-1-3l6-1l3,5
		l6-2l1-3l5-1l8-5l4,2l7-1l4,2v-2l4-3v2h4v2l3,3l5-1l1,2l11-1l1,2l4-4h4v-11h-2l-5-13l-3-3h-2v-2l-6-7l-1,1l1-3l-7-3v-6l-12-5l-7-10
		l-9-1l-1-2l-8,2l-6-1l-14,18l-16-12h-7l-7,3l-6-2l-5,3l-4,6l-13-11l-2-11l10-5l-1-13l9-15l-1-2l22-48l11,7l7,3h6l11,6l2-4l7-1l4-5
		l6-3v-2h2l3-5l16-3l8-7l2-4l-2-1l1-4l2-1l-1-2h-7v-3h2l2-3v-6l7-8v-6l3-3v-3l3-1l3-4v-6l2-1l-1-3l5-4l-1-1l2-3v-4l2-2l-1-2l3-3
		l-1-2h3l10-10l6-3l2-4l-2-1l4-7l-2-2l1-3h-2l-3-5l3-4l-1-2l2-3l-10-6l-11,3l-2-3l2-4l-2-3l9-5l5-8l12-12v-2l9-2l1,2h3l9-3l5,5v4
		l5,5l-5,9l-2,1l1,2l-5,4l-3,5l-7,4l8,4v2h2l1,2h4l4,8l5,1l8-12l1,2h4l3,5l1-1l1,5l4,2l3-1l3,2l-2,5l-3,1v3l8,27l-1,4l4,5l1,4l2-1
		l5,3h4l10-3l2-4l7,5l10-2l5,4l3-6h2l2,3l5-4l3,1l2-6l5-3v-5l9,1v2l5,5l8,14l3,1v3h2l1,2l1-1l3,8l-4,6h-2l1,1l-3,2v2h-2v2l2,1v7
		l-6,4v2h-3l1,2l-1-1l-3,6v4l-4,3l1,1l-3,1l2,3h-2l1,3l-4,2l2,2v3l-2,2l2,2v3l-2,4l-2-1l4,6l1,11l-2,2v4l-3,3l-7-2l-3,3l1,2l-3,8
		l-1-1v4l-2,1l-2,10l-2,3l1,5l-2,1l3,7l-1,5l-5,5l2-4l-2-1l1-2l-4-6l1-4l-3-5l-23,25l-8,4l-4,8l-18,11l-2,2l-1,5l-3,2l6,10l7,4l1-1
		l-2,7l4-1v7l4,4l4-1l2-6h3l1,2l1-1l1-3l-1-3L1418,605z"/>
</g>
</svg>
