<?xml version="1.0" encoding="utf-8"?>
<!-- Generator: Adobe Illustrator 27.2.0, SVG Export Plug-In . SVG Version: 6.00 Build 0)  -->
<svg version="1.1" id="图层_1" pointer-events="none"
	 xmlns="http://www.w3.org/2000/svg" xmlns:xlink="http://www.w3.org/1999/xlink" x="0px" y="0px" viewBox="0 0 1975 1204"
	 style="enable-background:new 0 0 1975 1204;" xml:space="preserve">
<style type="text/css">
	.st0{fill-rule:evenodd;clip-rule:evenodd;fill:none;stroke:#F06595;stroke-width:3;stroke-linecap:round;stroke-linejoin:round;}
</style>
<g>
	<path class="st0" d="M1065,965l2,1l3-3l4-1l-1-4h2l-2-4h13l1-2h2l4,11l6,1v-3l4,3l4-1l-1-1l2-1h3l7,3l2-1l2,5l2,1l8-2l-9-8l-1-5
		l4,1l5-3l2,1v2l5,1l2-2l5,3l4,4l2,6h2v-2l2,1v-7l11-4l2,2l3-1v-2l2-1l-5-5v-2l9-7v-7l20-5l-1-6l-5,1l2-4l-4-10l1-4h5l4-3l2,1l-3-12
		h-2v-4l2-1l1,2l4-3l-2-4l2-2h6l3,2v-4h3l-2-3l-4-1l-1-3l3-1l-5-4l-2-12l-5-7l-3,1l2,7l-2,2l-6-7l-5,1l-5-3l-2-5h-2l-7-8l-6-3v-3
		l-1,2h-2v3l-6-4l-2-11v-18l-7-4l-2-3l3-9l4-5l-2-11l3-8h13l2,2l1-9l13-3l3,5h2l15-5l2,4l2-1l1-4l4,2v2l2-1v3l7-4l3,7l5-1l6,4h8v-2
		h2l-1-2l4-5l6-2l-1-3h4l1-2h2v-2l4-1v2l2-5h6l13,6l6-3l2-3l-1-1l9,3l1-2l-2-2l2-2l2,5l3,2l-1,1l3-1v-5l3-3l-1-5l5,1v-2l5-6l4-2l7,2
		l2,3l4-8l5,2l3-9l6-2l3,3l6-1l3-2v-2h-2l2-2l-2-1l4-3l-4-7h3l2-2l2,2l1-2h2l1,2v-2l5,1l-1-1l6-5l-4-3l-3,3h-2l-1-7l5-1l-6-3v-4l6-1
		l-2-3l-5-3h-5l-4,2l-4-8l1-5l-2-3l-2-13l-3,3l-2-1v2l-8,2l-1-9l-7-6l-1-8l2-3l-6-2l-2-10l-2-1l-2-5h-6l-1-3l6-10l-2-10l3-2l7-10
		l-9-7l-2-3l2-2l-3-1v-5l-4-7l-4-1l3-8h17l1-2l-7-11l2-1l-1-2l7-6h4l2-3h5l5-6l8,1l6-3l1,2l5,1l4,6l4,1l5-6l7,3l3-4l-3-2v-5l-3-5
		l2-8l4-4l7-1l2-7l-1-2l2-1l-3-1l5-1v2l4,2l1,5l3,1l2-2h4v-8l5-1l-4-7l-8-4l-4,2l-6-2l-5,1l-1-3l-2,1l-2-2l-7-1l-8,1l-3,3l-3-1l-4,3
		h-6l-2,4l-6,4l-11-1l-4-2v-2l-6-6l-8,2l-12-9l-5-1h-4l-1,2l-4-3h-19l-2-4l-9,3l-2-1l-2,2l-6-1l-8,2l-2,2h-7l-9-5l-7-1l-1-5l-7-5
		l-2-6l-5-3v-6l-2-4l1-4l-10-1v-10l-6-3l1-5l-3-4l-5-2l-2-4l-12-4l-1-3h-2l-3,4l-2-1v-4l-2-2l1-2l-8-9l-3-2h-4l1-4h-4l-3-3h-4l-2-5
		l-4-2l3-8l-3-1v-2l-4-1v-2l-5-5v-6l-4-4l1-4l2-1l-1-9l3-3v-3l3-4l-2-6l-2-5l-4,1l-7-4l-2-3l-5-2h-3l-2,3l-3,1l-1,8l2,3l1,7l-3,6v9
		l-6,4h-3l-7-8l-3-1l-1,3h-9l-6,3l-1,3h-4l-7-3l-4,2l-4-3l-3,2l-3,13l3,2l3,7l-1,1h2l3,6v11h-4l-2-2l-8,1l-2-2h-4l-2,2l-3-3h-3v-3
		l-5-5l-1-6l-4-5l-2,1l-2,3h-3l-4,3l-2,4v8l12,12v2l3,2l2,4l3,1l1,3l3,2l2,9l6,5l5,1l6,11l2-1l3,12l-4,4l-4-2l-2,2l-8-2l-1-4l-2-1
		l-15,5l-13-2l-7,2l-2,3l2,4l-2,2l-6-6l-5,1l-7-13l-3-1l-5,4l-2,10l1,1l-3,3l-1,4l-6,3v3l-5,4l-2,5l-2,1l-6,24l-10-3l-4,7l-5,3v3
		l4,5l-7,2l-2-2l-8,5l-2,5h-3l-12,6v-5l-9,11h-3v2l-5,1l-6-13l-21-6l-8,11h-7l-5,2l-3-1l-7,3l-2,13l-8,1l-2-2l-12,11l-2-1l-1,2l1,3
		l-7,13l3,4v-2h9l2,3h3l-4,10l1,5l2-1l-2,3l1,3l-2-1v4l7,6h2v3l15,19v2l4,3l3-1l2,2l-1,6l22,3v4l2,3l-1,4l2,1l-2,2l2,3l1-1l2,2v2
		l3,1l-2,3l3,4l3,9l2,1l2,8l-9,2l-2-1l-7,4l-2,6h-5l-5,9l1,5l-3,3l-3,7h-3l-2-2l-3,3l2,1l-3,6l3,9h-7l1,2l-5-3l-8-2l-5-7v-4l-5,1
		l-4,7l-3-1l-2,5l2,4l-2,4l-5,4h-4l-6-3l-3,1l4,2l-5,1l-1-3l-13,2l-1-1l-4,2v4l-3,1l-14-2l-3,11l-2,1l-3-3l-5,2l-3,3l-1,5l-3,2h-6
		l-6,5l-3,6l-5,3l-4,5l-8,3l-1,4l-4,5v2l3,2v4l-5,1l-3,4l-2,6l2,3l-1,7l7-1l7,6h3l3,2l5,8l4,1l6,6l1,2l-5,7l6,4v3l-2,1v4l-4,7l2,3
		l4,1l1,3l2-1l12,9v4h-2l-3,4l-15,3l-2,3l-6-6l-3-1l-9,8l-5-2l-4,1l-1,4l-2,1l4,1l-1,3l2,5l10,6l6-1l3,2v18l3,2v3l-4,4l1,2l-2,2l2,2
		l-3,3l-2,6l11-1l1,4l4,2l1,9l-4,3l1,11l1-3l6-5l-1-2l5-3l10,10l-1,3l6,1l2-4h2l1-2l2,1l4-2l6,3v-3h3l1,2h5l3-5v-3l2,4l5,2l1,5l2,2
		l2,9h-2l-1,2l9,2l2,8h2v-2l4,1l5,15h5l1,3v-4l6,3h13l3,2l-4-12l4-2v-3h5l2-4l3-2l2,3l2-1v2l6-1l4-6l-2-3h7l2-2l-1-1l2-4l-3-1l-1-3
		l2-5l7,4l3,7l4,2v4h2l1,2l4-2v-3h2l1-11l5,1l2,8l4-1l2-5l5,1l-1,5l6,2l21-2l1-2l2,4l3,1l1-2h2v2h6l4-2l1-4l9-2v-2l7,1l4,5h5l2,5h3
		v2h2l2,3v20l3,2l1,5l7,2l1,2l1-1l8,2l6,7v3l5,5l6,2l4-1l2,2h15l9,4l6-3v-2h2l-2-11l-2-1v-2h-3l-3,3v-5l-6,2l3-6v-5l-4-1v-2l-2-1v-6
		l7,1l1,7h7l-2-8h9v-2l5-2l-2-9l13,2v-5l4-2l3-4v-2h-2l1-9l3-1l4,3V965z"/>
</g>
</svg>
