<?xml version="1.0" encoding="utf-8"?>
<!-- Generator: Adobe Illustrator 26.5.0, SVG Export Plug-In . SVG Version: 6.00 Build 0)  -->
<svg version="1.1" id="图层_1" pointer-events="none"
	 xmlns="http://www.w3.org/2000/svg" xmlns:xlink="http://www.w3.org/1999/xlink" x="0px" y="0px" viewBox="0 0 1975 1204"
	 style="enable-background:new 0 0 1975 1204;" xml:space="preserve">
<style type="text/css">
	
		.st0{fill-rule:evenodd;clip-rule:evenodd;fill:#EEEEEE;fill-opacity:0.5;stroke:#000000;stroke-width:2;stroke-linecap:round;stroke-linejoin:round;}
</style>
<g>
	<path class="st0" d="M1159,702l14,6l9,10l13,23l4,35l-2,6l3,10l6,11l8,2l7-1l13,8l3-3l-1-17l8-10l-1-17l2-36l12-44l6-11l3-13l9-4
		l16-11l8-9l5-13l15-21l6-13l3-15l7-4l4-6l-3-12l5-15l7-10l3-19l4-13l1-11l18-76l6-17l-3-12l1-6l6-7l2-9l22-32l3-17l7-11l4-11l1-17
		l-6-11l-4-18l1-15l16-20l15-13l-6-6h-6l-6-22l-13,1l-11-5h-6l-8-6l-1-7l-8-3l-6-11l-7-3h-9l-17,8l-5,6l-8,16l-9,4l-21,3l-13,9l-6,1
		l-14,7l-3,9l-9,11l-9,18l-3,17l-13,16l-11,6l-13,11l-9,22l-17,24l-5,12l-9,14l-3,12l-11,13l-21,38l-6,17l-13,7l-13,21l-1,22l4,17
		l-2,32l-5,10l-11,43l2,5l18,9l3,21l10,35l13,32l4,5L1159,702z"/>
</g>
</svg>
