<?xml version="1.0" encoding="utf-8"?>
<!-- Generator: Adobe Illustrator 26.5.0, SVG Export Plug-In . SVG Version: 6.00 Build 0)  -->
<svg version="1.1" id="图层_1" pointer-events="none"
	 xmlns="http://www.w3.org/2000/svg" xmlns:xlink="http://www.w3.org/1999/xlink" x="0px" y="0px" viewBox="0 0 1975 1204"
	 style="enable-background:new 0 0 1975 1204;" xml:space="preserve">
<style type="text/css">
	
		.st0{fill-rule:evenodd;clip-rule:evenodd;fill:#FFFFFF;fill-opacity:0.2;stroke:#000000;stroke-width:2;stroke-linecap:round;stroke-linejoin:round;}
</style>
<g>
	<path class="st0" d="M1409,794l2-7h2l3-4l-1-5l-2-1l-1-4l-6-4l-5,2l-7-5h3v-3l11-5l1-3h4l6-4l4,1l1,2l1-2l3,1l2-3l-1-1l4-2h2l4,4
		l4-3l4,2h6l-2-4l1-5l3,2h4l3-3l1-3l-4-1l1-1l-2-5l2-6h5l-1-3l5-7l-2-10l5-4l2-15l4-2l-2-5l2-3v-5l-2,1v3l-6-1v2l-7,4l-3-1l-9-9h-2
		l-5,4l-3,5h-5l-3-7l-6-6l-7-4l-1,1v-2l-2-1l-2,1v-6l-3,2l-2-2l-2,1l-4-2l-2-3l-3,2l-4-1l-1-6l2-7l-4-3l1-1l-2-6l2-4l-2-3l1-4l-3-3
		l2-6v-5l-2-2l-3,3v3l-3,2l-1,4l-2,2l-3-1l-4,2l-1,5l-4,2v3l-3,2l-4-3l-1,1l-1-2l1-12h-2v-4l-2-3l-6-1l-1,2l-5,1l-4,5h-2v8h-3l-2,3
		l-21-1l-3,1l1,1l-11,9l-3-2l-2,2l-4-3l-4,4v5l2,4l-2,3l2,7v5l-2,3h-6l-12,6l-6-4l-6,2l-4-6l-1-6l-5-11l-4-2l1-2h3l-5-8l4-5l-3-5
		l-3-1l-1,2h-4l-1-5l2-1l-6-7l-2-10l-9-13l-1-7l2-1l-2-3l2-6l-3-4l3-1l1-4l-3-4l1-3l-3-5l-4-2l-1-3h-3l-6,7l-6,3l-4,11h-4l-4-3l-3,3
		l4,7l-2,4l3,4l-1,6h-2l-1,2l4,4l-4,4l-3-1l-1,2l-9,3l-4,1l-6-3l-1,2l-5-3l-2-9l1-4l-1-1l-3,5l-7-5l-1-2l3-7l-8-9l-3-6h-2l2-4l-3-4
		l-1-8h7l3-4l-2-3l-6-4l-7-2l-1-2h-11l-1,3l-5-1l2-3h-5l-4,5l-4-1v3l-3,3l-3-4l2-2v-13l-4-6l-2-8l4-10l5-2l1-5l-5-5l1-1l-7-9v-8h-16
		l-3-5l-7-2l-4-5l-6-3l-2,2l-3-2l-1,2l-1-1l-4,3l-2-2l-8,7l-4,1v-2l-4,6l-6-1l-2,2l-3-2l-4,1v-2l-2-1h-7v-4h-7l-2-3l-6-2l-1-4l-3-2
		l1-1h-4l-2-6l-3-2l2-5l-2-8l2-1l-2-1l2-1l-3-5l-2,1l-2-2l-13,7l-3-3l-4,1l1,2l-3,7l-3,2h-2l-2-3l-2,3l-2-2h-5l-3,2l-3-2l-8,4l2-4
		l-4-2l-1-8h-5l-4-2l-1-4l-4,5l1,5l-2,3l-3-2l-3,2l-3-4l-4,3l-5-1l-1,2l-7-2v3l-3,2l-4-1l-3-5l-6,3l-5-8v-6l-5,1l-3-2l1-4l-5-2v-5
		l-3,3l-4-1v-5l-2-1l1-2l-3-3v-2l-4-4l-3,1l-2-3l6-5l-3-3l1-2l2,1v-4l-1-3l-8-5v-6l5-2l-3-2v-2h3l1-4l-3-2l1-3l-2-1l2-3l-2-4l2-1
		l-3-1v-3l-2-1v-2l2-1l-3-5l2-3l-1-1h-2l-2,4l-2-1l1-4l-5-1l-5,4l-6,2h-9l-3,3h-5l-4-3l-4,3l-5-2l-1,3h-3l-3-4l-2,1l-7-3l-9,8v5h-2
		l1,6h-4l-2,3l-8,2l-15,2l3,23l-2,5h-3l-2,3l4,8l-4,5l1,2l-2,2l-6,1l-3-9l-3-1l-5-6l-3,5l-1-1l-1-9l-5-8h-6l-1,8h-3l-1,4h-2v2l-3,2
		l-2-4h-2l-3-4l-7-2l-7-11l-3-1v-2l-1,1l-6-2v-2h-6l-2-3l-7,4l5,6v10l-3,2l-2,4l1,1l-3,4l-5,4l-3-1l-1,2l7,7l9,2v-3l3-2h5l6,4l3,9
		l-3,7l2,2l1,6l14,8l2,5l-3,4v10l8,3l1,4l-1,5l-4,3h-4l-3,5l1,10l-2,6l-3,2l2,7l-1,5h-3l5,12v4l6,2l-2,2h-2l-1-2l-1,3h5l-1,4l-3,2
		l-1,3l1,8l2,1v4l6,2l2,4v6h6l1,9l-3,20l5,3l15-1l2-2l15-4l9-12l8-2l15-13l8-2l2,1l-1,6l2,4l-1,3h-2l1,5l7,2l7,12l2,7l8,5l-5,9l-1,5
		l1,3l3,1l3,5h-2l1,3l3,3l2,7l1-1l1,2v6l3,4l-1,7l3,3l2,7v3h-3v5l-7-2l-1,1l1,3h3l-1,3l-9-2l-5,2l3,4l-2,3l5,1l5,9l2-1v-2l4-1l4,6
		l1-2l6,6l9-1v-5l4-3v-4l4-3l7,5l-2,5l5,4l-1,3l5,1l8,9l6-2l1,6l9-1l2,2h4l1,9l13,11l-9,10l3,3l5-1l2,3v2l-5,4l-1-1l-1,2l1,2l6,1
		l2,7l1-5l4-2l2,1v-2l6-5l3-6h2l2-10l5-2l4-4v-2h7l2-2l1,7l-5,6l2,2l1,5v7l-2,3l2,13h2l2-4l6,2l1,9l-2,1l2,3l-2,3l4,1v4l2,2l5-1l1,2
		l-3,9l2,3l-2,2l2-1l10,12v4l-3,3l1,5h8l3,3l-2,7l3,1l-2,5l1,1l1-3l1,7l3-1v-4h3l2,3l5-1l2,3l-4,5h-3l1,4l-4,4l-1,4h-2l-5,5l5,2l1,2
		h-4l-1,2v11l2,6l2,1l-2,10l1,1l7-2l4,3l1,12l4,5l-1,2l2,4l2,1l-1,5l5,5v2h2l3,3l-1,3l2,7l2-2l2,4h5l1,2l-2,6l4,1l-2,5h-2l-2,3l2,2
		l-1,4l-4,4l-1,6l-1-1l-3,5l-4,1v5l2-2h7l2,4h2l4-3l3,1l1,3l5-5l2,1l2-2l1,4h3l1-3h5l-4-1l2-3l4,1l-1-1l4-5l-1-3h4l-1-3l3-4l-2-1
		l1-2l6-2l2-3h2v-2l6-3l-1-2l2-1v-3l5-4v-4l7-8l5-3l2,1l-1,2h-2l5-1l-4-6l5-10l-1-3l4-7l-2-4l1-2h2l1-6l2-1l1,2h2l4-3l2-3l-3-1v-4
		l4,1l4,4v2l2-1v-5l1-1l1,3h2l2-6l6-4l2,1l-2,3l1,1l3-1v2h3l-1,2l5,1v4h2v2l-2-1l-2,3l5,4l1-1l1,1l-2,1l3,1l1,3l5,1h-3l-1,3h-2v2
		l-2-1l2,2h4l1,2l3-1l4,4l1-2l2,1l-1,2h-2l1,1l8,2l3-2l3,3h3l2-3l4,2l2-1l2,5h5l2,3h2l-1-1l2-1h10l1,2l1-2l2,2l3-1l1,2l1-6l3,3l2-4
		l4,3v2l3-4l-1,3h2l-1,1h2l1,3h5v3h2l6-6l2,1l1-4l2-1v-5l7-10v-4h-2l1-3h-3l-2-4l1-1l-4-1l-3-4h-2l-2-5l1-1l-4-4v-19l-4-2l-3-4l3-1
		l2-2h34l3,3h7l4-4l8,2l3-4l3,2h8l5,3l4-3l1-8l4,1v-2l1,1l3-5h2v-3l1,3l4-2v-2l2,1l1-3l5-3l-2-1l1-2l-3-1l4-3l1-2h-2l3-3l-4-1h5l1-2
		l-3-3l1-3h7l-1-5h2l1,2l1-6l3,4l1-3l5,1l9,10v-2l2-1l-1-1l4-2l1-4h-2v-2l2-1l3,3v2h5l4-6l-1-13l4-4l-2-1v-3l1-2l1,2l1-1v-4l-3-5
		l5-9l-1-2l1-5l2-1l1-7h2l-1-6l5-1l-2-1v-2l4-2h2v3l2,2l2-1l2,2l8-3l3,2l-2,2l1,3h-3l3,4l3-2l4,2l4-1l2,2l-3,9v10l2,4h2l9,12h6l-3,4
		l2,3l3-1l-1-5l2-3h3l1,9l3,4V794z"/>
</g>
</svg>
