<?xml version="1.0" encoding="utf-8"?>
<!-- Generator: Adobe Illustrator 26.5.0, SVG Export Plug-In . SVG Version: 6.00 Build 0)  -->
<svg version="1.1" id="图层_1" pointer-events="none"
	 xmlns="http://www.w3.org/2000/svg" xmlns:xlink="http://www.w3.org/1999/xlink" x="0px" y="0px" viewBox="0 0 1975 1204"
	 style="enable-background:new 0 0 1975 1204;" xml:space="preserve">
<style type="text/css">
	
		.st0{fill-rule:evenodd;clip-rule:evenodd;fill:#FFFFFF;fill-opacity:0.2;stroke:#000000;stroke-width:2;stroke-linecap:round;stroke-linejoin:round;}
</style>
<g>
	<path class="st0" d="M937,1083l-1,4h2l6-6l3,2l6-1l8,3l6-8l6-4l2-4l8-2l4-5l14-5v-2l8,3l-3,9l7,4l4-1v-3l6-6h4l4-6l5,3l4-1l2-3
		l-1-11l4-1l2-7l-3-3l1-7l-2-2l-2-9l1-1l-3-7l-6-7l-1-4l1-5l-2-3l3-11l-2-16l2-6l4-6l3,4l6-4l5,1l3-3l7-14h6l2-3l-2-2l3-4l16-15l2-4
		l-1-7l6-6h-5l-2-7l-3,1l-2-2l2-8l9-7l1-4l6-3l6,3v3h2l2-4h2l9-7l1-2l-2-3v-6l-4-9l-3-3l2-1v-3l4-2l-1-4l2-5l2,2v3l3-1l3,1v2l11-2
		l3,2l3-3h9l1-3l7,5l5-4l5,3l-1,3l-4,1l-1,3l-10,3l2,6v5l-2,1l5,9l-1,1l2,1l4-4l2,1l2,7h4l1,2l-1,3l-4,1v3h4v6l-4,3l-2,4h-7l7,6v3
		l11,7v2l3-1l4,5l15-6l1,1l11-2l1-3l3-1l-1-1l2-3h2l-1-1l3-3l1-4l7-4l1,2l9,2l1,7l6-2l2,2l1,7l-4,3l1,8h6l-4,3l2,2v6l2,1l4-5l11-2
		l5,2l1,3l5,1l2,5h2l2-2l3,1l2-1v-2l6-2l5,2l2-3l5-2l1,2l12-3v-2h6l6,3l13-7l-2-2l2-3l-1-3h-2v-4l2-2l-3-5l-4-1l2-4l-4-7l-10-5l-8,4
		l1,2h-6v-2l-3-1l-4,2l-3-4l2-8l-1-2h-3l-5-8v3h-4v3l-5-1l-4-4v-11l-3-1l1-7l6-3v-5l5-3l1,2l3-2l9,2l2-2l-2-1v-5l4-1l3-8l4,2l2,5h5
		l2,6l4-1l4,7l6,4h3l3,6h5l-1-5l-3-3l1-3l-4-7l2-1l-2-1l-1-6l-2-1v-4l-2-1l1-6l-5-6l-3-2l-2,2h-4l-3-2l-2,2l-1-5l-4-2h-2l-6,5v2
		l-2-1v-2h-8l-6-17v-3l2-1h-2l-1-4h-2l1-5l-2-5l2-3l-4,4h-2l-1-2l-2,2v-2h-12l-1-5l-4,1l-1-4l2-1l1-4l-2-2h-5l3-2l-1-2h-3v2l-3-1
		l1-1l-4-8v-4h2l1-4l1,2l1-3l3-1l1-5h8v-4l5,2l1-3h2l1-2v-8h2l1-2h9l3-5l-4-4l3-3l-1-2l3-5l-6-2l-1-3l-3-1v-2l-4-1l-3-3l3-2h-6l1-3
		h9l1-4l-3-1v-5l4,1v2l5-1l1-2h-2v-5l3,1l-1-2l2-1l1-6h2v-3l3-1l2,5l3-2l2,1v2l2-1l2,2h8l4,4l1-1v2l8,2l1,8h2l-1,2h3l2,2h3l2-5l3,1
		l1-2h7l-2-3h3l-1-1l2-1h9l1-2l5,2l3,5l-3,2l2,5l4,3v3l2,1v5l3,4l5,1l4-1l1-2l2,2l5,1l3-2v-3l2-2l4,5l2,1v-3l2,2l2-2v-4l2,1v-3
		l14-15l2-8l5-6l2-7l5-7l1,1l2-2l-2-1l8-10l-5-5l-3-6l2-4l2,1l3-4l-1-3l2-2l1,2l5-1l5,3l8-8l4,3v5l8,3l13-12l-5-2v-7h4l2-4l5-3l-3-1
		v-3l-2-2l8-10l-2-3l-3,1l-2-2l12-6l3-4l-3-4l6-4l1-4v-2h-3v-3l14-2l-1-3h4l2-7l4-3l2,1l6-5l1,1l-3-3l1-4h-2l3-3l-4-3h-3l1-3l-7-2
		v-2l-5-1l-5-6v-4l-2-2l4-3l4,3l2-2l-4-3l4-3l-2-2l9-1l1-2l-8-9l3-2l7,1l3-2v-5h-3l-1-2l-5,2h-6l-1,2h-2l-6-5l-6,6l-2-2l-2,2l-7-1
		l-4,2l1,4l-3,3l-4-2l-2-3l-9-3l-7-13l-3,2l-4-8l-3-2l-6,1l-4,3l-4-5l-3,1l-3-9l1-3l-5-1l-2,3l-4,2l-5,9l-3-1l-3-5l-6-2l-4-7l2-6
		l-4-12l-4-1l-10,2v-2h-6l-2,2h-3l-1-4h-4l-8,6l-12,2l-1,2l-5-1l-2,4l-3-1l-4-5l-6,1l-2-3h-8v-2l-2,1v-2h-3l-5-5v-2l3-1v-3l-7-4
		l-2,4l-2-3l-4,3l-3-2l-6,2l-1,6l-4,2l-1-2l-3,2l-1-1l-4,4h-3l-4,3l-1-4h-3v-7l-2,1l-1-7l-3-2v-6l-3-1h-3l-2,5l-2,1l4,10l3,2l-1,4
		l-7,2l-7,6l-3,1l-4-2v3l-7,4l-3,1l-2-5l-5-1l-13,5l-6-7l-2,3h-5l-4-4l-6,1l-5-6l-5-1l-1-2h-5l-8-6v-2l-7-1l-1-11l2-2h7v-4l4-2v-2
		l-8-1l3-5l-1-2l2-1l-3-5l-4-16l3-1l6,2l-1-2l3-2l-5-2l-7,2l-2-7l-5-1l1-3l-4-5l-2-8l2-3l-1-4l-11-8l-8,2l-9-1l-8,2l-8-4h-4l2-2
		l-1-1l-1,2l-1-2l-6,3l-1,3l-3-1l2-7l-3-7h-4l-3,6l-8,1l-6-3v-4h-11l-1-1l3-9l-1-3l-5-2l4-6l-1-4l-3-1l1-3l4,1l1-2l-6-4l1-5l-7-4
		l-4,1l-3-2v-4l-3-6l-3-2h-3l-2,5l-6,1l-1,3h-4l-3,4l-5,2v2l-2-1l-2,3l5,3l-1,4l-3-2l-9,1l-4,2l-3-2l-4,13h-8l1-3l-3,2h-4v2l-4-2h-3
		l-2,2l10,11l1,4l-2,3l6,2l2,3l-3,1l-1,2l2,2l2-3l1,1l-2,6l3,7l8,3l4,4l-3,1l1,9l-6,5l-2-1v2l-2-2l-3,2l-1-2h-4v2l-7,7l2,1v11l-3-1
		l-3-5l-3-1l-2,9h-8l-6,2l-6,9l-4-2l2-8l-7-8l4-2l1,1l3-4h2l1-8l5-6l-2-1l1-3h-2v-7l-2-4l-4-3l-1,6l-5-1l-1,2l1,10l-7,2l-3,5l-2,7
		l3,3l3-1l3,4l-2,1l-1,5l-3,1l1,2l-3,2l-2,7l-11-10l-2-4h-8l-2,2l1,6l-9-12h-10l-5,5l-1,4l1-1v3l3,2l-1,2l2,3l-3,2l1,3l3,1v7l-5-1v9
		l4,1l6,8l-1,11l-6,7h-3l-2,2l1-4l-4-1l-13,9l-6-4l-6-2l-2,2l-1-3l-1,2l-6-3l3,6h-5v10h-2l-4-3h-3l-4-4l-3-8l-2-3h-2l-1-3l-2-1l-2,4
		l1-7l-6,4l-7-2l-2,2l-3,13l-2-3h-5l-4-4l5-6l-3-15h-2v-3l-5-1l1-3l-8-2l-1-5l-4-6h-2l1,2l-3,9l-6-1l-2,3l2,7l-5,13l1,1h-2l-2-3
		l-5-1l-1-2l-3,1l-6-8l-8-1l-1-2l-6-2h-3l-1,2h-5l-2-8h-2l1-3l-2-1l-3-6h-5l-3-4h-7l-14-7l-6-8l1-5l-5-1l2-3v-7l-4-5l1-7l-9-8l1-5
		l-4-4l4-2l-6-6l-1-3l-9-5l1-2l-3-6l-2,1l-3-3l2-4l-1-5l2-3l-1-5l-3-4l1-3l-6-1l-12,2l-10-5h-6l-8-8l-12-1l-3,5l-10,4l3,10l-1,2h-3
		v7l-2,4l-3-2l-7,3l-2-1l-4,3h-6v4l-2,1l5,10l-1,3l2,5l-3,6l1,2l3,2l7,1l-1,6l3,3v3h3l2,2h6l1,2l6,2v2l-4,4h-2v2h-5l-4,13l-9,8l6,12
		l-5,2l3,3l-15,5v6l2,1l1,6l-1,5l4,5v3l5,4v2h3l3,3l5,1l2,4l7,4l9,2v2l13,2l13,9h3l9,6v12l4,2l4,10l12,12v9l-3,1l2,6l-1,3h2l2,5h2
		l4,6l-1,1l3,1l1,6l6,7l7,5l6,7h2l9,11l-7,7v3l-3,3l-3-1l-5-8h-4l-3,3l-1,8l2,1v2l-2,2l7,3l3,4v4l9,9l-3,11l7,7h2l2,4l5,2l1,4l-5,4
		l1,9l2,2l-1,7l4,13l-1,7l2,1v5l-2,2l2,4v7l3,2l-1,2l3,4l-1,6l3,9l-5,12l1,3l-3,14l6,10l-1,5l2,4v19h2l3,6l-1,8l2,22l-2,14l2,12l4,9
		l-1,2l2,1l-1,4l2,5l-1,6l-2,2l4,4l-1,2l3,1l1,4l5,3l-1,3l2,3l4,2l1,3l4,3l-2-6l3-9l-2-2l1-5l3-4l-3-4l2-1l-3-5v-3l3-3l3,1l1-4l6-4
		v-6l7-6l-1-3l2-5l5,1l4-4l1,13l2,2h4l4,5l-1,2h4v2l4,1l4,4v3l2,1v5l7,3l1,3l-2,5l7,2l4,3v3l-2,1l3,3l-2,2l1,2l-6,2l-1,2l-3-2l-1,2
		l-2-1l-1,4l6,12l3,1l7,9l-2,3l3,3l9,2v3l-2,2l2,2l-1,6h5v-2h2l4-9l3-3l8,4l1,2l5-5l3-6l2,1l2-2l2,6l2,1l-1,6l6,6v5l6,2l-1,2l2,1
		l-2,3l2-1v3l5,8l-1,7l2-2l3,3l4,9l2,1l-1,3l2,2l3,10h10l-3,9l2,1l-2,8l8,4v2l3,1l1,5l9,2v2l3,2l-3,4l1,2l-2,1l3,3v2h6l-1-5l2-1l4,2
		l-2,2l1,1l-4,3v2l2,1l-2,7h-5v5l2,3l1-1v3l6,1l12,11l2,8l-5,1l-1,4l4,4l5-2l1,2h3l4,6l3,1l-1,4l2,3H937z M1404,670L1404,670z
		 M1275,660L1275,660z"/>
</g>
</svg>
