<?xml version="1.0" encoding="utf-8"?>
<!-- Generator: Adobe Illustrator 26.5.0, SVG Export Plug-In . SVG Version: 6.00 Build 0)  -->
<svg version="1.1" id="图层_1" pointer-events="none"
	 xmlns="http://www.w3.org/2000/svg" xmlns:xlink="http://www.w3.org/1999/xlink" x="0px" y="0px" viewBox="0 0 1975 1204"
	 style="enable-background:new 0 0 1975 1204;" xml:space="preserve">
<style type="text/css">
	
		.st0{fill-rule:evenodd;clip-rule:evenodd;fill:#FFFFFF;fill-opacity:0.2;stroke:#000000;stroke-width:2;stroke-linecap:round;stroke-linejoin:round;}
</style>
<g>
	<path class="st0" d="M1191,669l-1,5l5,4l6-1l1,2l6-4l-2-3l2-2v3l4,1l-4,5l-1,4h-2l-1,3l2,4l5-3l2,2l8-1l2,2l-1,2l5,4l2-2h8l7,2l5-1
		l2,1l2,7l6,2l1,3h4l4,3l2-4l2,1v6l2,1l1,5l10,3v11l-10,2l-1,5l-21,6l-4,16l-34,24l-5,7l-7,15v20l3,10l3,25l15,4l1,3l-3,8l-6,2
		l-6,15v8l-4,8l-9-1l-16-6l-10,10l-34,6l-4,3v19l3,5l6,3l21,3l3,2l1,28l-4,10l-29,11l-3,6l-1,7l-30,6l-3-1l-4,3l2,3l-5,2l-2-1v-5
		l-3,1l-1-2l-12-1l1,2l-2,2l-2-1l-14,4l-6,5l-2-1l-4,2l3,2l-4,5l-10,4v-8l-5,1l1,5l-3,2v2l-1-2h-8l-6,5l-3-8h-3v4l-10,3l-1-3l-3,3
		l-5-10l8-3l-9,2v-2l3-5l4-1l-1-2l2-1v-2l-1-3l-10-4l3-4l-5,1l2-3v-3l-2-1l-4,2l-1,5h-3l1,2l-2,2l-12,3l-6-1v4l-5,4h-4l-2,5h-4v2
		l-4-1l-2-4h2v-2h-4v-3l-6-1l-2-13h-2l1-1l-4-2l2-1l2-14l2-3l-5-1v-2l-3,1v-3l-2,2l2-8l-1-1l-10,3v5l-8-1v-2l-17,3v2l-7-1v4h-4l2-4
		l-7,3h-9l-2-10l1-5l-3-2v-13h-2l-1,2l-17-1l-6-2l-2,1v3h-2l-4-2l-3,1l-2-6h-5l2-12h-3v-2h-2l1-6l2,1v-2h-2l1-3l-2-1l3-4v-4l2-3h-3
		l1-9l-8-1l-1-21h-5v-16l1-3h2l1-2l4-15l8-9v-5l2-4l-1-3l2-1v-5l-3-1l2-8l6,2v-2l2,1l1-4l2-1h4l-1,2h-4v2l5-2l2,2h5l2,2l14-2l4-2
		l-1-7l3-1l2-3l1,1l4-7h2l3-9l3,1l2-5h-2v-2h2l-2-7l-4-6l-5-2l-9,1l-2-10v-12l-1-2h-2v-5l6-1l1-6l3,4l3-3l-2-2v-4h-4v-20l-1-4h-2
		l-2-3h2v-2l6-1l-1-4l2-1l1-11l-6-1l-1-3l2-4l-2-1l-8,9v-2l-7,2l-2-9l4-1v-3l-3,1l-3-4l7-1v-2l2-1l-2-5l1-1l-2-2v-2l2-1l-1-3l6-1
		l4-8l2,1l2-3l-5-1l-2-3l-9,3l-2-1v-3l-4-3h-2l-1,3l-2-2l-2,1l-1-3l2,1v-3l-3-4h-2l2-3l11-5l-1-6l-2-2l2-1l-1-4l4-1l-1-10h-2l1,2h-5
		l-4-8l-3-1l4-9l4-4l-4-9l4-1l-3-3l3-2l-1,2l3,2l-1-8l3-1l2,2l3-1v-2l2-1l-5-5v-2l9-7v-7l20-5v-5l3-1l-1-2l2-2v-4h6l1,2l1-2h5v4
		l-1-2l-2,4v4l3,4h-2v3l4,2v8l2,3l3-2l1,5l11-3l4-5l23,8l8,4l1,2h3v2l6,2l-1-3l4,2l7-4l-2-1l3-4h5v-2l2-1l-3-2v-2h-2v-3l-2-1l3-6
		l2-17l-1-2l-2,1v-2l2-1l-1-2h-5v-7l5-1l-2-4l4-2h5v-2h3v-2h3l1-2l-9-9l-1-6l-4-2l-3,2l-1-10l1-2l2,2l1-3l9-1v-4l6-1v2l5,1l6-2l7,2
		l-2-2l1-4l2-1l-5-8h-2l-1,3l-3-1l-1,2l-2-2l-11-2l-4-2l-1-3l-1,2h-2l-1-1l3-2l-2-2v2l-2,1v-2h-4l2-6l-3-6l3-2v-2l-5-1l-3-4l5-2
		l-1-4l4-2l-4-5l1,1l5-3v-5h3l1,2l2-4l-1-5l4-1l4-6l-2-14l-2-2v-11l-2-2v-5h13l2-2l-5-7l2-1l-2-6l5,1v-2l5-6l4-2l7,2l2,3l4-8l5,2
		l3-9l6-2l3,3l9-3v-2h-2l2-2l-2-1l4-3l-4-7h5v-2l2,2l1-2h2l1,2v-2l5,1l-1-1l6-5l-4-3l-3,3h-2l-1-6l1-2h4l-6-3v-4l6-1l-2-3l3-4l3,3
		l4-4v-5l5,1l3-3h4l12,5l2,4l6,3l15-3l2,3l5-1l3,5l-3,6l3,3l1,10l5,5l4-1l3,5l4,1v3l1,2h3l2,7l5,2l1,8l2,1l-3,2l-2,4l2,3l7-5l2,4v5
		l2-2l3,2l1-6h6l5,7l8,1l3-2l3,4h-2l1,4h4v2l3,1l-1,4l-6,3l-3-1l-2,13l5,4l1-5l3,1l1-2h4l1,4l1-1l4,3l-2,2l1,5l-5,14l-3-2l-2,1l-2-2
		l-2,4l-6-4h-5l-1-3h-2l-3-3l-8,1l-5,4l-13,1l-3,2l-7-3l2-2l-5-4l-1-3l-11-1l-1,2h-2v-2l-5-1l-1,2l-3-2v4l4,6l-3,3l-3,9l-6,2l-1,7
		l5,2l-2,4l-2-1l-4,2l3,1l1,4l-3-1l-1,2l2,6l3-1l1,11l5,9l4,4v-2l1,1v3l-2,1l1,2l-3-1l1,7l3-1l4,6l1,5h2l-5,2v5l-3,4l3,3l-1,4l-2-1
		l-2,2l3,2l3-3l1,3h5l1,2l7,3l-1,1l2,3l-2,1l-1-2l-1,4l-1-1v2l-2,1l2,2l-1,1h3l1,4l4,3l9,1l3,3l2-2l2,1l1,2l-2,3l2,1v2h3l-2,2l3,1
		l-1,3l2,2l2-1l-2,4l2,3l-3,8l-3-2v5h-3l-2,4l1,4l-3-1l-1,4h-4l1,7l5-6l1,5l4-1l2,3l-2,4l2,3l6-4l1-3l3-1l4,5l5,3l-1,4l-6-2l-1,2
		l1,3l7,2v8l3,4l3-3h3l5-6l-4-6v-3l1-3l6-1l-2-6l7-5l8,1l1-2h3l9,5l5,1h4l1-2l6-2l22,9l1,2l-8,17l-2,1l3,9l-5,3l-1,10l-2,1l2,1l1,4
		l-5,5l-3-1l-1,6h-2l1,21l-9,1v3h4l1,8l2,3l-3,3l-2-4l-5,2h-7L1191,669z"/>
</g>
</svg>
