<?xml version="1.0" encoding="utf-8"?>
<!-- Generator: Adobe Illustrator 26.5.0, SVG Export Plug-In . SVG Version: 6.00 Build 0)  -->
<svg version="1.1" id="图层_1" pointer-events="none"
	 xmlns="http://www.w3.org/2000/svg" xmlns:xlink="http://www.w3.org/1999/xlink" x="0px" y="0px" viewBox="0 0 1975 1204"
	 style="enable-background:new 0 0 1975 1204;" xml:space="preserve">
<style type="text/css">
	
		.st0{fill-rule:evenodd;clip-rule:evenodd;fill:#FFFFFF;fill-opacity:0.2;stroke:#000000;stroke-width:2;stroke-linecap:round;stroke-linejoin:round;}
</style>
<g>
	<path class="st0" d="M1048,947c-2.7-0.1-10,4-10,4l-1-1l-5,4l-4-1l-1,2l1,4l12-3l1-3l1,2l2-4h2l1,2c0,0,0.8-0.1,1,0
		c0.5,0.1,1.6,0.6,2,1c2.3,2.6,5,13,5,13l1,1v-2l7-8v-2l3,4h6v8l11,13l-1,2l5,2v2l3-2l-1-4h7l1-3l5-2l3-7l2-1l-2-3l1-6l-2-10h-2
		l-1-4l-3-2l2-3l-1-3l2-4l2,1l-3-9l1-2l-2-1l-2-6l8-8h4l1,2v-3l8,3v-3l2,2l1-1l4,5h2l2-4l1,3l6,4l2-1v-5h4l3,3l3-6l5,1v-6l4,3v-3
		l1,1l1-3l-2-3l3,1l1-2h-2v-3l-2,1l-3-4l1-5h-4l1-4l6-1l1-3l1,1l3-2l-1-2l-5,1l-1-3h2l1,2l5-8l-3-1v-3l2-1l-1-5h2l-1-2h2v-2l-3-3v-3
		l-1,2v-4l-1,2l-2-1l1-3l-2-3l-1,1l-3-3l-1-3h-2l-1-3l-4,2l-2-3l-1,2h-2l-6-3l-4-6l-5,2l-1-4l-1,3l-3-2v-2l-2,3l-2-3h-3l1,3l-3,3
		l-7-5l-2-3l1-2l4,5v-3l-2-2l2-10h3l-4-4l-1,1v-4l1,1v-3l3-5l-4-4l-1,2l-1-3l-8-3l-2-5h-4l-1-4l4,3v-3h2l1,2h4v-3h3l-3-6v-1l6-1v-9
		l5-1l-2-4l2-2l3-2l2,1v-2h2l6,4v-10l3-4l-2-7l-2-1l2-2l-2-3l-2,2l-1-7l-7-3l1-2l-2-3v-2l5,6h-2l2,2l2-5h6v-8h3l-8-18l2-2l3,3l2-1
		l1,2l3-3l1,2h4v2l3,1l1,3l3-12l5,2l9,7l3-1v-3l-3-2l2-2l10,7h2l-1-2l5,1v-4l4,2l2-1l2,3l11-5l7,7l2-1l5,2l-2-5l5,4l4-9l-3-7l-6-5
		l3-2l2,1v-2l-5-7l-2-7l4-17v-7l8-6l3-10h-4l-4-4h5l6-8l3,1v-2l-4-1v-3l2-1l3,2l5-2l2-2l2-10l10-2l2-1l-2-1l1-1l5,4l5-12v-2l-13-6
		l-9-8l-5,2l-4-1l-1-2l4-7l-6-3l-8-12l-13-5l-5-6l-7-1l-2,4l-5,1l-2-2l-2,3l-19-3l-16-5l-10-7l-10-3l-9-5l-5-6l-4-1l-1-2l16-12l6-13
		l2-22l6-19l6-5l8-14l18-19l1-18l-11-5l-4-5l-3-13l-4-3l-1-5l2-5v-7l-2-3l1-2l-1-3l-4-1l-1-2l-5,1l-5,4l-9-4l-13,18l-13-4l-15,4v20
		l-4,3l-8-2l-3-4l-3,2l-7,13l-2,8l2,2l-4,8l-5,2l-7,8l1,3l4,2l-5,7l-7,7h-2v16l-6,10l3,9h-2l1,9l-3,2l1,2l-2,4l2,5l-3,6l1,3l-2,4
		l6,11l-3,10l-5,3l-4,5l-1,11l2,6l8,13l-6,13l2,7l-6,14l-9,4l-8-1l-4,13l-17,1l-8-3l-23,5l-5,4l-10,4l-11,8l-21,3l-8,4l-23,3l-24,1
		l-4,8l-9,4l-2-1l-4,3l1,2h9l5-4l4-1l2,4h6l3-2l3,2l5-1l12,3l-2,7l1,2l6,1v2l-8,7h-4l-3,8l3,5l2,2h6l12-8l2,3h4l4,3v5l4,4l4,10l5,3
		l1,7h5l1,3l4,1l1-2l10,4h4l1,5l3,4l-1,8l1,1l2-2l3,2l2-2l4,4v3l3,1l-1,2l6,8l-2,7l-6-2v2h-5l-3,2l-2,4l1,4l3,2l-1,5l7,9v3l-3,1l4,5
		h3l2-2l5,6v9h3l2,2v7l3,1l-3,1l3,4v3l4,1l3,5l-3,9l8,14l-4,8l-3-2l-3,2l-1-1l-9,9l1,2h-3v5h-2v16l3,4l6,3l-1,2h-3l1,5l1-1l-1,3l1,1
		l3-4h3v5l3,3v4l1-1l3,4l3,1l7-1v6l2-2l-1-3l3,1l1-2l9-4l4,3h6l1,2l-2,3h-2l-1-4l-4,7l2-1l2,2v4l1,2h2v2l2-2l1,1l-1,2l4,4l-1,1l2,3
		l3-1l1,6l1-1v8h2l2-8l2,1l3-2l13,5l1-1l1,5l6-2v2l1-3h2l1,2c0,0-2.9,2-4,2C1049.4,948,1048.6,947,1048,947z"/>
</g>
</svg>
