<?xml version="1.0" encoding="utf-8"?>
<!-- Generator: Adobe Illustrator 26.5.0, SVG Export Plug-In . SVG Version: 6.00 Build 0)  -->
<svg version="1.1" id="图层_1" pointer-events="none"
	 xmlns="http://www.w3.org/2000/svg" xmlns:xlink="http://www.w3.org/1999/xlink" x="0px" y="0px" viewBox="0 0 1975 1204"
	 style="enable-background:new 0 0 1975 1204;" xml:space="preserve">
<style type="text/css">
	
		.st0{fill-rule:evenodd;clip-rule:evenodd;fill:#FFFFFF;fill-opacity:0.2;stroke:#000000;stroke-width:2;stroke-linecap:round;stroke-linejoin:round;}
</style>
<g>
	<path class="st0" d="M811,589l-4-8l-1,1l-4-2l1-2l-5-1l1-4l-11,2l-3,2l-1-6l-4,2l-1-3l-4,3v-2l-4-2l2-1l-2-2v-3l1-1l1,2l1-4l-2,1
		l-1-4l-2,2v-17l1-2l3,1l-3-4v-4l2-1l-1-2l-5-1l-2-5l-14-2v-4l-3-1l-9,1v-3l-3-3l-4-1v-2l2-1l-1-3l3,1l3-2l-2-1l-1-8h-2v-7l3-1l1-3
		l3,1l5,5v2l6,3h15l5-6l2,2l5-4l5,1l1-11l4-1v-7l2-1l-1-6h2l2-6h-2l-2-4l1-1l-4-1l2-4l-2-4l5-8l-1-3l3-3l4,2l3-8l10-1l2,2l2-2l4,1
		l1-3l9-1l-5-11v-12l-5-6l3-2l4,2v-7l1-3l2-1l-1-4h-9l-2-3l3-3l-1-3l2-7l2-1v-5h2l-1-2l6-1l1-5l2,1l9-3l4,2l1-2l9,7l1,4h3v-4h2l4,4
		h4l4,3l2,3l-3,8l1,2l9,6l1,6l-3-1l2,1l2,7l3-1v2l5,3l3,7h2l3-3l4,1v-2l4,1l7-7l2,1l2-2l6-1l2-3h4v-6l3-3l8-1v-2h4v-3l2-1l7,3l2-1
		l1-12l-6-5v-3l-9-15l1-5l3-3l-3-7l6-8l-2-2l-8-2l-5,4h-2l-1-3l-4,3l-7-1l2-3l-1-3l-9-4l-1-3h-2l-1-2l-7-2l1-2l-8-10l6-7l-2-5l1-6h2
		l4,4l5-9l4,1l8-6l7-2v4l6,2l2,7l5,5l2-1l7,7h-3v2l19,2l6,3l7,10h5l6-3l7,3l-1,3l3,2v3l-2,2v7l7,4v2h4l-3,12l12,6l1,4h4l-1,3l13,3
		l3-3l4,2l1-2l5-1l8,10l13-6l3,4v4l4,4l5-2v-5h2l6,7v8l4,7h7l-2,20l-3,3l2,1v2l2,1l10-4l8,3l3-3l3,2l3-6l1,2l7,2l5-3l6-1l5,3h5l-4,4
		l2,1v8l-8,7v22l-7-3l-4,8l-1,6l2,2v3l-5,4l-3-1l1,3h2l-1,6l-2,3l-4,2v4l1,2l4-1l2,3v5l6,4v2h4l10-5l2-2l-1-2l2-3l5,3l2,6l-2,8l1,3
		h-2h3v2l-2,2h3l3,12l2,2l5,1l-10,5l2,12l5-1v2h2l-1,9l5,4l2-2l2,1l1,7l5,1l5-5l1,3l3,1h12l8-4l11,4l5-4l-3-4v-12l9-1v-8h4v-5l6-3
		l1,3l5,1l1-2l9-2l3,5l-2,1v2h4l1,5l6,8h11v5l3,8v15l2,5l-1,5h-3l-1-4l-1,1l-1,4l-2,1l1,3l-3,7l1,1h-2l-6,6l-3-2v-3l-3-5l-8,2l-5-7
		l-7-1l2-1l-1-2l2-2h-3l-5,3h-3v-5l-3,3h-2l-3-3l-3,2l-2-1v-2h-3v3l-1-2v2l-5-1l-3,3l-4-3l-4,1v4l5,4l1,3l-3,3v3l5,2l8-1v8l-2,4l2,2
		l1-1l-1,5l2,4l-6,3l1,11l-3,4l-8,2l-4-1l-2,2l-3-1l-2,3l1,6l-1-1v2l-8,7l-3-1l-3,5v4l2,2l-2,1v3l-2,2l1,2l-2,5l3,3l11,5v4l4,2l-3,9
		h3l2,3l2-1v3l-2,1l5,2l2-3h6l1-2h2l1,5h3l3,3l-6,5l-1-1v5l5,2l4-1l1,2l3-6l4-2l3,2l-2,2l2,5h8v5h2l-1,2l2,2l-2,5h2v4l-4,17l-1-1
		l-2,3l-8,2v-4l-2,1l-4,9v4l-2-1l3,3l4,1l4,7l10-2l17,2l2-2l7,2l4-1l7-9l5,1l1,4h7l1,2l4-2h5l2-6l3,5l-2,9l1,2l5,1h-2v3h3l1-2l8,5
		v-2l7,1l5,7h3l2-3l4,4l-2,2v11l-6,6v5l-4,7l3,10l-3,1l-4,7l-5,1v10l-6,9h-3l-3-6l-5,3l-5,6l-9,2l3,4v2l-3,1v5l4,3l7-3l1,13l2,1v4
		l3,4l4,1l-7,4l-3-3l-4,1l-4,4l-2-1l-3,8l-3-2v2l-10-2l-5-3l-3,3l-5-1l-5-4v-2l-4-1l-10,6l3,15h3l1,2l-11,7l6,1l-1,5h-2l1,8l3,1
		l-1,17h-6v6l-9,9l-3-1v2l2,1l-4,2l1,11l-13,14l-3-2l-6,3l-5,7l-5,2v8l-2,2h-13l-3,5l-6-3l-1,2l2,9h-5l-4-2l-4,2l-2,4l-8-4v-5l-2-3
		l3-2l-1-2l-5-4l-6-2l-1-4l-7-1l-1,2l-3-1l-3,3h-8l-9-4l-4,3l-3-1l-2,2h-4l-2-1l-1-5l-4-4l-8,5l-5-2l-1,1l-2-6l1-4h-5l-6-6l1-8l-5-5
		v-10l-4,1l-1,4l-3,1l-3-6l-5,4l-5-1v-11l-5-3l-9,2l-2,3v5l-7,4l2,3l5,2l1,3l-4,4l2,3l-1,3l-8,4l-9,1l-1,3l-4,1l-9,6l-3,5l-4,2l-5-1
		l1-3l-2-1h-2l-5,5v-4l-9-7l4-5v-2h-3v-2h2l2-6h2l8-10l2,2l4-3l9-12l2-8l-1-3l-3-2l-3,2l-1-1v2l-1-7l-3,2l-5-8l-13-4l-9,2l-3,7
		l-2,16l-10,1l-28,17l-4-5l-3-1l-9,1l-1-12l-7-10l2-9v-15l-2-1l-2-5l1-6l-9-7l-2-6l-10-2l2-4l-4-6l4-6l4-1l-4-1v-2l-3-1v-5l3-5l-2-1
		v-2l-2-1l-1-4l-4-5l-4,1l-1-7l-6-6v-3l4-8l3,1l7-3v-2h-2l1-5l-2-2l2-4l3-3l6-2v-2l5-2l5-5l8-1l-2-8h-6l-1-3l-3-2h-4l-1-4l-7-6l-1-5
		h-3l-3,3l-2-1l-5,3l-2-1l-4-9l-4-4l-6-1l-9,10l-6-7l-1-9l-3-3l-4,1l-2-3v-5l-2-4l-3-1l-2,2l-4-2l2-6l-2-2l2-7l-2-3v-4l5-4l3-9l7-5
		l-2-4l1-3l6-6l3,1l6-6l8-4l2-3l7,3l1-3l4-1l6,4l4-4l1,2h4l4-6l-3-3v-7l3-5l-1-7l2-4v-10l2-2l-2-6l2-9l-4-10l1-7l-3-15l1-3l-3-6v-4
		h-2l3-5l-5-3l8-9h2l-4-1l-7,8v3h-2l-6,6l1-3l-2-3l-2,4l-7-3v4l-3,1l1,2l-2,6l-2,1v-4l-3,4l-3-3l-6,3l1-1l-8-8V589z"/>
</g>
</svg>
