<?xml version="1.0" encoding="utf-8"?>
<!-- Generator: Adobe Illustrator 26.5.0, SVG Export Plug-In . SVG Version: 6.00 Build 0)  -->
<svg version="1.1" id="图层_1" pointer-events="none"
	 xmlns="http://www.w3.org/2000/svg" xmlns:xlink="http://www.w3.org/1999/xlink" x="0px" y="0px" viewBox="0 0 1975 1204"
	 style="enable-background:new 0 0 1975 1204;" xml:space="preserve">
<style type="text/css">
	
		.st0{fill-rule:evenodd;clip-rule:evenodd;fill:#FFFFFF;fill-opacity:0.2;stroke:#000000;stroke-width:2;stroke-linecap:round;stroke-linejoin:round;}
</style>
<g>
	<path class="st0" d="M1131,536l-18,1l-3,2l-4-5v-9l-2-2l-3,1l-3-3h-4v5l-2-1l2-7v-2h-2l3-3l-1-1l-9,8l-1-1l2-7h4l-2-1l-3,1l-1,4h-5
		v3l-3-1l-2-9l-5-2l-3-5l-1-3l4-2l-1-2l-3,1l-5-19v-5l4-11l2-4l5-4l16-2l11,1l4-2l6-23l-3-11l-3-2l-3,1l-4,6l-6,4l-4-2l-3-15l-14-12
		l-4-16l-8-8l-13-3l-23,3l-3,2l-1,8l-6,4l-2-1l-4-9l-6-2l-3,4l-4-3h-9l-11-4h-4l-5-6l-9-4l-8-1l-4,2l-16-14l1-2l-12,12l-2,7l1,3
		l-4,1l1,3l-6,5v3l-3,3h-16l-3,3l-6,18l-9,15l-4,2l-8-4l-10,4l-25-1l-6,2l-14-2l-10,2l-6-2l-6,8l1,4l-2,3l-2-2v4l-6,2l-3,9h-3v4
		l-10,9l-6,9l-8,6l-2,5l-8-9v-6h-3l-1-3h-2l2,1l-4,2l-1-1l-2,6l1,2l-2-1l3,3l-2,1l1,3l-2,1v2l-4-4l-1,2h-2l1,3l2,1l-2,5l5-1l-1,1
		l3,3l-6,7l-7-1l-2-3l-8,3h-6l-1,2l-3-1l-7,4l2,2h-2l2,1l-3,8l1,4l-2,3h-5l-2,6l1,1l-4,5l1,4l-2,7l-8,9v3h-2l-2,3l1,3l1-1l-4,8v3h-3
		l-4,4l-3,7v4l-13,6l-6-1v2l-8,2l-3,9l-5,4l-4,7l-2,2l-1-1l-2,3l1,3h-2l-1,7l-3,3h-2l1,3l-1,2h-2v2l3,1l-1,3l1-1l3,2v3l-3,3l6,3l1,6
		l3,4l-2,3l1,1l6-3l1,1v5l3,3l2-1l3,11v13l-2,8l-2,1l1,1l-2,2v7l-10,6l-2,5l2,2v5l-1,4l-3,1l2,1l-2,10l4,2l5-4l7-10l4-2v-4l2-1l1,4
		l12-6l5,1l7-7l10-2v-3l2-2l3-1l4,2l6-4l3,1l13-6l5-7l5-1v3l-3,5l1,3l-4,7v4l-18,2v4l-5,2v2h2l-2,8v-2l-1,2l-6,2l-6-1l-2,3h-3v3
		l-1-1l-1,3l-1-1v3h-2v5l-14,4h-7l-6,3l-9,14v3l-3,5l-1-1v2h-3v2h-2l2,2v8l-7,2l-9,9h-13l-2,4v-1h-2l-1-2l-2,6h-5l-3,9l-7,7l2,1
		l-6,3v8l-9,3l-3,4l6,7v2l-3,3l-4,1v5h3l-3,5l4,1l1-3h2l-1,3l4,2l2,3l3-3h8l3,3l5-5h7l4,6l6,2l1-1l1,2l-2,5l6,1l-1,9l2,1l2-2h6l10,4
		l4,4l3,10l-2,1v2l3,13l7,9l5,2l9-1l8,3l2-2v-5l2,2h6l8,5l4-2l15-2l2-1v-3l2-2l4,4l9-2l5,9l7-4h2l4,4l5-9l4,1l8-6l-2-2l4-8l-4-2l1-4
		l4-2l1-10v-5l6-8l3,1l11-2l7-2l1-3l4,2l5-1l11,3l2-5l-2-2l1-3l2,1l-1,7h2l-1-6h2v6h5l8,5v4h7l-5,1l-1,3h5l2,5h-4v3l4,5h5l6,7l1,3
		l-2,6l2,3l3-1l7,14l-2,5l4,14h4l4-3l2,1v-5h3l-1-3l2-1l-1-4l4-2l-4-2l5-2l-1,2l3-1l3-3l6,1l1,5l3,1v2l5,6l3,1v2l10-1l1,2h3l2-5l2,1
		l4-2l3-5v-3l12,3l2,2v-21l15,1v-4l4,1l2-2l5,1l2,4l2-2l10,2l-1,2l3,2l-5,8l6,2l2-1l6,3l-3,6l-4,3l6,5v12l1-2v2h4v-4h8l1-3l12,1l3-3
		l5-11l-2-13l2-6l4,1l-2-6l1-2l7-3l1-3l4,1l5-2l1,3l4,2l2-2l4,3l3-2h4l6-5l-3-3l-3,1l-3-4l2-1l1-4h5l1-5l-2-2l4-1l1-5l7-11v-12l6-4
		l5,1l7-2h14l4-7l8-2l2,1l3-3l6,1l2,6l6-1l1,2h3l-1-1l5-5l2,1v-3l-5-3l1-2h2v-2h-2l3-14l10-10h2l3,4v-4l2-1h-2l1-3l4-2l2-3l-2-1v-3
		l2-5l3-2l6-22l7-5h4l1,5l2,2l1-2l1,2l2-1l-1-6l4-4l1,4l1-1l4,3l3-4l4-1l-2-6l5-6v-2l-4-2l1-3l1-1l5,2l-1,2l3,1l-1,3h4l5-11l-2-7
		l4-7l2-2l5-1l1-3h2 M1215,732h2l6-6l1,1l-3,1l-3,7h4l4-8l4-4l6-1v-7h-2l-5,5l-1-1l3-4l-1-2l-6,5h-2l5-5l-1-3l2-2l-8-1l-4-5l-4-1
		l-2-4h3l2-2v-5l5-5l3-1l2,3l5-1v2l3,1l4-3l-3-4l4-2l5,6l1,3l-5,7l-6,14l4-2l4,2l6-2l-1,1h5l7-6h9v-3l2,1l1-2l4,2l2-3h10l3-2l-3-4
		l1-1l-3-12l1-6l-4,1v-8l11-1v-2l-6-8l5-7l2,1l2-2l-1-3l9-1l2,1l-1,4l3,2v7h5l-1-2l6-5h-2l-2-4h5l3-5l-2-2v-3l4-5l-2-3l-6-2l-1,1
		l-3-2l-1-4l-4-1l4-3l6,2l-1,3l4,3l10,1l6-6l11-7h4l4-3l2,1l8-6l7-2l2,3h3l2-3l-1-2h-2l1-2l8-2l9-11l5-1l-1,2l-10,6l3,1l2,4h4l-2,2
		l4,1l1-3l-2-3h6l-1,3l7,4l-3-12l17-7l1-6l25-10l3-3h4l3,13l4-6h3l2-4l4-1l-3,8l5,2l3-2l1,5l-2,4l6-1l4,2l2-1l8,2l1-2l1,2l5-3v-3
		l3,1l8-3l-5-5l1-1h6v4h4l4-4v-7l2-2l-2-3l1-5l4-3l-1-2l-10,3l-5-1l3-4l-1-4l2-9l12-1l1-2l-2-2l6-3l1-2l-3-2l-2-7h-3v-3l2-1l-1-2
		l5-7l-3,1v-2l7-6h4l1,2l4-4l-1-3l-3-2h-2l1,2l-3-2l-13,4l-7-2l-1-3l-9,3h-14l-3-1l-1-6l-6-2v2l-2-1l-1,2h-2l-1,4l-3-2l-2-7l1-1
		l-3-1v-3h2l3-3l-4-3l1-1l-3-1v2h-5l-2-3l-1,1l2,4l-3-1l-2,3l-3-1v4h-2v2l-10,4l-23,1l-10-1l-2-3h-2l-8,5v3l-8-3l-7-6v-4l-6-4l-3-8
		h7l-7-5l-5-2l2,6l-1,1l-7,2h-11l-9-6l2-4l-2-6l2-3l-3-4l-13,1l-5-7h-3l-4-4l-1-6h-5l-1-2l-7,2l-12-2l-11,7h-5l-5,5l-8,2l-9-1l-10,9
		l-20,2l2,4l6,2l-1,4l-7,1l-1,5l5,5l-1,2l-12,10l-7,3l-3,3l-15,4l-3,6l-11,1v6l6,6l-1,4l2,1v2l-5,1l4,1l-3,3l-4,1l-12,15l-2-2h-5v-2
		l-14,5h-9l-2-1"/>
</g>
</svg>
