<svg xmlns="http://www.w3.org/2000/svg" pointer-events="none" class="leaflet-zoom-animated" width="1975" height="1204" viewBox="-252 78 1975 1204" style="transform: translate3d(-252px, 78px, 0px);"><g><path class="leaflet-interactive" stroke="black" stroke-opacity="1" stroke-width="2" stroke-linecap="round" stroke-linejoin="round" fill="#fff" fill-opacity="0.2" fill-rule="evenodd" d="M620 955L623 967L619 977L614 983L608 1001L602 1009L601 1022L597 1033L597 1037L591 1044L588 1051L590 1061L590 1068L588 1071L592 1078L594 1080L605 1083L612 1080L616 1084L623 1081L632 1081L636 1076L640 1076L642 1080L648 1077L650 1074L651 1067L653 1067L655 1070L669 1064L673 1058L678 1059L679 1061L682 1057L685 1059L689 1056L694 1058L698 1055L701 1057L707 1054L710 1055L717 1044L721 1043L719 1039L726 1037L732 1033L732 1030L739 1030L740 1028L743 1028L751 1030L753 1032L755 1031L756 1022L753 1016L757 1013L755 1006L769 1009L769 1011L777 1009L776 1013L783 1013L785 1011L788 1011L801 1014L806 1013L806 1009L807 1008L808 1010L809 1008L809 1010L814 1013L814 1017L815 1014L819 1015L824 1009L834 1009L835 1006L840 1004L840 997L852 1000L856 994L858 987L868 990L867 985L872 985L878 980L887 980L887 974L891 968L890 964L893 967L897 967L896 961L894 960L894 949L896 948L894 947L894 945L901 944L899 940L900 935L898 928L900 926L904 926L902 924L904 923L901 921L903 919L902 913L900 911L904 912L905 909L903 909L900 906L904 905L903 904L905 903L902 900L905 899L905 892L908 889L905 878L902 878L898 874L894 874L891 870L891 866L894 862L890 858L889 854L885 854L884 851L887 846L883 846L884 843L889 843L890 841L902 836L902 829L905 825L908 829L913 824L910 817L913 813L911 810L912 805L910 805L910 796L916 793L921 785L924 775L928 772L929 766L933 764L934 758L943 743L942 741L944 735L943 732L938 730L931 732L932 728L935 726L936 723L932 719L930 719L928 708L923 699L920 699L920 691L918 690L916 685L914 685L916 678L907 678L906 677L908 676L905 673L902 674L900 671L892 670L890 666L891 658L888 653L889 649L894 644L890 640L892 633L895 629L896 623L904 622L905 617L907 615L911 615L914 609L917 609L918 601L911 595L911 583L914 582L922 573L925 574L928 569L930 570L932 569L932 567L936 565L937 570L940 571L941 575L948 575L952 573L963 572L967 560L972 561L975 556L969 553L971 551L970 548L971 544L974 543L974 533L977 530L977 525L980 524L983 514L982 513L978 515L977 510L971 509L969 505L969 490L967 485L969 483L968 479L952 480L950 478L952 476L952 473L947 475L936 473L933 464L925 462L924 463L924 460L927 460L930 455L930 450L933 451L936 457L940 454L941 450L938 442L940 440L945 442L948 440L953 440L953 437L955 435L958 436L962 434L969 434L978 427L980 422L974 422L972 419L968 421L960 419L958 413L959 410L956 407L959 399L957 393L955 390L953 391L944 375L938 377L937 379L938 384L935 391L939 395L939 398L937 400L933 402L929 401L922 408L919 409L913 402L910 407L903 410L891 422L869 425L863 414L844 419L831 424L826 439L818 443L816 443L806 435L791 428L788 428L781 433L778 433L776 437L777 438L771 443L770 448L766 453L766 456L762 460L762 463L757 473L753 477L753 481L747 487L747 498L743 503L743 509L738 510L735 508L730 512L724 510L723 508L717 505L715 507L704 503L698 506L701 508L700 510L699 508L698 509L698 520L692 526L691 531L674 532L669 537L673 538L673 541L674 542L675 540L675 543L678 546L681 546L673 563L674 565L671 574L667 578L658 581L657 584L660 595L658 597L659 600L657 606L654 607L655 610L649 621L648 625L649 629L651 630L650 637L647 638L647 645L644 647L643 645L638 646L636 655L631 657L628 661L620 663L619 672L615 673L614 676L615 683L613 686L613 693L615 703L621 706L629 722L636 726L636 728L631 730L632 732L640 736L640 738L637 739L640 748L635 761L626 762L626 771L631 772L631 775L629 776L630 780L628 780L616 799L609 807L606 808L608 812L602 810L606 816L605 824L602 826L606 829L606 835L603 839L607 840L605 843L606 844L607 842L609 843L607 845L607 848L604 847L603 849L613 860L613 870L611 875L612 881L609 889L611 891L611 898L609 900L608 911L613 925L612 926L614 928L614 939L618 940L620 951z"/></g></svg>