<?xml version="1.0" encoding="utf-8"?>
<!-- Generator: Adobe Illustrator 26.5.0, SVG Export Plug-In . SVG Version: 6.00 Build 0)  -->
<svg version="1.1" id="图层_1" pointer-events="none"
	 xmlns="http://www.w3.org/2000/svg" xmlns:xlink="http://www.w3.org/1999/xlink" x="0px" y="0px" viewBox="0 0 1975 1204"
	 style="enable-background:new 0 0 1975 1204;" xml:space="preserve">
<style type="text/css">
	
		.st0{fill-rule:evenodd;clip-rule:evenodd;fill:#FFFFFF;fill-opacity:0.2;stroke:#000000;stroke-width:2;stroke-linecap:round;stroke-linejoin:round;}
</style>
<g>
	<path class="st0" d="M661,884h17l4-3l7-11l7-7h18l16-10l6-2l26-4l2,1l-2,4h-4l2,5l3-1l12-11l9-3l3,3l8-3l1,2h2l6-4l6,3l3-3l1-7l7-4
		h7l5,4l-3,3l1,1l4-2l2,2l10-7l1,1l10-4v-3l-7-1l-3-3l1-5l10-7l13-4l5-1l3,3v6h2l4,3v2l3,1l5-2h6l7-3l4-11l16,8l10-1l20-23h5l8,11h6
		l6-4l8-12v-8l-3-7l6-7l2-1l1,11l6,5l2,6l7,8l7,5l7-5l2-8l9-3l5-4l2-4l5-1l4-3h4l-1-10l-2-1l-1-5l1-3l7-3l1-4l-2-5l4-3l-2-1v-2l3-1
		l6-12l-6-1l-2,4l-3,2l-2-2l8-9l4-1l3-4l5-1l2-2l-3-16l-5-11l2-1l4-1l2,2l5,14l3,5l4,3v4h2l2,3l-1,6l4,5l7-5l4-5h6l4,2l1-2l4-1v-2
		l8-1v-2h9l1,2l8-3l4-4l9-2l5,3l4,7v6l3,7h5l3-4l8-2l2-5l-2-4h-3l-4-3l6-12h-12l6-4l5-1v-4l11-6l2-3l7,3l-2,4l-1,9l2,12l17-1l1,7
		l5-2v-8l3-5l12-9l-2-2l4-3v-4l3-2l10-1l4,4v-7h9l-3,3v3l12-1l2,2l1,8l6,4l10-2l13,7l1-3l-2-4l5-5v-3l-2,2l-2-2h-4l5-7v-3l6-5h7l1,3
		l8,1l5,5v8l5,1l7-7h3l4-3l1,1l12-6h4l3,4l7-4l10-10l10-5l10,4l9-2l7,1l3-5v-3l6-4l-3-6l1-11l4-2l9-1l8-8l10,2l3-4l-5-5l-1-7l12-14
		v-4l3-5v-6l3-2l3,3l9,2l2-5l2-1l7,1l12-4v-9l-6-4l-2,1l-10-7v-5l-4-9l1-3l-2-5l-7-1l3-3l-1-2h-2l-1-3l4-3v-8l-4-1v-7h-2l-1-5l1-5
		l8-8l-8-6v-9h-3l1-5l-3-4l1-3l-2-3h-2l-4-7l2-3l-1-2l-2-2l-3,1l1-1l-3-1l-2-5l-3-2l1-5l7-10l-2-3h-3l-3,3l-2-2l-15,4l-4-2l-1,3
		l-7,4l-3-1l1-5l-4-10l-4,1l-2-3l-3-1l1-4l-6-6v-2l5-2l-3-3v-3h-2v2l-3,1l-1,4l-6,4l-6,1l-2-1l2-3h-3l-5-7l-5,4l-7-1l-1,2l-1-2l-4-1
		l-4-7l-2,2l-3-3l-9-1l-2-2l-2,1l1,4l3,3l-5,2l-3-5l-4-1l-2,5l1,2h-2v3h-2l-2,6l2,3l-3,4l2,5l5,2l-1,3l-5,1l10,12v3l-7-1l-5,4l-8-1
		v-5l-2-3l-8-3l-4,2l-3-10l-4-3l1-1l-3-1l-5-7l-7-4l-3,3h-2l-2,6l-7-4l-3,1l-3,4l-1-1l-8,3l1,3l-3-1l-6,2l-1,3l-8-6l-4,5l-6-1l-3,3
		l-5-2l-2,9l-4,6l-2-3l1-2l-2-1l-3,2l-2-2l-1,1l-2-2h-4l-3,1l1,6l-4,5l-3-1l-2-7l-4,2l-2-1l-4,6l-6-1l-1-2l-14,10l-1-2h-2v-3l-2-2
		l1-4h-2l-2-3l-7,1l-4-8l-11-3l-2,1v-2l2,1l-3-4l3-2h10l3-5l5-2l1-9l8-10l-2-5h2l-1-5l8-4v-3h6l2-3h2l3-8l5,1l1-2l5,2l5-5l7-2v-5
		l-7-3v-2l2-1l-1-2l8-4l-1-5l-3-1l-1-5h-4l-3-2l-3,1l-3-5h-2v-4l-7-4l-5,2l1,2l-4,2l-3-2l-5,7l-5,3l-8-3l-2,3l1,1l-2,1l1,2l-2-2
		l-8,1l-3-1l-1-2l-3,2l-1-2l-2,2l-2-1l-4,2l-2,3l-3-1l-3,4l-3-4l3-4h2l-3-3l3-3l-2-1l1-1l-3-1l3-2l-1-1l-4,1l-2-2l-1-2l2-4l-5-1
		l-3,2h-6l-2,8l-2,2h-3l-2,5h-8l-2-5l-1,2h-6l-1,3l-2-1l-10,4l-1-5l-5-3l-2,2l-1-3h-7l-2,2l-3-2v-3l-7-1l-1-5l-3-2l-3,1l-1-7l-2-3
		l-1,3l-5-3l-9,6l-3-3v3l-4,2l1,6h-5l1,1l-2,4l-7,3l-1,2l-7-1l-5,7l-3-1l-1-4l-6,1l2,12l5,1l9-2l8,7l-8,5l-1,4l3,3v2l4,3l-5,7l1,6h2
		l1,2v5l-6,4l-8-1l-4,4l-9,1l-2-1v-6l-5-3l-1-6l-2-1l-1-10l-7-8h-20l-6-3l-2-4l-2,1v3l-2,2h-2l-4-7l-7,2l-1,3l-6-1l-2-3h-7l1,2l-3,6
		l-1,8l-2,2l1,4l-3,5h-2v4l3,4l4,1v10l-3,3l-1-1l-11,7l-3,4v3l-9,4l-3,5l2,5l-3,1l-1,2l2,4l9,9v5l-2,1l-1,4l5,3l2,7l3,4l-5,10l-5,2
		l-1,4l-1-2l-8,6l-4-1v17l8,17l-4,6l-4,2l-2-2l-2,6l-3-1v11l-2,4l-7-1l-5-4l-3,3l-4-2l-3,7l-1-1l-1,9l6,1v3h-3l-3,3l-2,6l-7-1l-8,2
		v9l-4,9l-4,5l-4-1l-2,10l1,3l-3,5l1,4l-3,3v3l3,1l-1,4l3,4l-1,5l2,2l-4,2l2,3l-1,4l4,4l4-1v5l-6,4l2,2l-1,2l-4,1l1,8l-11,14l-6,4
		l-1,4l-7,3h-15l3,6l-4,6l-12,2l-3,4l-5-1v3l-9,1l-3,2v2l-4-4h-2v9l-3,4l1,4l-8-2l1,3l3,2v10l4,1l1,4l5,6l-4,2l-4-3l-2,3h-2l-1,4
		l-5,1l-1,2l5,7l-7,4l-1-2h-3l1-3l-6-2l-4,4v2l-5,1l-9-9l-3,6h-2l-4-4l-3,6l5,4v4h-2v8l2,4l-1,5l5,3l-3,3h2l1,2l-1,3l-6,1l-6-4l-1,3
		l-4,2l-6-1l1-1h-7l-3,2l-1-3l-4,4v-2l-2,3l-4,1l-2-2l-7-1l-5,5l-2,13l2,2l-3,1l-3,11l-3-1l-7,2l-2,2l-3-2v-4h-2l-3,10l2,2l-1,1l3,6
		v4l2,2v5l15,3l-6,10h-11l-2,2l1,16l-13,15l1,7l-2,25l7,16l4,21l7,1l4,15l8,4l1,2l-1,7l-3,1l-1,3l6,5l2,8l-1,9h5l5-5l11-1l5,6h7l6-4
		l5-1l4,2l8-2l4-5h6l15-18l1-8l-6-13l-2-9l-3-5l-7,1l-1-1h5l-2-5l-3,3l-1,1l2-6l-2-12l-8-4l-8,1l-5-3h-3l-4-7v-10l4-3v-7l3,6l-3,3
		l-1,7l14-3l7-4h13l4,5l1,4l3,1l4-18v-2l-4-2h-1l-8,2l-7-5l-6,3l-6-2h-2l9-3l2-3l3,1l3-9l2,1h-1v2l4,3l5,1l2,4h2v3l1,1l4-1l8-16
		l-6,2h-8L661,884"/>
</g>
</svg>
