<?xml version="1.0" encoding="utf-8"?>
<!-- Generator: Adobe Illustrator 26.5.0, SVG Export Plug-In . SVG Version: 6.00 Build 0)  -->
<svg version="1.1" id="图层_1" pointer-events="none"
	 xmlns="http://www.w3.org/2000/svg" xmlns:xlink="http://www.w3.org/1999/xlink" x="0px" y="0px" viewBox="0 0 1975 1204"
	 style="enable-background:new 0 0 1975 1204;" xml:space="preserve">
<style type="text/css">
	
		.st0{fill-rule:evenodd;clip-rule:evenodd;fill:#FFFFFF;fill-opacity:0.2;stroke:#000000;stroke-width:2;stroke-linecap:round;stroke-linejoin:round;}
</style>
<g>
	<path class="st0" d="M702,690l6,5l-3,2l4,3l-3,1l-2-4h-2l-4,5h-3l-4,8l-4,1l-1,2l3,5l-1,2h2l2,6l-1,10l8,1l2-2l10,3l1-1l1,4l6,2
		l3,4l5,1l5,10h2v-3l4-1l9,1l2-2l-1-4l2-2l5,1l3-2l3,3h13l8,10l-1,2l3,4l9,1l2-3h6l1-2l3,1l1-2h4l5-7l5,4l4-1l3,5l5,4l2-4h2l4,2
		l-1,2l8,6l-1,1l6-1l4,3l-3,4l-7,4v4l2,1l-3,2v3h-2l-2,5l1,1l-2,2l2,2l-1,2l-8,2l-4-3v-2h-3l-3,18l-3,2v6l3,4l-3,6l5,2h8l1,7l3,1
		l-1,2l2,6l-1,2h-2l-1,3l5,4h-2v3l3,8l-2,3l1,2l-4,6l2,5l5-4v-3l2-1l4,1l4,5l6-2l8,2l1,5l4,2l5-3h3l5,4v3l-6,5v5l3,2h6l17,13l4,1
		l1-2l6-3l8,12v7l3,2l10-10l3,2v3l2,2l-2,2l7,2l3-4l5,2l8-2l2,1l16-7l4,2l3-1l3,2v3l2,3l4,1l3,7l10-2l3,3l10,3l8-3l-6-5l4-1l3-4l3-1
		l3,2v4l-5,8v2h2l12-7l10,1l12-3l10-14l5-4l4,2l3,4l3-3l2,5l-3,4l2,1l2-3v-4h2l1,4l3,2v-2l5-2h3l2,2l6-2l8,5l19,1l2,2l5,1v7l-11,4
		l-3,4l1,3l5,1l7,5h6l8-5l31-4l6,2l2-1l-1-3l3-1l6-10l3,1l4,8l5,3l11,1v-5l-5-12l1-1l-2-2l3-10h2v4l3,2l1-2l8-2l3,1l2-3l-1-3l1-2h2
		l-1-3l3-2l-1-10l6-8l3-1l6,3l4-1l1-3l1,2l3-4l2,3l6-3l9,3l4-2l1-3l6,4l7-1l-1-5l-2-1l3-2l-5-3l-1-17h2v-4l-5-4l3-6l4,4h2l3-6l11,9
		l3-1v-2l4-4l6,2l-1,3h3l1,2l6-4l-1-4l-3-3l3-3h3l1-4h2l1-3l5,3l4-2l-5-6l-1-4l-4-1v-10l-3-1l-1-4l8,2l-1-4l3-8v-5h2l3,4l4-4l9-1v-3
		l5,1l5-5l3,1l1-2h6l4-6l-3-6l3,1l4-3l8,2l7-3l1-4l4-1l4-7l5-4l4-6l-1-8l4-1l1-2l-2-2l6-4v-5l-4,1l-4-4v-7l3-2l-2-5l1-2l-3-4l1-4h-3
		v-4l4-3l-2-1v-4l3-4l-1-3l2-10l4,1v-2l7-8l1-13l8-2l7,1l2-6h2l1-3h3v-3l-6-1l1-9l1,1l2-7l5,2l1-3h2l5,4l7,1l2-4v-10h3l1-6l3,2l1-2
		h3l4-6l-8-17v-17l5,1l2-2l1,1v-2l4-3l2,1v-3l4-2l6-10l-3-4l-2-7l-5-3v-3l3-2v-5l-9-9l-2-4l4-3l-2-5l3-5l8-3l-4-3l-6-1l-1,2h-8l-1-3
		l-7,1l-4-3h-10v2l-5,2l-3,4v7h-8l-3,6l-1-1l-3,2l-6-6l-4,1l-1-2h-2l5-7l-1-2l3-7l-4-7l1-4l-2-3l3-2v-3l-5-4l1-4l4-2v-3l-6-2l2-8
		l-1-2l-2,1l-2-4h-3l-2,4l-5-1l-6-6l-9,10l-8,5l-5,1v13l-16,4l2-2v-4l-3-2l1-2l-3-4v-6l4-6l-1-1l2-6l1-2l6-2l8-6l1-3l-2-6l5-3l5-9
		l6-1l4-3l1-4h2l3-4l5-22l-4-6v-10l1-2h4l6-2l2-3h3v-12l7-1v-2h-4l-1-3l-5,2l-4-1v-3l-3,2l-1-2l-3,1l-4,3v3l-5-1l-4-5l1-2l-2-4l-4-2
		l4-8l-1-1l3-2v-3l4-1l-3-3l4-4l-2-6l2-3v-7h2l1-3l-2-4h-9l-1-6l-9,1l-17-5l1-3l-4-4l-4,2v7l-3,1l2,2l-2,7l-1-3h-2l-6,1l-2,2l-3-1
		l-7,2l-3-3l2-3l-1-4l-3,3l-7-3l-3,1l-3-3l-7,6l-2,8l-4,7l-4,3l-2-2l-12,12l-7,17l-8,2l-2-1v-8l-6-6l-4,3v3l-2,1h-2l-3-3l-2,3l-4-5
		l4-12v-5l-9,1l-2-3l-4,1l-2-3l-7,6l-5,18l-2,1l-6-2l-4,6v2l3,1l3,8l-2,6l-4,2l-2-2v-2l-10,2l-1-3h2l-2-4l2-5l2,1l2-3v-4l-2-1l-2,2
		l-3-3l-2,1l-1-5l-5,1l-3,3l-3-1l-4,4h-2l-4-5l-4,6l-6,3l3,3v2l-2,4l-3,2v3l-3,4l-3,1l-2,11l1,4h-3l-2,2h-6v-2l-6-1v-7l-4-3l-1,2
		l3,3l-5,4l-2-3l1-4l-1-2h-2l-5,3h-11v4l-1-1l-1,3l-3,1l1,1l-3-1l-6,3l1,5l6,1l4-7h3v-2l3,2l2-2l5,2l-6,13l1,8l6,4l-2,2l-1-1l-5,4
		l-7-3l-3-3l-5,2h-2l-1-2h-5l1,1h-3l-3,3l-3-4v-2l2-1l-3-4l1-3h-13v6h-3l-1,5l5,4l-3-2l-5,2v2l-3,2l3,4l-3-2l-1,7l-2,1l1,2h3l1,3v11
		l-4-4l-1-4l-3-1v-2l-5-4l-4-6l-7,1v2l-2-1l-4-8l-4-2l-2-3h-3v2l-2-1l-3,7l-5,2l-1,2l2,2l-3,1l-1-3l-3-1l-5,3l3,1l2,3l-2,2l-5,1l2,1
		l-1,4l-2,1l2,5l-2,2l1,4l-1,5h-2v3l-5,3l-9-1l-5,3h-3l-2,3l-8,2v2l-4,2l-2-2l-4,2l-4-2l4-4l-5-6v-6l-7,6v-3l-5-6v-8l-4,1l-3,8l-2-1
		v2h-4l-5,4v2l-1-2l-4,1v-13l-6,2l-3-8v-4l2-2l-7-4l-2,3l-6-2v-4l1,1l2-2v-4l-2-2l1-1l-6-6l-5-2l-2-8l-2-1l-3,3v2l-16,2l2,6l-8,4
		l-2,7l-2-1l-3,2l3,11l4,2v10l-3,2l1,2l-3,2l-6-3l-3,3l-2,7l-12,2l-4-2l-4,3l-4-2l-8,2v4l-6,4l-1,3h-5l-4,5l-7,1l-4,4l-15,4l-1,2
		l-12-1l-3,4l-5-1l-1,1l7,9v10l-3,8l-4,1l-4,6l-9,4l-3,7l-8-6l-2-7l-10-1l-1,2l-7,2l-5-2l-8-7l-10-1l-4-5l-3,2l-9-2l-9-17l-5-2
		l-11,3l-5-1v-4l-7-3v-2l-4,1l-3,4l-2-1l-14,14v10l-2,2l-15,4l-5,3v4l-3,4l-10,3l-2,5l-5-1l-1-3l-9-2l-5-7l-8-3l-4,10l-6,3l3,1v-2
		l4,3v8l2,5h2l1,2v5l3,2l1,7h5l2,3l-2,3l6,3l4,5l4-2l-3-12l2-3l4,1l1-3l4,2l17,2l2,3l6-1l8-4l9,4l-1,5h4l8,6l-3,7l-2,1l5,4l2,5l3,1
		v4l-3,3l-4-1v5l2,1v3l8,6l4-3l-2-2l6-3l3,4l7,3v3l11,4l3-2l1-9l2-3l-1-1l9-2l4,2l3,13l4-1l3-4l5,1l3-2l5,2l-2,3l1,2l6-1l2-3l4,2
		l2-1v-7l2-4l4,2l6-2l2,4l1-1l4,2v5l3,4l2-1l1,2l-2,4h2l4,5l3,8l6,4l-3,1l2,4l-7,5l3,12l-5,18l3,2l-8,6l-3,6h-3l-5,5l-1-6h-4l-3-2
		l-3,1l-3-4h-5l-5,4v4l-7,2l-2,4l-5,4H702z"/>
</g>
</svg>
