<svg xmlns="http://www.w3.org/2000/svg" pointer-events="none" class="leaflet-zoom-animated" width="1975" height="1204" viewBox="-165 -100 1975 1204" style="transform: translate3d(-165px, -100px, 0px);"><g><path class="leaflet-interactive" stroke="black" stroke-opacity="1" stroke-width="2" stroke-linecap="round" stroke-linejoin="round" fill="#fff" fill-opacity="0.2" fill-rule="evenodd" d="M992 277L990 273L991 270L988 266L986 267L980 262L973 260L970 257L972 256L974 251L963 243L964 241L969 239L966 235L966 229L958 231L956 230L956 233L953 234L943 230L936 231L931 238L932 243L934 245L931 248L932 251L926 258L926 260L920 263L917 262L914 265L902 265L899 267L893 279L892 284L895 310L898 316L898 320L892 331L884 331L873 340L867 333L859 335L857 333L839 335L824 328L823 325L819 326L816 323L812 324L802 358L795 373L793 382L791 382L789 386L790 389L787 398L788 402L796 407L798 411L797 417L794 418L788 415L782 417L782 415L776 416L772 409L765 411L759 415L754 415L743 421L737 418L738 419L736 421L730 421L726 425L725 423L722 425L719 424L711 431L713 432L714 436L720 434L721 439L724 440L727 444L725 450L727 465L731 476L731 480L739 496L736 501L739 502L740 508L740 510L733 510L726 515L734 521L722 524L719 532L723 538L721 539L723 550L720 551L719 558L709 559L707 564L700 567L697 566L683 573L676 579L672 579L671 583L668 582L664 585L655 586L654 593L644 596L643 602L641 601L633 603L631 601L614 601L613 604L609 606L609 610L606 613L607 619L605 619L603 622L602 627L596 630L594 626L591 629L585 629L583 633L580 631L576 633L575 627L577 625L574 623L573 617L561 626L552 625L548 623L547 626L550 631L543 630L544 632L542 634L541 633L533 641L522 641L519 644L520 645L516 652L516 655L519 657L520 662L518 662L517 667L508 667L508 670L505 671L507 672L506 675L512 682L512 684L515 685L516 688L511 693L514 696L513 698L516 704L518 704L519 706L524 706L523 704L526 700L541 703L547 708L549 708L549 711L546 714L547 724L549 727L551 727L551 734L553 736L551 739L551 745L554 748L556 748L558 752L557 755L551 757L550 759L547 760L547 758L545 757L542 759L537 759L537 764L539 767L544 765L545 767L548 766L550 771L554 768L567 770L566 772L568 780L571 777L576 778L581 782L584 785L583 786L587 792L585 795L587 798L586 802L583 803L586 808L589 807L591 812L590 815L597 815L603 812L605 813L604 817L608 818L610 821L617 825L620 824L632 830L640 830L644 827L647 830L654 828L653 831L650 833L650 839L652 843L655 845L654 846L656 849L657 859L659 863L664 864L664 866L666 864L668 865L668 867L673 867L678 873L681 872L683 874L684 873L682 871L684 870L689 871L696 870L699 868L708 868L710 866L709 865L712 855L714 854L715 846L722 842L722 840L726 840L723 836L724 833L726 833L728 830L731 832L735 832L736 834L741 834L745 836L747 836L748 832L753 835L758 834L762 836L763 839L768 839L780 835L780 830L789 826L789 822L791 822L792 820L796 820L802 823L804 821L809 821L811 829L816 833L818 831L831 835L843 831L846 834L848 834L854 832L857 829L857 826L865 824L877 818L884 817L887 820L892 821L893 823L896 819L906 817L913 808L913 803L919 802L920 800L930 799L931 797L935 796L936 798L939 796L944 797L946 794L949 794L953 791L955 794L958 795L963 793L969 793L971 791L987 789L988 791L990 790L997 797L997 795L1001 794L1008 798L1011 797L1028 805L1034 806L1034 803L1037 798L1041 799L1040 800L1044 802L1056 803L1061 805L1063 808L1066 807L1068 804L1071 805L1072 804L1069 795L1069 787L1060 785L1059 778L1062 773L1068 772L1072 770L1072 768L1074 767L1078 768L1078 765L1077 762L1074 760L1071 750L1068 748L1066 749L1061 742L1053 739L1053 715L1049 715L1047 718L1045 718L1040 714L1042 712L1039 708L1050 708L1057 701L1056 700L1059 701L1074 698L1082 694L1093 692L1107 687L1113 687L1114 686L1111 681L1111 677L1121 665L1126 638L1130 628L1130 621L1157 617L1159 608L1165 598L1182 581L1189 580L1192 574L1201 569L1205 577L1207 578L1208 575L1215 568L1224 566L1233 560L1232 553L1235 550L1230 545L1231 542L1228 541L1232 533L1241 528L1241 520L1226 506L1214 471L1207 470L1209 461L1211 459L1210 458L1197 460L1186 454L1184 451L1177 448L1172 442L1156 433L1156 431L1149 428L1146 429L1145 427L1130 426L1129 424L1118 426L1108 426L1104 423L1090 424L1086 423L1083 419L1080 421L1074 419L1074 417L1064 418L1065 415L1062 412L1057 401L1059 393L1063 386L1069 380L1069 375L1065 366L1068 363L1069 357L1071 355L1069 353L1070 347L1066 342L1066 337L1063 334L1061 334L1057 329L1052 319L1053 316L1047 304L1048 303L1047 301L1040 299L1038 297L1039 293L1035 292L1035 294L1028 294L1027 291L1023 288L1022 284L1016 284L1011 287L1006 287L1002 280L998 281L994 277z"/></g></svg>