<?xml version="1.0" encoding="utf-8"?>
<!-- Generator: Adobe Illustrator 26.5.0, SVG Export Plug-In . SVG Version: 6.00 Build 0)  -->
<svg version="1.1" id="图层_1" pointer-events="none"
	 xmlns="http://www.w3.org/2000/svg" xmlns:xlink="http://www.w3.org/1999/xlink" x="0px" y="0px" viewBox="0 0 1975 1204"
	 style="enable-background:new 0 0 1975 1204;" xml:space="preserve">
<style type="text/css">
	
		.st0{fill-rule:evenodd;clip-rule:evenodd;fill:#FFFFFF;fill-opacity:0.2;stroke:#000000;stroke-width:2;stroke-linecap:round;stroke-linejoin:round;}
</style>
<g>
	<path class="st0" d="M801,403l-1,1l-3,1l1-2l-5,2l4,1l-2,3h-2l1,4l-2,1l1,3h-3v5l-2-1l-8,3l-4-14l2-5l-6-14l-3,1l-3-3v-3l2-2l-7-11
		h-5l-4-5v-3h3l-1-5h-5l1-3l5-1h-7v-4l-8-5h-5v-6h-2l1,6h-2l1-7l-2-1l1,6l-2,4l-13-4h-6l-2,3l-7,2h-8l-3,2l-3-1l-6,8l-1,15l-4,1
		l-1,5l4,1l-2,7l-2,2l1,2l8-2v4l6,2l4,9l3,3l2-1l7,7h-4l1,2l19,2l6,3l7,10h5l6-3l7,3l-1,3l3,2l-2,5v7l7,6h4l-3,12l12,6l1,4h4l-1,3
		l13,3l3-3l4,2l1-2l5-1l8,10l13-6l3,4v4l4,4l5-2v-5h2l6,7v8l4,7h7l-2,20l-3,3l2,1v2l2,1l5-3h7l6,2l3-3l3,2l4-6v3l7,1l5-3l6-1l5,3h5
		l-4,4l2,1v8l-8,7v22l-7-3l-4,8l-1,6l2,2v3l-5,4l-3-1l3,3l-1,5l-1,3l-5,3v4l1,2l4-1l2,3v5h2l4,4v2h4l10-5l2-2l-1-2l2-3l7,5l-2,12
		l1,3h-2h3v2l-2,2h3l1,2l1,10l8,3l-10,5l2,12l5-1v2h2l-1,9l4,1l1,3l2-2l2,1l1,7l5,1l5-5l1,3l3,1h12l8-4l11,4l4-3l-2-5v-12l9-1v-8h4
		v-5l6-3l1,3l5,1l1-2l9-2l3,5l-2,1v2h4l1,5l6,8h11v5l3,8v15l2,5l-1,5h-3l-1-4l-1,1l-1,4l-2,1l1,3l-3,7l1,1h-2l-6,6l-3-2v-3l-2-1
		l-1-4l-8,2l-5-7l-7-1l2-1l-1-2l2-2h-3l-5,3h-3v-5l-3,3h-2l-3-3l-3,2l-2-1v-2h-3v3l-4-1l-5,3l-1-2l-3-1l-4,1v4l5,4l1,3l-3,3v2l5,3
		l8-1v8l-2,4l2,2l1-1l-1,5l2,4l-6,3l1,11l-3,4l-8,2l-4-1l-2,2l-3-1l-2,3l1,6l-1-1v2l-8,7h-4l-2,4v4l2,2l-2,1l-3,12l3,3l11,5v4l4,2
		l-3,9h3l2,3l2-1l-1,4l3,2l3-3h6l1-2h2l1,5h3l3,3l-6,5l-1-1v5l5,2l4-1l1,2l3-4v-3l4-1l3,2l-2,2l2,5h8l1,2l-1,2l2,1l-1,2l2,2l-2,5h2
		v5l-4,16l-1-1l-2,3l-8,2v-4l-2,1l-4,9v4l-2-1l3,3l4,1l4,7l10-2l17,2l2-2l7,2l4-1l7-9l5,1l1,4h7l1,2l4-2h5l2-6l3,5l-2,9l1,2h4l1,1
		h-2v2l3,1l1-2l8,5v-2l6,1l5,4l1,3h3l2-3l3-1v-2l5-3l3,3l2-2l8-2l4,4h2v-3h5l2,2l5-2l11,22l6,3l11,9l15,3l12-2l3-2l-2,6l1,5l8-4
		l-1-3l2,1l3,8l-2,1l3,3l-1,3l3,3l1,5l2,1l8-12l3-2l7-1l2,2v-3l1,1l2-4l3,3l1-10l-3-4l1-2l5,1l5-2v-3l4-1l6,2l5-2l2-5v-7l-6-3l3-5
		l3,1l3-2l12,2l3-1v-2l4-1l-2-17h3v-3l3,3l1-2h6l-4-5v-4l-3-1v-2l2-1l-1-1l4-1l2-4l-2-2l2-1l-2-1l11-6l1-3l1,3h2l1-2h4v-2l5-1l4-7
		l-11-9l-18-21l-4-1l11-11l8-5l5-1l11,6l6,10l14,5l7,5l1-1l48,14l-1-16l-15-35l-12-16l-28-10l-2-2l2-2l-5-3l-6-1l1-3l4-2v-8l-6-3
		l-1-13l-3-12l-9-4l-8-1l-17-8l-4-6l-6-1l-7-4l-8-1l3-4l-1-4l-3-4l-5-2v-2h5l1-6l2-1l1-15l-4-9l-2-14l-2-3l-6-3v-7l-4-20l-3-2l2-7
		l-3-4h-6l-3-5l-3-15l-5-13l-12-23l-28-65l-7-26v-8l-27-13l-18-11l-20-4l-4-5l-18-8l-2-3l-5-2l-3-5h-3l-9-6l1-4l1,1l1-3l4-2v-2l-2,1
		l-6-3l-11-2h9l3,2h3l1-2l-8-4v3h-15l-6-5h-5l-3-5l1-2l-2-7l1-15l3-9l6-5l1,7l2-1l-2-5l2-4l-2-4l-5-1l-4,3l-2-1l-8,2l-4,7h-14l-7,2
		l-5-1l-6,3v13l-7,11v4l-5,1l2,3l-1,5h-5v4l-3,1v2h2l1,2l3-1l3,3l-12,7l-5-3l-2,2l-4-2l-1-3l-5,2l-3-1l-5,5l-4,1l-1,2l2,6l-4-1l-2,5
		l2,14l-3,5l-1,6l-4,3l-12-1l-1,3h-8v4h-4v-2l-1,2v-12l-6-5l4-3l3-6l-14-4l5-7l-3-3l1-2l-10-2l-1,2l-1-2h-2v-2l-4-1l-3,2l-4-1v4
		l-15-1l1,21l-15-5v3l-3,5h-3l-1,2l-2-1l-2,5h-3l-1-2l-10,1v-2l-3-1l-5-6v-2l-3-1v-4l-6-2L801,403"/>
</g>
</svg>
