<?xml version="1.0" encoding="utf-8"?>
<!-- Generator: Adobe Illustrator 26.5.0, SVG Export Plug-In . SVG Version: 6.00 Build 0)  -->
<svg version="1.1" id="图层_1" pointer-events="none"
	 xmlns="http://www.w3.org/2000/svg" xmlns:xlink="http://www.w3.org/1999/xlink" x="0px" y="0px" viewBox="0 0 1975 1204"
	 style="enable-background:new 0 0 1975 1204;" xml:space="preserve">
<style type="text/css">
	
		.st0{fill-rule:evenodd;clip-rule:evenodd;fill:#FFFFFF;fill-opacity:0.2;stroke:#000000;stroke-width:2;stroke-linecap:round;stroke-linejoin:round;}
</style>
<g>
	<path class="st0" d="M1221,562h3l4-3l2-4h2l5,7l1-2l1,1l2,11l8,3l2,3l3-1l3,4h2l6-7l-1-6l4-4l5-2v-2l2,2l6-2l4-4l3,2l4-4h4l2,2l2-1
		l4,3v-5l2-3h3l-1-4l4-3l6,2l3-1l2-3l2,1l2-2l11-1v-8l3-3l-1-3l-4-1l-3-3l4-5l14-7l2-3l-2-10l-3-2l3-4l2-8l-8-2l4-2l-4-7v-7l3-3
		l-2-3l2-1v-3l-3-2l1-1l-4-1l2-2l-4-13l-10-5l-3-12l-2-1l-7,3l-1-2h2l2-3l-3-2l-2-4l-7-1l-1-4l-2,3v-2l-1,1l-4-6l1-5l-5-4l2-2l-2-2
		l1-3l-2-3l1-6l4-1l2-3l-2-7h11l3-3l-2-1l6-5v-5l-10-8l1-3l-2-3l3-2l-1-2l-5-4l-6-2l-1-4l-4-1h-3l-1,2l-3-1l-3,3h-8l-8-4l-5,3l-3-1
		l-2,2h-4l-2-1l-1-5l-4-4l-8,5l-5-2l-1,1l-2-3l1-7h-5l-6-6l1-8l-5-5v-10l-4,1l-1,4l-3,1l-3-6l-7,4l-3-1v-11l-5-3l-9,2l-2,3v5l-7,4
		l3,4l4,1l1,3l-4,4l2,3l-1,3l-8,4l-9,1l-1,3l-4,1l-9,6l-3,5l-4,2l-5-1l1-3l-2-1h-2l-5,5v-4l-9-7l4-5v-2h-3v-2h2l2-6h2l8-10l2,2l4-3
		l9-12l2-8l-1-3l-3-2l-4,3l-1-7l-3,2l-5-8l-13-4l-9,2l-3,7l-2,16l-10,1l-28,17l-4-5l-3-1l-9,1l-19,13l-6,2l-13-5l-10-6l-7-7l-5-2
		l-20,2l-1,3l-3,1l-2,7l1,3l-15,15l-1-1l-6,2l-2,3l-3-2v-4h-14l-4-4l-2,1v2l4,2l-2,6l1,1l-2,1h7l-2,2l-1,5l1,6l-9-2l2-4l-2-2l-7,2
		l-4-3l-4,3l-2-1l-1,5h3l-2,3l-2,1l-2-1v-2l-3,1v-3l-5,8l2,1l1,4l3-1v-4l4-2l-1,2l2,2l-2,2v4h-2l-3,4h-2l-1-2l-7,4l-4-1l-3,3h-3v-3
		l-2-2l-6,1l-7,2l-4,4l-9,4h-7l-3-2l1-1l-13,3l-5-6l-6,2v9l-2,4l1,4h-4l-2,2l-8,2l-11,1v3l-3,2v3l-7,3l-1,4l-3,1l-1,7l3,15l1,1l4-2
		v4l3,5l1-2h3l1,3l-2,2l3,6l6-2l1,2h2l1,4l-2,2l2,3v4l-4,8l1,12l-6,7l2,3l5,1l2,3l8,4l-3,6l-3,1l3,1l4,5h4l-1,4l2,2l-2,2l1,2l-5,5
		h-2l-2,6h-5v2l-5,5v3l-7,2l-4-1l-4,2l3,9l2,1l2,5l-2,4l-9-1l1,3h-5l-4,4h-3l-1-2l-3,5l-3-2l-9,7l-3,9l4,2l1,9l-9,8l1,2l-11,13l-2,7
		l1,1l-4,6v3l4,1l1-2l1,2v3l-4,4v6l4,4l-3,2l2,6l5-1l5,3l9-5h7l7-3v5l-3,7l3,2l-3,8l-10,16v4l3,1l1-2l2,8l4,4h2l3,8h4l1,2l-3,3v3
		l-2,1v6h-2l-5,8l3,10v10l1,2l2-1v3l3,3h12l3,4l11,2l-5,14l4-1l-2,11h-2l-5,5l2,5l-3,6l1,4l-7,4l1,2l-5,6v3l2,2l7-5l2,1l1-2v2l2-1
		l1,3l4-1l6-5l5-1l1,2l4-1l2,4l-2,1l3,3l-7,4l-10,3v5l-8-2l-2,7l-3,2v2l3,2v14l-8,8l-1,8l-6,7l2,10l4,7l3,2l-1,3l2,2l-1,5h-2l-3,4
		l1,4l-2,2l1,2h7l-2,4l1,2l3,2h4l-3,2l4,3l-3,3l3,3h-2l-3,4l3,4l3-4l3,1l2-3l8-3h4l2,3l10-1l1,2l3-7l8,3l6-4l3-6l4,2l4-2l-1-2l4-2
		l6,3l-1,1h3v4h2l3,5l3-1l2,2h4l2,5l3,1l1,5h-2v2l-1-1l-4,2v3l-2,1v2l7,3v4l-9,4l-3,4l-11-1l-3,8h-2l-2,3l-6,1v2l-8,4l1,5h-2l2,2v3
		l-8,10l-1,9l-5,2l-3,5l-13,1l3,5h-2l13,3l4,9l4-2l1,1v-2l6,4l-1,4l2,1v4h2l1,2l14-10l1,2l6,1l4-6l2,1l4-2l2,7l3,1l4-5l-1-7h7l5,3
		l3-2l2,1l-1,2l2,3l3-3l3-12l5,2l3-3l6,1l4-6l4,2l1,3l3,2l1-3l6-2l3,1l-1-3l8-3l1,1l3-4l3-1l7,4l2-6h2l3-3l7,4l8,8l-1,1l4,3l2,9l3,1
		l2-2l7,3l3,3v5l8,1l5-4h8l-8-9v-4l-3-1l4-1l2-3l-4-1l-3-5l3-5l-2-3l2-6h2l-1-3h3l-1-2l3-5l3,1l2,4l6-1l-3-3l-1-3l2-2l-3-3v-2l1-1
		l5,3v-2l-2-3h-3l-1-4h2l3-3l1,1l1-2l-2-5l-4-1l1-2l-2-1l2-4l-1-2h-3v-8h3l3-3h4l2-9l5,1l2-2l1-3l-1-3h-2l2-2v-7l2-1v-8h-2v-3l4-3
		v-4l4-3l-3-6v-3l2-2l1,1l-1-9l1,1v-2h5v-3l2-1l1-4l5-1v2l2-4l-6-6l-1-5l8-6l12-2l6-6l5-1l-1-6l3-4h2v-2l3-3l9-7l-3-9l-4,3l-6-2l1-6
		l-1,1l-1-5l2-5l3-2l-1-1l3-2v-2l7-5l3-7l6,3l-1,3l6-1l1-9l4-4v-2l-6-1l1-1l-2-1l2-1l-5-6l-3-1l3-6l1-7l-3-1l-5-8l6-9l-1-10l7-7
		l7-11l6-4l7,1l3-4h9l6-3h4l1,2l4-6l11-6l-1-7l7-8h2l5-5l2-7l-1-2h-3v-3l-5-2v-6l4-4l-1-7l-2-1v-11l-3-4l-4,3l-4-2l-2-10l5-6h2l4,6
		l2-1l1-2l-2-4l2-3l11,2l1-4l3-2l2,1v-2h2l2-3v-3l2,1l2-2l-1-8l-1-2h-2v-4h3l2-3l3,2l-1,3h3l1-3l9-5L1221,562z"/>
</g>
</svg>
