<?xml version="1.0" encoding="utf-8"?>
<!-- Generator: Adobe Illustrator 26.5.0, SVG Export Plug-In . SVG Version: 6.00 Build 0)  -->
<svg version="1.1" id="图层_1" pointer-events="none"
	 xmlns="http://www.w3.org/2000/svg" xmlns:xlink="http://www.w3.org/1999/xlink" x="0px" y="0px" viewBox="0 0 1975 1204"
	 style="enable-background:new 0 0 1975 1204;" xml:space="preserve">
<style type="text/css">
	
		.st0{fill-rule:evenodd;clip-rule:evenodd;fill:#FFFFFF;fill-opacity:0.2;stroke:#000000;stroke-width:2;stroke-linecap:round;stroke-linejoin:round;}
</style>
<g>
	<path class="st0" d="M1246,419l2-4h13l9-9l7-2l-2-9l2-1v-2l1,1l1-2l1,1v-2l1,1l3-5v-3l9-14l6-3h7l14-4v-5h2v-3l1,1l1-3l1,1v-3h3
		l2-3l6,1l6-2v-2l1,2l2-6l-2-4l5-1v-5l10-2l7,1l3-10l2-2l-1-3l2-2l1-6l-5,1l-5,7l-11,4l-1,2l-4-1l-5,4l-5-2l-3,1l-4,6l-8,1l-7,7
		l-5-1l-8,5l-11,4l-7,10l-5,4l-4-2l2-10l-2-1l3-1l1-4v-4l-2-3l2-5l10-6v-7l2-2l-1-1l4-9l-2-7h-2v4l-6,1v-2l-2,4h-2l-1,4l-6,3l-3-3
		l1-4l-3-2l-5-8l-5-3l-4,3l-6-3l-3,6l-4-1l-3,3v8l-6,6h-4l-6,4v-9l-2-3l1-3l-6-1l-2,3l-2-1l-2,2l-6-2l-2,1l-3-4l-2,2l-4-1l-5,1l-3,3
		h-6l1-3h-2l-5-5h-4l-7-5h-4l-1-3l-6-1l-2-3h-6l-6-3l-2,2l-2-3h-2l-1,4l-3,1v-4l-2-1l-13-1l-2-3v-2l2-1l-1-2h-3v-4h-2l-1,2l-3-3v3
		l2,2l-1,2l-3-6l-2-1v4h-2l-3,3l-4-6l-4,1v3h-4l-3-3h-3l1-2l-2,1l-1-2h-2l-2,4l1,3l-3,4l1,6l-6,8l3-1v5l-6,2l7,4l-1,4h-5l3,4l1,7
		l-4,3l5,1v2h-2l2,2l-1,3l-5-2l-2,1l3,9l-3,10l3,3v2l-2,3l-2-2l-6,2l3,3l-3,1l3,3l-2,8l2,3l-1,2l4,4v6h-6l-3-5l-1,1l1,6l-6,8v7l-9,2
		l-3-1l-9,8h-3l-1-2l-3,1l4,2h-2l-1,2l1,3l-10-4l-5,1v5l-3,1v4l-2,1v4l-2,1v2l-18-5v3l-2,1l1,8l-3-1l-4,2l-1,4l-3,2l-10-2l-8,8h-6
		l-1,3v-5l-5-2l-2-4l-2,2l-1-3l-2,2l3,4h-5l-4,2l-4-2l-3,1l-3-2l-4,1l-8-3l-4,4h-10l2-5l-8,3l-3-1v-2l-11-3l-2,1l-8-3l3,6v4l-5,3
		l3,7l-1,18l-5-4h-6l-1-2h-8l-2,2l-3-2l-6,2l-1,5l-5,3h-3l-1,2l-9,2l2,6l-5,2l-4,7l-3,2l-1,5h-7l-6,4l-6-2l-5,4l-6-3l-7,4l-4-2l-5,5
		l-7-4l-3,1l-4,8l-11,2l-7,6h-2l-1-3l-4-1l-2,9l-9,9h-2l-4-6h-4l-7,8l-12-1l-8,4l-8-4l-8,3l-6-2l-2,5l5,1l-4,3v8l3,4l1,5l4,4h4l5,10
		l-1,4h-3l-5,5l-1,2l2,5l14,5l1,3h4v2h4l3,3l-4,7l-3,2v12h3l1-2l4,7v3l3,1v3l-6,3v3l-5,1l3,8h7l6,3l2,4l5,2l2-1l6,13l-1,5l7,7l12,4
		l4,5l1,3l-1,4l3,6v7l-3,2l4,15l-4,2l1,3l-3,6l2,2h-2l4,3v2l5,3l-2,6l1,1l3-4h2l5,4l3,5l4,1l2,7l-6,3v2h12v3l4,5l-4,9l1,6l1,1l3-3
		l2,7l11,4l5,12h4l2-2l1,1l-2,5l-2-2v2l-2-1l2,2h3v2l6,5l2,3v4l4,4l2,1l8-6l1,4h9l12,11l6,1l2,4l10-2l6,8l-1,1l3,1l4-3h3v4l3,2v2
		l9,6l1-1h-2v-3l2-1l2,3l-1,1h7l13,10v-3l4-4h4l8,4l-1-2l2-2l8-3l1,1l2-4l5,4l3-1l5,3l9,2l2-2v2l3,2l6-5l9-4l1,3l4-2l10,3l1-7l4-1
		l7,5l3-1l2,4h4l1-6l7-3l3,4l5,3l3,5l3,1l1,2l-2,1l4,4h4l6,5l13-9h2l1,4l2-1v-5h2v-2h3v-2h3l3-7l9-1l4,5l-1,3l4,1l-3,3v2l3,3l-4,10
		l1,4l2,2l2-1v3l-4,11l-1,1l-1-2h-2l1,6l8,7l-1,3h-2l-1,5l7,3l-1,5l4,2v10l5,2l3-1l2-5h2l3,4v9l2,1l3,6l3-3l6-1l1-2l2,1l6-7l-1-1
		l5-1l1-2h3l4,3l2-1l-1,1l8,12h7l3,2l4-1l6,3l3-2h5v-4l2,4l3-2v-2h4l1,10l-2,2v4l-3,3l1,12l2,1l3-3l6-1l4,6l3-1v4l8-1l3,7l4,1l2,3
		l3-3l4,1l5-2l2,2l3-4h2l3,4v-5l3-4l2,2l7,1l2-3l-1-4l3-4v-3h5l2,1v3l7,3l-3,10v7l1,3h4v5l6-1l1,2l4-3h5l2-7l-2-3v-4l5-4l3-9l7-6
		l-2-4l7-8l3,1l6-6l8-4l2-3l8,3l-1-2l5-2l5,2l1,2l4-4l1,2h4l4-6l-3-3v-7l3-6l-1-6l2-6l1,1l-1-9l2-4l-2-4l2-10l-4-9l1-6l-3-16l1-3
		l-3-6v-4h-2l3-5l-5-3l8-9h2l-4-1l-7,8v3h-2l-5,5v-3l-2-2l-1,3l-3,1l-5-3v4l-3,1l1,2l-2,6l-2,1l1-3l-4,3l-3-3l-6,3l1-1l-7-6l-1-5
		l-9-7l1-2l-4-1v-4l-3,2l-11,1l-1-1l2-1l-2-1v-2l-4,2l-1-3h-2l-2,3v-2l-4-2l2-2l-2-4l1-1l1,2l1-4l-2,1l-1-4l-2,2v-17l1-2l2,1l-2-4
		v-4l2-1l-1-2l-5-1l-2-5l-14-2v-3l-3-2l-8,1l-1-3l-7-4l2-3l-1-3l3,1l3-2l-2-1l-1-8h-2v-7l4-3l4,1l4,4v2l6,3h15l5-6l2,2l5-4l5,1l1-11
		l4-1v-6l2-2l-1-6h3l1-6h-2l-2-4l1-1l-4-1l2-4l-2-4l2-3h2v-8l3-3l4,2l3-8l10-1l2,2l2-2l4,1l1-3l9-1l-5-11l-1-12l-4-6l3-2l4,2v-7l3-4
		l-1-4h-9l-2-1v-2l3-3l-1-3l2-7l2-1v-5h2l-1-2l6-1l1-5l2,1l9-3l4,2l1-2l9,7l1,4h3v-4h2l4,4h4l4,3l2,3l-3,8l1,2l9,6l1,6l-3-1l2,1l2,7
		l3-1v2l5,3l3,7h2l3-3l4,1v-2l4,1l7-7l2,1l2-2l6-1l2-3h4v-6l3-3l8-1v-2h4v-3l2-1l7,3l2-1l1-12l-5-4l-5-13l-4-3l-1-3l1-5l3-3l-3-7
		l6-8l-10-4l-5,4h-2v-3l-5,3h-5l-2-1l2-3l-2-4l-8-3l-1-3h-2l-1-2l-7-2l-1-5l-6-7l6-7l-2-5l1-6l-7,4l-5-9l-9,2l-4-4l-2,1v4l-2,1
		l-16,3l-1-1l-2,2l-8-5h-5l-2-2l-1,5l-2,2l-8-3l-8,1l-6-2l-7-9v-3l-2-2l-1-10l2-1l-3-10h-2l-2-4l-10-4l-8,2l-2-1l1-9l-6-1l2-7h-8
		l-4-7h-7l-6,5l-2-3h-7l-4,3l-2-3l-4-2l1-3h-2l-1,3l-4-1l3-3v-2h-3l-1-2l1-3l4-1l3-3v-2l-6-6l2-4l3-2l7-1v-9l6-2l-2-2l7-7l3-9h5l2-6
		l1,2h2V419z"/>
</g>
</svg>
