<?xml version="1.0" encoding="utf-8"?>
<!-- Generator: Adobe Illustrator 26.5.0, SVG Export Plug-In . SVG Version: 6.00 Build 0)  -->
<svg version="1.1" id="图层_1" xmlns="http://www.w3.org/2000/svg" xmlns:xlink="http://www.w3.org/1999/xlink" x="0px"
	y="0px" viewBox="0 0 600 600" style="enable-background:new 0 0 600 600;" xml:space="preserve">
	<style type="text/css">
		.st0 {
			fill: #FFFFFF;
			stroke: #000000;
		}
	</style>
	<g>
		<!-- <path class="st0" d="M308.1,263.9c-0.6-2-1-4-1.1-6.2c-0.4-5.5,0.1-11.8,4.8-15.4c3.6-2.7,7.5-2.4,11.5-2.2
		c-1.6-1.7-2.8-3.8-4.3-5.6c-1.7-2-3.4-3.1-5.8-4.2c-1.2-0.6-2.4-1.1-3.6-1.7c-0.7-0.4-1.4-0.7-2.2-0.9c-0.9,0.1-1.5-0.2-1.6-1
		c-0.3-0.9-0.4-0.8-0.1,0.4c0.2,0.8,0.3,1.7,0.4,2.5c0.1,1.2,0.1,2.3-0.1,3.5c-0.5,2.2-1.5,4.1-2.9,5.9c-1,1.3-2.5,2.5-3.9,3.7
		c0,0.1,0,0.2-0.1,0.2c2.9,0.2,5.4,3.4,4.5,6.4c-0.8,2.6-2.9,4.8-5.5,6.2c0.8,1.4,1.1,3.2,0.1,5c-0.7,1.3-1.6,2.4-2.6,3.3
		c-0.1,0.1-0.1,0.3-0.2,0.5c0.7-0.1,1.3-0.2,1.8-0.2C300.4,263.7,304.5,263.2,308.1,263.9z"/> -->
		<path class="st0" d="M476.9,242.2l0.9-1.9l-1.4-1.7l-1.3-0.2l-1.5,1.1l-1.7-0.8l-0.7-1.6l0.8-1.5l-2.5-2.1l1.8-3.7l-0.5-0.8
		l-0.7-5.1l-2.1,1.1l-2.9-2.6l-0.3-1.4l-3.3,1.4l0.6-2.3l1.3-2.1l-0.7-1.8l-1.5-1.1l-1.6-2.8l0.1-2.1l-0.9-1.7l1-2.9l-0.5-2.7
		l0.8-1.8l-3.6-4.3l0.1-1.4l0.9-0.4l0.2-1.9l-2.6-1.2l-1,0.6l-1.2-0.6l-0.9,1.7l-0.9,0.3l-2.5-0.6l-5.6,0.2l-1.7,0.6l-2.5,0.1
		l-3.2-1.2l-2.5-2.4l0.9-1.9l-0.1-1.3l-3.7-0.5l-1.1,0.9l-0.3-1.3l-0.8-2l1.9-1.7l0.9-2l-0.7-1.3l-1.6,0.1l-2.7,2.1l-1.4,0.3l-1-0.8
		l-1.9,0.6l-0.4-1.5l-1.5-1l-1.2,0.4l-1.6-0.9l-1.9-2.1l-0.8-2.5l-2.7-0.8l-1.1,0.2l1.1-2.1l-2.3-0.6l-1.2-1.8l-0.9,0.2l-0.2-2
		l0.6-1.7l1.3-0.7l1.3-5.2l0.8-5.5l1-0.6l2.1,1l3.8-0.8l0.3-1.6l1.1-1.3l-0.5-0.9l-4.3-1L413,147l0-1.4l2-2.5l3.1,1l2.1,0.1l0.9-1.2
		l1.6-0.4l0.5-1.1l0-3.3l3.2-0.7l2.3-2.9l1.8-1.2l0.3-1.4l-1.6-1.4l0.2-0.9l2.8-0.3l0-1.8l1.5-1.1l1.2-1.9l-0.6-3.6l-1.9,0.6
		l-0.8,2.4l-3.2-1.4l-4.4,0.4l-4.1-0.5l-2-0.8l-2.3,0l-1.8-1.1l-1,1.3l-3.1,0.4l-1.6-1.1l-1.7-2.8l0.1-2.9l-5.4,2l-0.5,2.3l-1.5,0.5
		l-3.3-1.3l-1.3-1.2l-3.3,0.4l-3.5-0.7l-2.8,0.3l-0.8-0.4l-1.9,0.9l-1.9,0l-4.3,1.3l-0.9,2l-1.4-0.1l-2.2-2.9l-0.1-2.9l0.9-1.2
		l-1.3-1.6l0.3-2.3l-1.5-2.1l-3.9-1.9l-0.2-0.7l1.8-0.6l1.4-2.6l-0.9-3.8l0.7-0.8l-0.8-0.8l-1.6,0.4l-0.6-0.8l-2.8-0.8l-1.1-1.3
		l-0.4-2.1l0.4-1.4l-0.6-1.7l-2.7-1.9l-1.1-1.9l0.1-2l-1.7-2.8l0.7-3.9l1.8-2.8l3.8-0.2l1.2,0.7l0.8,3.2l1.7,1.1l1.5-1l1.9-5.5
		l0.8-0.9l0.6-3l-1.1-0.7l-2.7-2.9l-1.2-0.6L366,63l2.7-1l0-3.3l0.5-1.2l-1.4-1.7l-2.7-0.5l-1.3-1.2l3.2-0.8l1-1.6l-1.8-3.3
		l-1.4-0.7l-1.8,0.1l-1,0.9l0.5,2.1l-1.1,2.3l-1.1,0.4l-3.3-0.1l-1.8-0.6l-0.1-0.8l1.5-0.7l1.3-2.7l-1.3-1.3l-2.7-1l-0.6-1.1l1.1-3
		l0.2-2.2l-1.2-1.1l-3.9-1.5l-0.9-1.4l-3-1.6l-0.4-1.7l3.7-1.8l1.7-1.3l0.9-1.7l-3.1-3.3l-0.5-2.4l0.9-1.3l-0.1-2.3l-1.5-2.1l-3-2.7
		l-1-1.7l-4.7-4.5l-1.7-3.5L335,2.5l-2.3-1.9l-0.4-1.3l0.6-1.4l-1.5-0.6l-5.1,2.9l-2.8,0.5l-1.6-0.7l-2.4-0.2l-0.7-1l-4.3-0.2
		L313.5,0l-3.6-1.1l-1.2,1.2l-1.5,0.4l0.6,0.8L307,3.4l-2.6,1.9L303.8,7l1.5-0.2l0.6,0.7l-0.2,3.8l-1.6,1l-4.3,0l-0.6-0.7l-3.2-1.3
		l-1.6,0.8l-2.1-0.2l-3.3,0.9l-2.8-0.3l-2.9-1.4l-1.1,2.2l-2.3,0.6l-2.1-0.2l-0.7,2.3l-2.9,1.1l-3.6,1.8l-0.2,1.1l-1.8,2.4l0.8,6.6
		l1.5,6.5l-0.1,2.1l-1,1.6l-3.2-0.6l-4.9-0.3l2.5,4.3l1.8-0.1l1,3.1l0.9,0.3l0.9,2.7l-0.6,3.8l-0.1,3.2l-0.8,1.5l-2.6-0.2l-0.8,1.6
		l-1.8,1l-2.1-1.2l-1.5,0.8l-1.2,2.9l-4.1,0.3l-2.4,1.7l-2.7-0.5l-2.2,0.6l-2.3-1l-1.4-3l-1.3-0.9l-1,0.4l-2,2.8l-1.5,0.6l-2.7-0.3
		l1.5-3.7l-0.3-1.1l-2.5-1.5l-3.3,0.4l-1.5,1.4l-0.6,2.2l-1,0.8l-3.6,1.7l-0.2,1.4l-1.4,1.8l0.1,2.1l-1.4,2.2l-1.6-0.7l-2.6,0.5
		l-2,1.4l-0.1,1.4l1.7,2.7l-2.2,2.9l-1.2,0l0.2-0.5l-3.5-0.1l-1.2,0.5l-1.5-4.9l-1.2-1.2l-2.2-4.2l-2.2-5.6l-4.5,1.7l-1.7-0.9
		l-0.9,0.8l-0.3,1.5l-1.1,0.1l-2.8,2.3l-2-0.2l-0.2,1.9l-2.6,0l-2,1.8l-0.4,1.8l-1.6,0.4l-2.3,1.6l-1.7,0.2l-1.8,2l-2,1.5l-2.2,0.6
		l-4.1,3l-4.5,1.5l-1.4,0l-2,2l1.3,1.5l1.3,0.3l0.4,1l-1.1,2.4L162,94l-0.9,0.6l-3.8,0.3l-1.5-2.9l-1.2,0l-0.7,1l0.2,1.8l-0.6,1.1
		l-3.8,0.9l0.1-1.9l-0.8-1l-2-0.4l-1.8-1l-2,0l-1-0.8l-0.8,1l-2.2,1.1l-2.2-1.2l-3.3,0.3l-2.8-0.2l-2.8,0.6l-1.5,1.5l-1.2-0.9
		l2.5-3.3l0.5-5l-0.6-4.5l0.1-2.9l-2.1-3.5l4-1.9l1.2-2l-1.2-2.8l0.3-2.2l-0.7-3.5l1.2-0.6l-1.3-1.5l0.1-2.1l-1.1-3.3l-0.7,0.3
		l-0.1-1.7l-2-2.3l0-4.5l-2.7-3.7l0.4-0.6l-2.4-0.1l-0.3,1.7l-2.4,1.4l-3.2,0l-0.4-0.6l-2.1,0.1l-2,1l-1.6-0.2l-2.8-1.8l-1.8-0.1
		l-3.5,2l-0.7,2.4l0.1,1.8l-1.6,0.3l-1,2.5l0.2,1.2l1.2,1L99,56.4l1.2,0.6l0.7,1.8l-1.6,0.6l-0.8,1.3l-3.9,1.1l-3.4-1.4l-1.8,0.9
		l-0.3,2L87.9,63l0.3,1.2l-3.1,4.6L82,72.2l-2.9,3.7L79,77.3l1,2.1l-0.6,1.7l1.8,2l0.4,1.8l-1.3-0.2L80,86.2l3.1,5.8l-2.2,0.3
		l0.7,2.3l-1.1,1.3l0.7,3.3l0,3.1l-9.2-2.3l-1.2,0.8l-3.7-0.1l-3.9,2.2l-1.7,2.2l-1.6-0.2l-0.7,2.7l-2.6,1.8l-1,2.3l3.3,0.9l1.8,1.2
		l-0.7,1.3l0.2,1.9l-1,1.6l0.2,1.2l-1.9,0.9l1.6,2.4l1-0.3l1.1,1.1l0.1,2.7l1.3,1.4l0.4-2.5l0.6-0.3l1.5,1.8l0.7,1.8l-1.1,0.8
		l-0.3,3l-1.6,1.7l-3.8,0.2l-3,5.3l-1,0.9l-3,0.4l0.2,0.8l3.2,2.3l2.6,3.3l1.2,0.9l3.6,3.9l0.2,2l1,2l0.7-0.7l0.8,1.1l3.2,1
		l-1.1,0.7l0.8,2.2l0,2.2l1.5,1.2l-0.3,1l-1.8,1.5l2.6,3.8l1.6-0.7l0,2.7l2.2,2.9l0.9,0.4l2.5,5.7l1.2,0.9l1.1,2.6l-0.5,0.4l1.9,2.1
		l1.6-0.3l1.7,1.8l-0.7,3.4l1.4,0.2l0.2,1.4l-0.8,0.9l-0.2,2.8l-1.1,1.9l0.6,1.5l1.7,1.7l-0.9,1.5l1.9,5l2.1,0l2.7,0.7l0.6,1l4-2
		L98,211l2-0.4l2.2,0.8l-0.3,2l-1.1,1.9l-2.9,3.2l-4.5,2l-3.1-0.4l-1.9,0.4l-3,1.4l-2.7-0.6l-1.1,1.3l-0.3,2.2l-3.9,0.6l-2.5,1.3
		l-1.5-0.1l0-1l-1.8-0.5l-2.1,1.3l1.5,5.4l0.9,1.2l-0.7,3.1l-3.3,1.7l-1.7-4.2l-2.1-0.9l-1.1,1.4l0.5,2.2l-0.4,2l-1.5,1.9l-2.3,0.4
		l-0.6,1.9l1.2-0.3l2,0.8l4.3,0.8l0.6,0.6l-0.1,2.4l1.4,4l1.4-0.6l1.6,1.1l0.9-0.2l5,1.4l2.7-1.9l1.2,1.8l-2.1,1.8l1.8,2.5l3.7-2.1
		l0.6,1.5l3-0.7l1.4,0.3l3.2-0.4l0.8,3.1l-1.1,1.4l1.3,3.3l0,12l1.7,3.5l3,0l1.5,0.5l1.4,4l2.9-1.5l0.8,0.7l-0.4,1.4l-0.4,2.4
		l-1.5,1.7l-0.3,2.4l-2.1,0.8l-0.4,3.5l-1.8,2.7l-0.1,4.9l0.7,0.4l-0.9,2l-2,1l-0.9,3.1l0.8,2.3l-1.5,1.5l1.4,1.2l2.2,0.3l0.6,0.9
		l-0.4,2.1l-1.2,0.1l-0.7,1.7l-1.8,0.2l-2.1-0.5l-1.9,3.9l0.6,2.4l-1.4,2.8l-2,0.6l-1.4-0.8l-5.2,1.2l-2.1,1.5l-1.1,0.1l-1.7-1.1
		l-2.2,0.9l-1.3-0.1l-0.8-2.9l-1.3-1.1l-1,0.2l-1-3.9l-3.1,1.2l-0.8,2.5l-2.4-0.5l-1.3,1.2l-0.9,2.2l-2.3-0.4l-1,1.4l-3.8,3.6
		l-1.7,2l-2.1,0.2l-0.7,2.5l0.5,3.7l0.1,3l1.8,2.8l2.4,1.1l1.4,1.2l-0.1,1.7l-1.2,1.3l0.2,3.4l-2.6-0.4l-1.6,3.2L49,361l-2.1,0.8
		l-1.2-0.9l-1.3,1.2l0.3,3.1l-0.8,1.1l-2.5,0.4l-2.4-0.6l-1.4,0.6l-0.6,2.7l-0.1,2.6l-2.9,2.6l-0.3,4.9l-0.8,1l2.6,2.4l-0.7,1.5
		l-2.5,2.8l-0.9,3.2l0.6,1.6l1.6,2l-0.8,4.5l-0.1,2l1.5,1.6l0.3,1.3l2,0.9l2.7-0.5l1.4,0.6l1.6,1.8l2.3-0.7l0.2,1.8l1.7,0.4
		l-1.3,1.3l0.7,0.6l1.8-0.3l2.8,0.8l2.3-0.5l0.3,1.9l-0.8-0.3l-0.9,3.4l1,0.5l2.2,2.7l0.1,1l1.4,1l0.1,2l-0.4,3.8l2,0.5l1.5,2.9
		l0.4,1.8l2,1.8l1,3.8l-0.1,3.1l0.9,1.9l1.7-0.1l0.9,1.7l1.8,1.6l-0.2,1.8l-2.8,1.9l-0.5,2.5l5.2-1.3l1.4,1.1l2.8,0.9l0.8,2
		l-0.6,2.5l-1.1,2.5l0.2,2.6l-4.1,6.6l-1.6,1.9l-0.6,1.7l-0.4,3.5l-3.4,2.9l-1,4.8l-2.7,1.6l-1.3,1.8l-0.2,2.7l-0.9,1.7l0,1.8
		l-2.4,2.1l-1.2,2.3L53,499l-4.1,1.4l-0.4,0.6l0.4,3.3l-1.1,2.8l0.7,1.2l1.4,0.2L50,510l-1.3,2.3l1.6,1.9l-1.2,2.3l-1.1,1.1l2.2,5.4
		l-0.4,2.2l-1-0.1l-2.1,1.8l-0.7-0.7l0-1.7l-1.5-0.8l-1,0.5l-1.5,2.3l0.6,2.7l-0.7,1.5l0.5,1.5l-1.8,0.4l-3.9,2.9l-2.2-0.5l-1.4,0.5
		l-0.9,1.8l-2.6-0.7l-1.5,1.2l-0.9,1.6l0.9,0.9l2.1-0.7l-0.4,2.1l-1.8,2.3l0.7,1.8l3.4,0.5l0.7,1.1l-0.4,2l2.1,0.7l1.3,2l0,1.3
		l-2.9,1.2l0.9,0.5l-0.4,3l2,1l0.4,1.9l3,0.6l2.9,2.6l2.7,0.2l1.5,3.7l0.2,2.1l1.6-0.7l0.7,0.9l2.3,0.7l1.5,1.4l2.7,0.2l-0.2-1.8
		l2-0.3l1.4,1.5l0.7,1.9l1.4-0.4l0.2-1.5l1.6,0l-0.3-1.9l0.8,0.5l1.3,3.1l0.8,0.2l0-2.6l-1,0l0.4-1.2l1.8,1.3l0.9-1.1l0.6,0.7
		l-0.4,2l2.1-0.4l0.4,1.1l-1.3,1.8l1.3,1.8l1.7,0.6l0.5-0.7l2,0.4l0.7-0.6l3.2,1.4l-0.5,1.7l2.4-0.2l0.6-2.4l0.9,0.2l0.8,1.6l1.5-1
		l2.4,1.5l2.7-0.1l1.2-0.7l0.8,2.2l2.6,0.8l1.1-0.3l0.6,1.6l3.4,0.7l1,1.7l3.7,0.6l1.8,1.8l2,0.9l-0.3,1.7l2-0.6l1.4,0.4l1.7-1.4
		l2.5,0.2l0.1-0.7l2,0.5l1-1.4l2.6,2.7l0.5-0.8l3.3,0.8l2.3-0.4l0.1-1.4l1.5-0.3l2.3,0.6l-0.4,2l1.4,2.4l-0.8,3.3l0.4,0.3l2.4-1.7
		l3.1-0.2l3.3-3.7l0.2-4.4l1-1.4l3,0.5l0.4-2.4l2.3-0.9l2,1.6l1.3-0.4l0.9-1.5l2.8,1.9l1.3,1.7l1.3,2.9l1.6,0.9l-0.3,1.6l1.1,1.8
		l2,0.1l2-1.3l0.6-2.3l1-0.1l0.8-2.3l0.8,1.6l1.1-1l1.3-0.1l0.1-1.7l0.9-0.1l0.4,1.6l1,0.3l-0.5-3.9l0-4.7l-0.8-0.3l-0.2-2.3l-1.9,0
		l-1.4-1.4l0.4-2.6l-2,0l-2,1.2l-0.5-0.9l0.6-2.1l-1.3-1.8l-0.7-3.1l-3-1.4l1-1.8l0.4-1.8l-1.2-1l-0.6,0.5l-1.3-3.2l1.7-1l-0.6-1.7
		l1.3,0.1l1.7-2l0.2-2.8l1.5-3.9l0.8,0.5l1.6-2.2l-0.1-0.8l1.4-0.6l1-2.1l1.8-0.7l0.3-1.7l2-3.6l1.7-1.4l1.5,0.6l1.1-1.8l2.4,0.8
		l4.6-2l1.9-1.3l1.4,0l0.3-2.3l1.6-3.8l2.1-2.1l1.2,0.3l1.1-3l1.7-2.8l-0.9-0.2l-0.6-1.9l2.3-1.7l0.2-1.5l2.9-2.7l0.8-1l1.4-5.1
		l-0.4-2.1l2.2-2.1l-0.5-1.2l0.5-1.6l2-1.8l0.9,0.3l1.1-1.4l-0.4-1l0.8-2.3l-0.6-1l1.2-2.6l-0.6-1.6l2.4-0.8l1.1-1.5l1.9,0.2l0.3-1
		l2.2-0.4l1.3,0.4l4.4-1.4l1.9,1.6l2.9,0.4l3.5-3.6l-1.6-1.8l-2.5-0.2l1.1-2.1l-0.9-1l-0.4-1.8l1.2-1l2.5,2.2l-0.3-1l1.3-0.5
		l-0.8-3.6l0.9,0.1l-0.2-2.3l3.4-2.8l0.5,1.4l1.7,0l0.6,1.8l-0.6,1.8l2.3,1.5l2.3,3.2l1.6-3.6l2.1-0.9l2.2-2.9l1.5-1l0.5-1.2l2-2.4
		l2.1-1.4l2.6-3.7l0-1.4l1.6-0.5l1.1-3.7l1.4-0.2l1.8-1.2l-0.1-2l1.5,0.8l0.7-1.2l0-2l2.3-3l0.1-1.5l1.7,0l2.2,0.8l2.8-0.9l2.5-0.1
		l2,0.5l2-0.1l3.6,0.8l3.3-1.5l1.4-0.1l4,0.9l2.5-0.9l1.7,0.5l4.4,0.3l3.4-1.9l1.7-0.1l2.7,0.7l1.7,1l2.3-0.9l3-5.4l2.2-2.6l1.1-4.7
		l2.3-4l-0.3-1.5l1.9-1.2l2.3,0.1l3.5-0.3l0.9-0.6l1.8,0.3l1.7-1.6l1-2.7l1.8-0.8l-0.1-2.4l2.4-1.4l-0.9-0.6l1.4-4.3l2.7-2.3
		l0.9-1.9l2.5-2.4l1.5-2l2.2-2.1l0.7-2.7l-1.5-1l-6.4,1.8l-2.9,0.1l-1.7-0.6l-3.6-4.6l-0.4-2.9l-1-0.9l-2.3-0.8l-2.2-2.9l-0.2-1.7
		l2.9-0.4l0-0.6l-3-0.1l-0.3-2.7l0.5-2.1l-0.4-3l0,0l0.2-1.5l0.5-1l0.5-0.5l5.1-1.8l0.7-0.8l0.1-1l0-4.9l-0.3-0.7l-0.5-0.3l-4.1-0.7
		l-1.2-0.6l-0.6-1l0-3.6l0.8-0.6l2.2-0.1l4.4-0.9l1.2-1.5l0.7-0.5l3.1,1.1l0.9,0.2l0.9,0l0.9-1.5l0.1-0.9l-0.1-0.7l1.1-2.8l1.2-0.4
		l0.5-1.5l-0.1-0.6l-3-0.8l-0.2-0.5l-0.1-2.7l-0.2-1.6l-0.6-2l-0.1-2.2l0.2-1.5l0.4-1.3l0.9-1.6l0.9-1.5l3.8-2.6l2.7-1.9l0.6-1.5
		l0.3-1.6l3.9-1.3l0,0l-0.5,1.6l1.7,0.2l1.4-1.3l0.5,1.1l3.4,1.8l2.7,4.2l1.4,3.9l3,5.4l3,1.2l1.7-0.1l1.3,0.9l4.5,0l-0.2,2.5
		l0.5,1.1l2,1l6,4.7l2.4,0.4l1-0.5l4.6-5.6l-2.4-2.5l-2.7-8.3l1.3,0.3l0.6-1l2-0.8l-0.7-2.1l1-1.1l3.1-1.3l3.9,0.8l1.9,1l2.9,0.3
		l3.8-0.5l1.5-1l-1.4,1.6l0.7,0.9l1.1-1.2l-0.2-1.5l1.3-0.9l1.3,1.2l1.5-0.1l1.6-1.8l2.2-0.6l-3.8,3.5l-0.5,1.9l2.6-0.4l3.6-3.6
		l3.2-2.1l1-2.3l4.1-2.7l1.8-3.6l4.5-5.5l3.8-0.9l2.4-1l3.1-4.3l0.1-1.7l-1-2.8l-2.4-3.5l3-9.8l1.6-4.6l1.6-6l1.1-1.6l1.6-0.4
		l0.1-1.5l4.8-4.4l3-0.7l2.2,0.6l0-1.9l-1.2-0.6l1.5-4.6l1.3-1.2l2-0.8l1.8,1l1.7-2.2l2.1,0.3l0.6-1.2l0.7,1.1l3-1.8l4.3-0.9
		l2.1-2.6l1.4-0.7l-0.1,2l1.9,1.2l0.7-0.8L476.9,242.2z" />
	</g>
</svg>