<?xml version="1.0" encoding="utf-8"?>
<!-- Generator: Adobe Illustrator 26.5.0, SVG Export Plug-In . SVG Version: 6.00 Build 0)  -->
<svg version="1.1" id="图层_1" pointer-events="none"
	 xmlns="http://www.w3.org/2000/svg" xmlns:xlink="http://www.w3.org/1999/xlink" x="0px" y="0px" viewBox="0 0 1975 1204"
	 style="enable-background:new 0 0 1975 1204;" xml:space="preserve">
<style type="text/css">
	
		.st0{fill-rule:evenodd;clip-rule:evenodd;fill:#FFFFFF;fill-opacity:0.2;stroke:#000000;stroke-width:2;stroke-linecap:round;stroke-linejoin:round;}
</style>
<g>
	<path class="st0" d="M658,589l-4-4h-2l-1,4l2,12l-13-2l-5,2l-3,5h-2l3,4v6l-7,7l1,4l-7,3l-4-3l-2,2h-6l2,4v7l-1,3h-4l-2,2l-3,8l3,2
		l-1,7l3,2l-3,3l7,6v3l-2,1l6,12l2-3l-2,5l5-6v5l2,2l2,1l3-2l4,2l3,5l5,3l-7,7l2,1l10-4l2,1l5,14l2,2l-2,1l3,3l10,2l3,5l3,12l-1,6
		l1-1l6,6v5l-2,1l2,4l-3,4l-1,11l3,2v4l3,3l-5,3l12,5l-6,11l1,1l-3,1l-1,3l4,3l3,5v6h3l-1,2h-2l-2,4l-5,2l1,6h2l-1,1l4,3l3-1l2,2
		l2-2l-2-6l2-1l2,2h3l3-1v-2h7l2,6h5l3-4l5,1l8-9l2,1l3,9l7,5h4l2,3l-1,4h-2l-6,8h7v11l-10,6l-5,5v3l3,2l-1,13l5,7l11,5l3,6l-1,8
		l4,11l-2,1v2l3,1l3,9h2l1,3h2v3h-4l1,3l-2,1l6,9v3l2,1l-2,6l1,4l-3,2l-1,3l-4,2l-2,4h3l1,4l2-1v5h2v3h6l4,3l2-5l4-1l1-2l-2-1l2-2
		l5,1l3,4l9,3l5-4l3,2v2l-2,1v4l2,2h9l8,3l4-1v-2l1,2h3l3-8l9-4l3-3l-1-3l6-5l7-1l4,6l3-1l4-5l2-7l-1-3l3-5l1-8l6-2v-3l5,2l8-2l5,1
		l2,1v5l-1,3l-3,1l1,8l8,1v4l-3,4h6l3,5l-1,3l2,3v4l-2,1v3l-3,1l4,3l1,5h2l5,6l-2,2l8,6l-1,3l-2-1l1,4l4-1l4,3l1-2l3,1l1-2l-2-1l2-2
		l2,2h3l-1,1l7-2l7,1l-1-4l4-4v-3l5-1l1-2l3,4l1-1l2,5l5,1l8-9v-2h6v-5l6-2l3,1l4-2l4,2l5-4l2,1l-1,5l3,4h8v-3l3,2l1-1l2,4v7l5,4
		l10,14l-2,2h-4l3,4l-3,4l5,6v2l6,6l6,1l10-4l5-17l-4-2v-2l4-6l-1-4l2-3l16-8l1-12l5-9v-3l-3-3l-1-5h-3l-5-9v-3l9-10l4-12l10-7l2-3
		l1-9l4,3l2-3l5,4l13-22l6-7l6,2l8,11h9l7,4h8l-4,4l3,1l2-5h5l3-8l-1-3l-6-3l-1-6l-15,4l-15-12l4-6l3-11l7-16l7-6l2,3l4,19l2,2l20-2
		l7-6l2-10l3-5h2l1,2l5-1l1-4l3-2l2-8l8-8l2-7l5-6l7-1l7,3l3,10l8-2l2-4l3-2l-1-3l5-11l-1,1l-1-3l-5,2v-2l4-4v-3l6-3l-1-7l-4-1l2-6
		l-6-10l-1-8l-9-5l-5-13l-3-2l19-5l6-4l2-4l3-18l-3-12l-5-1l1-1l17,4l3-5l-6-16l-5-3l-1-12l-2-3l-8-3l-1-4l2-9l-8-5l-2-6l20,10l6-3
		l3-6l2,12h6l9,5l4-4h3l2,4l-2,2l1,1h5l1,4h5l1-5l3-2l-3-2l3-3v-10l-9-5l2-3h4v-10l4-4h2l-1-3l-3-2h-7l3-10l-5-4l1-6l4-5l3-1l3-7v-4
		l-3-3l-2-6l6-8l-2-4l2-6l-6-9l-10-3l-3,3l-4,1l-7-5l19-20l12-3l8-13l17-11v-5l-4-2l-4,1l-3,3h-13l-1-6l-6-7l-3,1l-6,6h-3l-22-15
		h-11l-4-3l-9-13h-3l-2-2l-6-14l-17-24l-19-17l-4-7l-8-5l-9-2h-10l-24-23l-6-10l17-8v-2l7-5l8-2l4-7h3v-10l-7-7l-3-6h-3v2l-2-1l-3,2
		l-4-2h-5l-1-1l3-9l-3-2l1-2l-2-1l-3-1l-7,2l1,2l-4,2l-1,3l-1-3l-4-2l-3,3l-1-2l6-9l-2-3h-3v-3l2-1l-2-13l1-1l-2-9h-4l-1-3h-2v3h-10
		v2l-7,3l-6-3l-10,2v4l-4,3l-4-2h-5l-2,4l2,1l3,6v8h-2l1,2l-1,1l-3-3l-4,5l-1-1v4l-2-2h-10l-5,4l-11,17l-3-2l-2-7l-4-4l1-5l-3-3l2-3
		l-4-4l2-3l-1-4l-3-1v5l-8,2l-2,3l-2-6l3-9l-12,4l-10,1l-21-3l-15-14l-9-5l-10-16l-2-9l-3-3v-2l-8,2l-2-2l-7-1v3l-3,3l-4-2l1-2l-3-3
		l-12,3l-2,3l-4-4l-3,1l-7,8v3l4,2l-3,5l1,13l-9,9l-1,10l-3,2l-1,11l3,3v5l-4,1l-5,11l-3,1l-3-2l-2,2v14l-6,10l-3,3h-4l-3-8h-3l-6,3
		l-6,10h-12l-1,3l4,5v2l-5,5l1,4l4,1l2,3l10-5l2,6l-2,4l1,9l3,1v6h2l1,5l5,1l2,2l-5,4l-5,1l-1-3l-3-2l-5,2l-4,5h-6l-2,10l-2,1v-3
		l-6,2l-7-3l-8-1l-3-3l-5,4l-6-1l-8-5v-3h-5l-1-2l-10,8l-4,1v7l2,6l-1,1l2,1l2,6l4,1l1,2l-12,7h-3l-1,3l6,2l3-1l-1,7l-4,3l2,8h2l2,3
		l-2,2l3,2l-3,4l2,6l-1,9l-4-1l-1,2h-5l1,8l-12,12l-2-2l-2,1l-1,3l3,2l-5,2l-1,5l3,6l-1,4l-5,7h-3l-5,8l-6,6l-4-3l-8,3l-7,10l-7,4
		v11l-5,3l-4-1l-3,2l-3-2h-6l-4,7H658z"/>
</g>
</svg>
