<?xml version="1.0" encoding="utf-8"?>
<!-- Generator: Adobe Illustrator 26.5.0, SVG Export Plug-In . SVG Version: 6.00 Build 0)  -->
<svg version="1.1" id="图层_1" pointer-events="none"
	 xmlns="http://www.w3.org/2000/svg" xmlns:xlink="http://www.w3.org/1999/xlink" x="0px" y="0px" viewBox="0 0 1975 1204"
	 style="enable-background:new 0 0 1975 1204;" xml:space="preserve">
<style type="text/css">
	
		.st0{fill-rule:evenodd;clip-rule:evenodd;fill:#FFFFFF;fill-opacity:0.2;stroke:#000000;stroke-width:2;stroke-linecap:round;stroke-linejoin:round;}
</style>
<g>
	<path class="st0" d="M897,276l-5,3h-11l-2-2l-6,1l-4,6l-10-2l-10,14l-18,13l-3,10v4l2,3l-2,9l3,5v11l3,2l7,1l4,5l7-1l3,4l5-1l3,3h4
		l5,3l8-2l3-8l12-1l3-6l5-5l4-2h8v-5l4-2l1-17l3-7l2-4l3-1l6-8l7-3l-1-7l-4-12l-7-1l-6-6l-7,4l-6-2h-3l-1,3l-7-1L897,276z"/>
</g>
</svg>
