<?xml version="1.0" encoding="utf-8"?>
<!-- Generator: Adobe Illustrator 26.5.0, SVG Export Plug-In . SVG Version: 6.00 Build 0)  -->
<svg version="1.1" id="图层_1" pointer-events="none"
	 xmlns="http://www.w3.org/2000/svg" xmlns:xlink="http://www.w3.org/1999/xlink" x="0px" y="0px" viewBox="0 0 1975 1204"
	 style="enable-background:new 0 0 1975 1204;" xml:space="preserve">
<style type="text/css">
	
		.st0{fill-rule:evenodd;clip-rule:evenodd;fill:#FFFFFF;fill-opacity:0.2;stroke:#000000;stroke-width:2;stroke-linecap:round;stroke-linejoin:round;}
</style>
<g>
	<path class="st0" d="M818,216l-6-7l-3-1l-2-4h-3l-2,1l-6,11l-11-3l-1,2l-5,1l-2,2l1,7l-2,2l-1-2l-2,2l-9,1l-4,3l-1,7l-3,1l-6-7
		l-2-6l-5,2l-6-2l-1-11l-3-10l-2-1h-5l-2,2v4l-8,7l-3,4l1,1h-18v-3l-6,3l-1,3l-7-2l-12,2l-12-11l-23,4l-4-1l-3-3l-5,2l-3-1l-7-5
		l-13-4l-21,4l-10-6l-3,2l-2-1v-3l-2-2h-4l-2,2v7l-3,1l-7-3l-7,1l-2,7l-3,1l-8,11l5,2h8l9,4l3,3l3-2l1,2l6-2l10,1l3,3l16,7l1,2
		l-2,16l-4,17l6,6l9-3l2-4h3l2,2h6l2,4h11l8,3l3,4l12,6l2,4l3-1l-3,7l2,3l4-1l1,4l-2,13l9,12l-7,9l-11-6l-4,2l1,6l-11,8l-6-1l-4-6
		l-5,1l-6-4h-6l-6,3h-5l-11-2l-6-4l-17,1l-3,5l4,8l-4,4l-5,2l-2,2v3l-5,3v5l-4,4v8h-3l-2,4l2,12l-3,5l6,7l4,9h4l4,2l2,3l-3,9l1,5
		l5,7l-6,12v8l8,11v4l-2,3l-5,1l-2,5l4,4l6,15l-1,2h-5l-2,3v8l2,2l-4,3l6,4l5-2h9l1,3l6,1l-1,2l3,6l-1,7l5,6l-4,1l1,4l-4,2v4h11l3,2
		l3-3h3l11,8l5-1l4,3l7-1l-8,7l1,2l2,1l2-2h4l12,14h11l2,4h2v5l4,7l-1,4l2,3l-2,5l1,6l3,1l-1,4l2,10l3,3v2l-2,2v4l-5,3l-2-1l-5,6v4
		l2,3l-2,5l3,1v9l5-1l1,3l-5,11l2,3l-6,9l-1,5l-4,3l-2,7h-5l-3-5l-4-2v-5l-2-6l-2-1l-9,2l-1-2l-8-2l-14,8l-7,2l-12,10l1,5l-3,2v-3
		l-3,3l-6,2l1,5l-2,4l-4,3l-7,2v6l-3,4l-6,2v-6l-4,2l-6,7l-5,2l-11,18l-8,9l-2-2l-1-5l5-7l-3-5l-6-5l3-3l-3,1l-3-4l-8,8h-4l-1,2h4
		l-5,2l-5,6l-4-1l-4,6l-2-3h-3l1-1l-6-7l-2-6l5-3l2-3l-1-3h-11l-2-2l-4,2l-2,3l-2-1l-2,2h-4l-4,5l-5,2l-14,18l-5,3l-5-5l-8,4l-3-2
		l-3-7l-2-1l-2-9l-4-1l-5,3l2,8l-8,6l1,2l-4,1v2l-4,4l-2-4h-5l-3-3h-4l-4,3l-7-1l-3,3l2,6l-2,3l2,1l1,3l-2,5h-3v4l4,1l2,3l5-1l1,3
		l6,6h3l2,2l-1,2l2,1l2,5l4,3h3l-3,6l-3,13l3,2l-6,17h-2l-1,2v2h3l-1,10l3,2l-5,11v17l-2-3l-7,3l-6-3l-6,5l-2-2v2l-4,3v4l5,1l1-4
		l1,3l3,1v9l3-1l1,3l-2,5h5l1,2l4,1l2,4l2-1l-1-4h3l5-4l-5-3l6-11l4-3v-3l4-4l4-1l2,1v2h5l2,8h-2l4,3l-1,11l2,2l-1,4l2,4l-2,2h7
		l-2,3l4,1l4,5l5-1l-1-4l-4-3l6-1l2,7l-1,3h-2l1,2l3-1l2,2l3-8v4l3-2l2,5l2-2l3,3l-3,7l3,2l3-4v5l2,2l-5,4v11l-3,3v3l1,5l2,2l7,1
		l4,5l-2,2l-3,16l10-1l5-7l6,1l1-7l3-2l5,2l1,3h2l3,5v8l-2,5l7,4l-6,12l5,9h3l1-2l2,1l8,6l3,6l3,1l1-2h4l-3-8l3-2v-6l-3-5l10-6l7-7
		v-4h-2v-13l5-3l4,2l-4-8l1-3l4-3l2,1l-1-2l3-2l-2-3v-5h6l-2-3v-5h3l2,4l2-1l-2-3l1-5h5l3-7v-2h-2l1-2h4l-2-2l1-2l8,4l9-6l6,2l4,6
		l2-2h5l3-2l-3-4l3-5l-1-3l8-3v-5l3-3l-4-2v-2h3l4-4l14-2l7,2l7-3l6,2h8l8-3l9-1l8,7h5l11,5l8,7l1,7l3,1l5-2l3,6l3,1l8-6h5l1-6l3-4
		l7,4h4l16-11l5-6l-5-11l-3-3l-3,1l-1-2l-5-1v-3l-3-3l1-4l-7-3l1-7l9-9l-1-2l-8-2l-3-3l2-1l-1-6h19l9-5l7,4l-1,1l2,3l4,2l1-2h3l4-3
		l-2-12l3-2l7,1l2-2h6l5,3h9l1,10l13,1l6,2l38,2l3,2l2,4h3l2,2v3l4,3l1-1l4,8l1-2h6v6l4,2l6-4l7,3l9-2l4,7h19l2,2l6-1l6-6l5-1l7,3
		l2,1v2l4,1v3l2-1l4,5h9l1,3l4,2l4-1l1,1l-3,4l1,3l4,2l2-1v2l4,1l10,7l-2-3l2-2v3l2,2l-3,10l1,3l5-1l3,6l2-1l1,2h4l3-2l3,3l3,7v-3
		l4-1v-2l3-3v9l8,4h3l1,2v4l-4,7v8l2-4l4-2l1-3h9l10-12l3-8l11,1l1,4l5,3l7-6l7,3l3-1l3,2l1,3l5-2l1,3l8-14l1,2l6-4v-2l5-1v-7l3-3
		l-2-2l12-10h6l1-2l-3-1l3-1l6,3l1,2v3l-2-2l-1,2l2,8v9h2l3-3l3-8l5-4l1-3l3-1l1,2l-5,15l-17,16l7,30h4l3-5l8-6l5,1l3,15l3,4l2-3
		l-1-3h6l2,2l2-2l13-18l9-8l9-14l14-16l10-7l21-19l2,3l-1,4l-2,1v5l-3,4l2,9l-4,6v3l2,2l9,1h7l3-3h2l3,9l4,1l1,6l3-1l1,4h2l-6,8
		l-5,1v2l-9,4l2,3l7-1l8,8l3,1l2,4v2l-3,3l1,3l-3,4l-10,1l-2,4v7l-5,3l-4,14h5l4,6l1-2l5,1v6l-5,7l1,5l4,6l-1,7l2,1l2-4l3-2v4l3,6
		l6-8l10-2v7l5,2l5-1l-1,6l3,2l9-4l1-10l4-2l3-5l9-6l5-10l18-3l3,1l8-4h5l-1-7l3-5l-2-4l2-2l-1-5l2-1l7-3l3,1l4,7h5l5-3h5l3-2l2,5
		h12l6-4l7-2l5-6h5l5-3h10l2,2v4l3,1l5-5l4,1l4-3l7-2l2,1v2l3-1l3-5h4l2-10l-2-1v-3l-5,3l2,4l-5,4l-2-7h-2l-1-2l4-4l3-7v5l5-3v5l2,1
		l3-2l2-3l-3-2l1-6h3l5-4l6,6l10-3l2,2l-2,6l12,2v-13l4-3l-1-2l-7,2l-2-2l2-1v-6l2-4l-4-1l-3-4l3-3l3,4l7,3l17-1l1,8l2,1l8-6h6v-2
		l20-18l-1-5l2-10l5-2l1-4l7,1l22-3l7,3l10,9l14,9l17,6l6-1l15-7l5-6l11-7v-12l-2-5l-9-11v-12l3-5l-2-5l1-14l-6-9l2-8l-3-4h-3l-3-5
		l-4-1l-2-8l-5-3l-6,1l-3-2l2-5l-6-9l3-4h2l2-4h3l1-2l-4-1l-5-5l1-6l4-7l-6-6l-2-6l-5-6h-6l-2-3l1-6l-9-9v-5l5-11h4l2,2l5-1l3-4v-2
		h-2l2-3l-3-6v-4l3-4l3-3l9-2l1-3l13-10h4l1-2h6l-2-11h-8l-2-5l-8-3l-3,1l-1-6l-7-4l-4-11l-2-1l-6,4l-4-1l-8,4l-2-6l-3-2l-7-11l-9-2
		l-4,6l-5,2l-1,5l-2,2l-5-4l-3-6l-2-13l-4-4l-7,1l-3-4l1-7h-2l-1-6l-4-1l-3,2l-6-2l2-2l-1-3l3-4l-4-3h-7l-1,3l-3,2h-2l-1-3l-3-1
		l-3,3l-2-1l2-4l-2-3l-6-1l-2-4l2-4l-1-5l4-14l-8-2l-5-9l-7,2v4l-3,2l-1,3l2,6l-4,2l1,2h-6l-8-4l-2,5l-2,1l2,2l-2,1v3l-3-1l-1-4
		l-2-1l-5,5l-2-1l-8,2l-3-2l-7,5l-3-5h-4l-3-4l1-5l-15-1v-4h-5l-3-6h-2v-2h-5l-3,1l-2,4h-5l-2-18l2-3h2l1-7h2l1-2l-3-2l2-10l-1-2
		l-2,1l-3-2l-1,4l-3,2l-2-5h-2v5h-7l-2,2l-2-1l-1,2l-5-1v-2l-3-1l-5,1l-4-3l-11,1l-10-18l-3,1l-2-3l-5-2l-3,1v2l-6-1l-2,8l-4,1l-2,4
		h-3l-2,3h-8l-7,4l-2-7l-3-2l1-4l-2-3l2-6l-4-3v-2h-2l-3,2l-2,4l-7,2l-5-8l1-9l-5-3l2-7l-11-4l2-7h2l2-4l-8-7v-2l-3-1l-1-9l5,2l2-10
		l4-5l-2-5l-1,1l-3-3l-2-5v-4h2l-2-5l1-2l5-2l-4-6l3-9h-2l-1,2l-2-2l2-4l-2-1l-1-4h-5l-1-2h-7v2h-2l-3,6l-2,1v4l-2,1l-4-2v2l2,1
		l-3,1l-2-2l1,3l-6,3 M1274,405h-4l-18,13l-6-2v-2l-3-2h-6l-5-5v-2l3-2l-2-2l-5-1v-3l-7-5l-8-9l-8,2l-2,2l-2,8h-5l-2-5l-6,1l-9-7
		l-5,2l-2,4v6h-3l-4-4h-9l-2,3l-4-5l-17,9l-1,3h-3l-5-3h-7l-14-7l-4,2l-8-5l-2,6l-2-2l-5,2l-3-1l-6,5l1,3l-11-6v2l-4-1l-7,6v4
		l-18-12v-2l-5-2l-6,2l2-2l-3-4l-4,1l3,1l-2,4h3l-1,2l-4-3l-1-3h-4l-5-4l1-3l-4-2v-6h-3l-6,5h-2l-1-2h-2l1-2l-3-1l-5-10l-15,3l-2-5
		l-9-2l-17-15l-8-2l-4,2l-1-6h-2l-11,9l-8-8v-5l-9-9l-2-3l1-2l-6-2l1-2l2,2l2-2l1-5l-2-3v2l-4,3l-5-1l-1-6l-5-10l-16-7v-7l-2-2l-5,4
		l-1-1l-1-9l2-6l3-1l1-2l-3-8l-3-2v-4l-11-2l-5,1l-1-3l8-4v-3l-3-3l1-3l-6-2l-3-3l-1-4l-4-2l-1-3l-2-1l-5,2l-3,4l-1-1l1-2 M818,223
		l2-5l-2-2 M1122,399 M1160,950l1-2 M1156,944l-1,2"/>
</g>
</svg>
