<?xml version="1.0" encoding="utf-8"?>
<!-- Generator: Adobe Illustrator 26.5.0, SVG Export Plug-In . SVG Version: 6.00 Build 0)  -->
<svg version="1.1" id="图层_1" pointer-events="none"
	 xmlns="http://www.w3.org/2000/svg" xmlns:xlink="http://www.w3.org/1999/xlink" x="0px" y="0px" viewBox="0 0 1975 1204"
	 style="enable-background:new 0 0 1975 1204;" xml:space="preserve">
<style type="text/css">
	
		.st0{fill-rule:evenodd;clip-rule:evenodd;fill:#FFFFFF;fill-opacity:0.2;stroke:#000000;stroke-width:2;stroke-linecap:round;stroke-linejoin:round;}
</style>
<g>
	<path class="st0" d="M780,748h-3v-2h-6l-5,3v3l-4-1v2l-4,3l-9-1l6,8l3-2l7,17l-3,3v4l-3,2v2h3l-1,2l-7,4l-4,11l-3,2l2,5l5,1l2,4
		l13-4l3-4l2,3l-5,8l4,5l-1,2l2,6l5,3l-2,5l-7-1l1,7l3,1l5,7h2l4-4l3,1l6-4h2l1,5l2-1l2,1v2l3-2l2,1v4l-4,2l-2,4l2,3v2h-2l1,3l8-2h2
		l2,4l4-2l2-5l-3-9l-3-1v-2l4-6l6,2l2-1l4-16l8-8l2,3l3-1l3,3l9-1v5l-4,10l1,4l3,3l2-3l3,3h2l2-1v-3l3-3l7,6v8l2,1l8-2l7-17l12-12
		l2,2l4-3l4-7l1-8l3-1l4-5l4,3l3-1l6,3l4-3l1,4l-2,3l3,2h10l2-2l8-1l2,3l1-7l-2-2l3-1v-7l4-2l2,3l2,1l-1,3h3l4,3l1-1l6,3l12-1l1,6
		l5,1l2-2l4,3l-1,5h-2v7l-2,3l2,6l-4,4l3,3l-4,1v3l-3,2l1,1l-4,8h2l4,6l-1,1l3,6l6,1v-3l4-3l3-1l1,2l3-2l1,3l8-1l1,3l2-1l2,1v2l-7,1
		v12h-3l-2,3l-9,2l-2,2v10l4,6l-6,24l-4,2l-1,4l-4,3l-6,1l-5,9l-5,3l2,6l-1,3l-8,6l-6,2l-3,8l1,1l-4,6v5l3,5l-1,2l3,2v4l-2,2l3-2
		l2,1l11-3v-13l5-1l8-5l9-10l3,4l7,3l3-4h2l3,4h3l-2,9l6,2v3l-4,2l-1,4l5,7l-3,2l2,2l-1,5l4,7l-3,7l1,2l-5,7h2l1,2l3-1l4,2l3,4l3-2
		l1,1l4-7l6,1l1-7l3-4l5-2v-2h10l4,3l7-1l1,3h8l1-2h2l8,4l1-4l3-3l7-6l4-2l1,1l3-3v-10l-4-1l-3-4v-3l5-6l-1-4l2-2l1-8l3-6l-1-2h7
		l8,4l1-3l7-2l4,7h2l2-2v-3l2-1l2,4l6,3h20l1,3l6,5v7l4,7l-1,3l6,3l-1,6h12l4-4l8,1l6-4v-5l-1-2h-2l-1-5l5-8l-7-8l1-4l8-5l-5-6l-3-1
		h-5v2l-9-1l1-4l-2-2l-1-6l6-1l1,4l3,1l3-5l5-2l4,1l1-2l7-3l1-4l3-2l2,1l-1-5l4-3v-3l3,3l9-6l5,3l1-3l2,3l1,7l2-1l5,3l1,4l6,1v3l2,2
		l3-2h7l1,3l1-2l6,3l1,5l5-3h7l1-3h6l1-2l3,5h7l2-2v-3h3l2-2l2-8h7l-1-3l3-4v-6h3l1-5l-2-2l1-3l-3-2l-6-13v-4l6-7l1-8l8-8v-13l-3-3
		v-2l3-2l2-6l3-1l2,2h3l2-3l-2-1l17-8l-3-3l2-1l-2-4l-3,1l-2-2l-15,7l-1-3l-2,1v-2l-1,2l-2-1l-7,5l-2-2v-3l3-2v-3l2-1l-1-2l7-4l-1-4
		l3-6l-2-6l8-6l-1-3l3-6l-5,1l5-14l-8-1l-6-5h-12l-3-3v-3l-2,1l-1-2v-10l-3-9l5-9h2v-6l2-1v-3l3-3l-1-2h-4l-3-8l-6-3l-1-6l-1-2h-4
		v-4l10-16l3-8l-3-3l3-6v-5l-7,3l-1-1l-12,3l-3,3l-5-3l-4,1l-3-3l2-8l-3-1v-6l4-4v-3l-1-2l-1,2l-4-1v-3l4-6l-1-2l2-6l11-13l-1-2l9-8
		v-7l-4-3l-1-3l3-7l9-7l3,2l2-5l2,2h5l3-4h4v-3l8,1l2-4l-3-4l1-1l-2-1v-4l-3-5l3-2l5,1l7-2v-3l5-5v-2h3l2-3h2v-3h2l5-5l-1-2l2-2
		l-2-2l1-4h-4l-4-5l-3-1h2l4-7l-5-2l-7-6h-3l-2-3l6-7l-1-11l4-9l-2-6l2-3v-4h-3l-1-2l-6,2l-3-6l2-2l-1-3l-4,2l-3-5v-3h-5l-3-15l-6,3
		l-3-2l1-4h-7v-5l-7,1l-3,5h-2v-6h-2l-3,4l-1-1v-5l-3-4v-4l4-5l-1-4l-4,1l-3-4h-3v-2l3-8l4-4l-1-3l2-3l8-1v-5l3-2l-10-11l-5,1l-1-2
		l5-2l9-8l-5-4v-3l-4-1l-1-6l-4,2l-12-2l3-8l-1-7l2-3l-1-1l2-1l-1-4l-25,21l-30,38l-6-2l1,3l-2,1l-2-2l-2-11l-5,1l-7,7l-2-1l-5-20
		l4-6l3-1l5-5l3-11h-2l-4,4l-3,7l-2,1l-2-1v-10v-2l1,1l1-2l-1-2l-4-2l-2,1l1,1l-1,1l-6,2l-3,4l-3,1l1,2l-2,7h-3v2l-4,3v-2l-2,1l-4,9
		l-2-2l-3,2l-1-3h-4l-2-2h-3l-4,3l-4-1l-1-3l-8-1l-5,11l-1-1l-3,4h-5l-6,7l-1-2l4-11l-1-2l-8-3l-1-2l2-4l-5,3l-1,3l-4-7l-7,1l-3-4
		h-3l-1-2l2-3l-1-8v4l-10-7l-4-1l-1-2l2-3h-4l-2-1v-2l-7-1l-9-7l-7-2l-7,5h-11l-2-2l-4,1l-3-5h-11l-3,2h-4v-4l-2-2h-3v2l-4-6l-3-1
		v-3l-4-1l-3-4l-27-1l-4-2h-9l-1-7l-9-3h-5l-1,2h-8l2,5l-2,6l-4,1l-4-3l1-1l-5-2l-7,3h-12v4l-2,1l4,3h4l1,2l-5,4l-3,7l3,2l1-1l3,9
		l9,3l3,6l-1,4l-14,10h-3l-5-3l-2,3v4h-4l-6,5l-2-1v-3l-2-2l-5,1l-1-5l-6-5l-3-2l-8-1l-6-6l-18,4l-4-2l-5,2l-11-1l-8,4l-1,2l3,2
		l-2,1v3l-5,3l-2,5l2,4h-5l-2,2l-2-4l-5-2l-4,1v2l-3,1l-5-2v2l-3,2l1,4l-2,2h-3v6l-4-2l1,5l-4,1v8l-2-1l-3,2l3,8h-6l-1,5l2,8l-3,4
		l-9,4l2,5l-2,8l2,1v2h-6l1,4l7,4h3l1,4l-4,4v4l-4,5v7l-3,2l1,17h2l-1,1l6,4l-2,4l-4,3l2,2l-4,4l-6,2l-1,3l2,3l5-3l2,2l6-3l3,7l-4,2
		v3l-2,1l-1,3l1,4l-2,4v5l1,5l3,3l-3,5l1,4l3,3l-1,2l6-2l3,1v3l1-2l4,1h-2l-2,2v3h-2l1,2l-3,5v7l-3,5l-2,11l5-5l5,5l-7,6v3h-2l-1,2
		l2,3l1,10h2l-1,1l2,3v6l-2,1l4,4v3l2,1l-1,2l6-1v2l7,5l-2,1l2,7l-2,6l1,3l-11,4l-7,6l-3,3v7l-7,1v-2l-4-3l-6,5l-2-4l-4,3l-1,2h2
		l1-3l1,2l-4,3l2,1l-2,6h-2l1,2h-7l-1,9h-7v3l-3,1v2l-2-1v2l-5,2l2,2v5l-5,6v2l-4-1v2l-4,2l-2-2l-2,3l7,3l-1,2l5,4l-1,3l6-3v1l4-1
		l-1-4l12-8h4l2-2h7l-3,3l-1,4h8l1-3l1,1l5-5l3-6l2,1l1,3l9-1l-1-2l7,1l1-2h3l3,6l2-3h2l-1,8h3l-4,2l4,2l1-4l3,1l-1,1l4,8l-2,5l3-1
		l1,5l-15,8v4l1,1l4-5l5,3v5l-2,2l2,10L780,748"/>
</g>
</svg>
