<?xml version="1.0" encoding="utf-8"?>
<!-- Generator: Adobe Illustrator 26.5.0, SVG Export Plug-In . SVG Version: 6.00 Build 0)  -->
<svg version="1.1" id="图层_1" pointer-events="none"
	 xmlns="http://www.w3.org/2000/svg" xmlns:xlink="http://www.w3.org/1999/xlink" x="0px" y="0px" viewBox="0 0 1975 1204"
	 style="enable-background:new 0 0 1975 1204;" xml:space="preserve">
<style type="text/css">
	
		.st0{fill-rule:evenodd;clip-rule:evenodd;fill:#FFFFFF;fill-opacity:0.2;stroke:#000000;stroke-width:2;stroke-linecap:round;stroke-linejoin:round;}
</style>
<g>
	<path class="st0" d="M1058,527l-6-18l-18-12l-30-12l-3,2v-5l-10,2l-9-2l-3,2l-6,11l-9-2h-10l-5,4l7,18v13l-5,25l-13,19l3,2l-6,10v8
		l3,16l8,11v4l22,48l29,36l-2,55l-2,39l3,17l20,3l44-6l8-2l54-51l18-23l-31-94l-51-101h1l3,3h20l7-4l1-3v-17h-30L1058,527z"/>
</g>
</svg>
