<?xml version="1.0" encoding="utf-8"?>
<!-- Generator: Adobe Illustrator 27.2.0, SVG Export Plug-In . SVG Version: 6.00 Build 0)  -->
<svg version="1.1" id="图层_1" pointer-events="none"
	 xmlns="http://www.w3.org/2000/svg" xmlns:xlink="http://www.w3.org/1999/xlink" x="0px" y="0px" viewBox="0 0 1975 1204"
	 style="enable-background:new 0 0 1975 1204;" xml:space="preserve">
<style type="text/css">
	
		.st0{fill-rule:evenodd;clip-rule:evenodd;fill:#FFFFFF;fill-opacity:0.2;stroke:#000000;stroke-width:2;stroke-linecap:round;stroke-linejoin:round;}
</style>
<g>
	<path class="st0" d="M1611.2,748.8l2-1l1,6h4v2h2l1,2h2l2-6h2l-1,5h2l1,2l1-2l1,2h5l3,8l5,2l2-2l-1-2l4,3h3l2,4v10l4,8l-2,8l1,3
		l-2,2v3l-9,4l-1,3l2,10v11l6,5l-2,3l2,7l-1,7l-3,3l-2-1l-3,2h-6l-3-2l-3,3l-4,1l-1-3l-3-1l-8,4l-6,1v-2l-6,1l-8-5l-3,5l-3,1l7,13
		l4,4h2l-1,2h2l-4,3l-9,1l-3,2l1-3l-5-1l-2,5l-7-2h-9l-2,4h-3l-1-4l-6-3v-4l-5-1l-2-3l-5-2l-4,1l-8-2l-1,2l-4,1l-4-1l-4,5h-2v6l6,14
		h-2l-6,5v5l-2-1l-7,6l2,1l-1,4l8-2l9,6l3,5l5,2l-2,3v6h-7v-2l-3-1l-3,4l3-1l2,2l1,6l-1,3l-4,1l-2,10l-4,5l1,3l3-1l1,4l-2,3l2,1v6h3
		l3,5l-1,7l-2,3l-3-2l-1,1l-1-6l-2-2l-6,3l-3-1l-6,4l-5-2v-2l-2-1h-8v2l-4,2l-1,3l-3,2v9h-8l3,4l-1,2l3,3l11,4l1,4h-2l-1-3l-2,4l3,2
		l-2,1l1,5l-4,8l-2-1l-16,6l-1-3h-5l-4-2l-1,4h-2l5,10l-1,2l-1-1l-4,2l-2,3l-5,2l-1-2l-4,4l-5,1l-5-3l-9,4l-4-5l-6,2l-2-3l-4,1l-5-6
		l-2,1l-1-2l-6-1l-4-4l-4-1l-1-8l6-1l3-6l-5-1l2-5l-5-15l7,1l-1-2l3-1l-9-1l-3-5h-2v-3l-4-8l1-5l-8-6l-17,2l-9-3l2-1l-1-1l-9,4l2-5
		l-3-5h-3l-2,4l-5,1l-5-3l1-2l-2-1l-3,2l-3-1l-1-1l2-6l-1-3l-3-1l3-4l-1-3h-2l4-3l-4-3l1-4l-6-2l-2,1l-2-2l-2-7l-2-1h-3l-1,3h-3
		l-2,3l-3-1l-2,4l-6,3l4,5l-1,1l-2-2l-10,2l-2-1l-2,9c0,0-4.5,0-6,0c-0.2,0-0.8,0-1,0c-0.8-0.1-3-1-3-1v2l-5-2l-2,2l8,8l-1,5l4,1
		l1,3l1,2l-2,4l2,4l9,6h-2v6l-3,2v2l-2,1l-7-2l-5,6l2,7l-1,2l-6-5l-1,6l-10,2l-4,6l-3-1l1-5l-5-5v-2l7-3l3-9l2-1l-3-3l-1-8l-3-1
		l-1,3h-3l-3,5h-6l-2-3l1-5l-5-8l-8,2v2l-12-3l-4,2l-1-4l2-2v-4l-3-3l1-1l-12-6v-2l-3-2l1-1l-11-15l3-5v-6l9-5l6,5l9-1l3,1v2l6,2v2
		l10,2l1,2l3-2l7,5l-1,1l2,2h3l1,3l2-4h5l2-2v2l1-1l4,2l1-4l4-2l-1-2l3-1v-4l2-1l4,2l2-7h5l-7-12l-1,1l-3-3h-6l-4-4l-1-22l4-2l6,1
		l-2-2l1-3l7-7l7-2l2-6l6-3l-2-7l-6-3l3-3l-3-4l2-3l7,1l7-13l3,3l8,1l3,3l2-3h-3l5-2v-2l-3-2l-5-13l2-4h2l3-3l10,2v-10l2-3v-4h-3
		l-3-3l4-2l3-7l5-1l-11-10h-3l-5-10l1-2l-4-6l2-1l-3-2l1-1l-8-5v-3l2-2l6-3l-1-2l-9-7l-3-5l-5-2l4-4l-1-6h10l-1-3l-6-7h-3l-2-2l-4-7
		l-7-3l1-2l-7-2l-1-3l-5-3l2-5l-7-6l1-2l-3-6h-3l-9,6l-1-4l-9-3l1-1l-3-5l-9-4l-3-1l-5,7l-5-4l-7-2l-1-3l-8-7l-1,1l-3-3l-3,1l-2-3
		l3-11l-2-1l-4,2l-4-3l-2-4l-3-1l-6-1l-1,2l-8-4l-2,2l-1-4l-2,2l-5-3l1-1l-2-4h-2l-1,2l-1-7l-5-1l-6-5l-3,1l-1,3l1,3l4,2l5,8l1,7h-3
		l-2-4l-24-11l-9-7l-4-4l-2-6l-3,1l-1-4l-11-11h-3l-10-10l3-3l-3-3l-7-1l-4-4l-5-2v-2h-4l-1,3l-5,5l-3,1l1,2l-3,2l-3-2h-5l-2-2l1-1
		l-4-3l-5-1l-4,10l1,2l-10,9l-5-6h-3l-9-6l-8-3l-2-4l-11-5l-3-4l-8-4l-2,1l-5-3h-17l3,5l-3,3v7l-2,5l2,6h2v10h2l-1,5l3,2v7l-6,3
		l-6-2l-1-2h-4l1,3l-3,1l3,2l-2,2h-4l-3,2l3,2l-3,6l-3,2l3,11l-17-5l-4,3l-3,6l1,1l-3,2l-2-2l-1,1l-7-3l-4,1l-7-5v-2l-5-2l-2-6l-1,1
		l-6-2l-1-2l-6,5l-1-1l-5,4l-2-1l-2,2l-2-2l-2,1l-5-2l-4,2l-8-10l-4,2l-1-2l-1,1l-4-2l-10,4h-12l-5,3l-2-1v-5l-10-28l-27,4l-10-3
		l-2-5l8-1v-4h-3l-7-4h-18l-11,2l-3-2h-4l2-11l-5-6l1-3l-2-2l-4,3h-5l-2-2l-5,3l-2-1l-22,4l-2,5l-7-2l1-3l-2-11l12-11l8-12l7-30
		l3-24l7-13l1-22l38-7l16-1l4-11l-1-8l13-20l11-13l23-20l14-3l3-7l4-4l16-9h2l1,3l3,2l-1,2l7,11l2-7l15-13l7-3l12-2l12-6l6-8l-4-12
		l7-6l-9-9l1-8l-5-2l3-9l5-5l18-11l23-3h15l13-3l43,99l-15,16l1,3l22,29l18,13l5,2l1,30l18-9l-4-6l7-2l1,6l7,8v-9l12-6l4,7l4,2l1-4
		l3-2v-10l26,1l6-7l25,2l12,16v9l-5,6v22l-10,7l-3,4l-2,7l-3,3l-3,2h-6l-2,3l-14,8l-2-2l-2,1h15l10,3l5,6l9,2l6,5l8,1l4,7v8l12,2v7
		h22l1,24l-2,3v4l4,2l1-2l3,2l1,5l17-6l-2,6l2,6l6,2v6l15,5l3,5l3-3l8,2l10-12l9-7l-10-9l-6-8l12-2l28-11l11,7l25,6l23-20l30-10h9
		l7,3l1,1l-3,10l10,17v8l-2,4l-8,4l-12,21l-29,19l4,5l4,16l-11,5l2,19l18,6l13,15l20,16l6-2l5,1l5-2l4,2l7-1l5,2l-2,2l3,3l1-1v2
		l-6,3v7h6l4-3l5,3l7,14l13,3l1,8h4l6,7l-1,5h-5l-3,4l5,11l-1,2h4l3,3l2,10l5,6l-1,6l3,6l-1,4l-4-1l-1,3l-4,2l1,1h-2l-1,10l2,3l3,1
		l-2,1v3l1,1l2-2l6,8h3l1,3v-3l6-2l6,2l-2,2l-1,4l3,1v2l2,1l-1,1h3l2,7l1-4h3l7,2v2h2 M1487.2,842.8v3l1-1l3,8l4-6l4,3v4l8,9v-3l2,1
		l7-7v-5l-4-9l1-4h2l-3-6l2-5l4-2h6v2l2,1l1-2l4,3l1-3l4,1l4-4l1,1l2-3l-2-1h2l-3-6h-2l3-3l1,1v-2l1,1l1-3l-2,1l-1-2l2,1l2-4h-2l2-5
		l-2-4l1-1h-2v-2l-5-6l-1,2h-3l-5-5h-5v-2l-1,2l-2-2l-2,3h-2v-10h2l-3-1v-2l1,1l1-6l-4-1l-6-6l5,1l2-2l-2-1v-2l4-2l-1-3h3l-1-2l2-2
		l3-1l2,2l2-8l-2-3l1-1l-1-2h-2l1-1l-2-2l1-3l3,1v-4l2-1l-4-9h3l1,2l1-2l4,2l2-4l6,3l1,2l1-5l5,4l3-1v-2l4,2l6-2l3,4h2l3,15h11l4,6
		h8l13,5l5,6l-1,3l3-1"/>
</g>
</svg>
