<?xml version="1.0" encoding="utf-8"?>
<!-- Generator: Adobe Illustrator 26.5.0, SVG Export Plug-In . SVG Version: 6.00 Build 0)  -->
<svg version="1.1" id="图层_1" pointer-events="none"
	 xmlns="http://www.w3.org/2000/svg" xmlns:xlink="http://www.w3.org/1999/xlink" x="0px" y="0px" viewBox="0 0 1975 1204"
	 style="enable-background:new 0 0 1975 1204;" xml:space="preserve">
<style type="text/css">
	
		.st0{fill-rule:evenodd;clip-rule:evenodd;fill:#FFFFFF;fill-opacity:0.2;stroke:#000000;stroke-width:2;stroke-linecap:round;stroke-linejoin:round;}
</style>
<g>
	<path class="st0" d="M1054,857l-2,1l-2,4l1,1l-2,2l-7-4l-3,1l2,8h-3l-1,2l7,3l2-4l3-2l8,1l-1,3l4-2l3-5l-2-1l1-3l-2-4h-3l-3-3l-4-5
		l-2-1l1-1h4v-2l5-3l10,1l5,5l-2,2l3,2l-1,4l3,1l4-2l3-4l3-1l-1-1l4-3l1-3l-1-4l-2,2l-2-2v-5l2-1l2,2h3l5-5v-4h3l2-5v-2l-5-1l-2-5
		l-3,3h-4l-3-2l-1-5l7-3v2l5,4l2-3l7-3h2l1,2l2-2l-1-1l3-2l6,2l11-1l-1-2h-4l-5-4l2-4l7,2l6-3l-6-2v-3l2-1l3-6l-1-2h-2l-5,5l-10-9
		l11-4l-3-5l5-3v-4h-2v-2l-3,1v-2l-6-3l6-4h10l-1,2l-3-2l-2,6l4,3l6-2l1,2l1-1l-1,5h-3l-2,2v3l6,6h9l-4,3l1,3l-4,1l4,3v2l4-6l-1-4
		l2-1l1-4v-4h-2l-1-3l-4-3l1-3l2-2l6,7l7-2l4,4l6-4l-3-6l11-2l1-4l-6-1l-5-7l-6-1v3l-4-7l-10-3l1-6l2-1l4,2l5-3l-2-4l5-2l2,1l-2,4
		l4,6l8-1l-1-8l2-7l8,5l2-2l2,1l-3,8l1,3l1,1l2-6l4,1l-1,3l3,4l-3,4l2,1l3-3l1,3l2-1l4-5l-3-4l2-3l2,3v7l2,6h5l2-4l-3,1l3-2l1,1
		l-1-6h2v-4h-6l3-4l4-1v3l3,1l7,7l4-2l-3-1v-3l8-4h2l1,2l2-1v-3h-4v-2h-2l-1-2l1-3l3-2l4,1l2-5l-2,1l-5-2l1-4l-8-3l2-6l-9,4l-5,6
		l3,4l1,7l-3,1l-2,5l-3,1v-2l-4,2v-9l-3-8l-8,1l-1-1l2-2l-2-4h-7v-4l7-3h7l4-3l-2-2l5-5l-2-8l1-11l8-3l4-12l-1-5l-6-1l-2-8l-7-9l1-3
		l7-4l2-4v-5l12-3l3,2l3-2v-2h-2l1-2l5-2l8,2v-2l6-4l1-3l-11,2l-6-11l1-2l-7-19l-8-5h-6l-9,3l-4-4l5-4l3-5l-1-2h3v-7l1,3l6,6l16-1
		l4,3v4l6-3l-2-4l6-7l-2-4l1-2l17,1l-12,12l1,2l-1,4h-2l-1,6l-1-2h-5l-7,4l-3,10l2,2h6l3-4l5-3l-2-2l4-3h5l8-5l4,2l5-3l1-2l-4-2v-4
		l2-2h3l2-4h-2l1-2l-6,1l-1-2l4-5l-4-1v-4h-5l-2-2v-4l9-2v-6l14,1l2-2l2-8h2v-6l-3-1l6-1l-2-3v-4l5-1l9,2l1-3l8-6l-2-3l-3-1l-3-6
		l2-3l-2-1v-2l4-1l-3-2l-1-4l-5-5l-2-4l1-3l-5-3v2h-5l-3-7l-4,3h-11l-1,4l-3-1l-1,3l-3,1l-3,5l-3-1l-3-5l-6,2l-3,7l-9,1l1-1l-3-1
		l-4,4l-6-2v-2h2l-5-4v-3l-8-9l2-2l1-10l-3-4h-3l2-5l-6-1l-1-5l3-3v-4l-14-1v2l-5,1v7l-2,3l-1,7l-5,4l-3-5l-5,1l-4,4l-1,4l-7,3l-2,6
		h-2v-2l-1,2l-15-2l-1-4h2v-2l-2-1l-7,2l-1-2l-8-3l-1,4h-3l-1,4l-6-2l-1-3h-2l1-2l-3-3h-2l2-4l5-4l-1-3l2-4l-2-1l-1-5l-2-1v-5l3-1
		v-2l-3-1l-3-7h-2v-2l2-1l-2-6l-2-1l2-3l-2-1l1-2l-4-5l1-1l-7-2l-3-4l-1-14l10-8v-7h-5l1-3l6-5l-2-3l-6-1l-4-9h-3l-3,6l-3-1l-4,3h-3
		l-2-4h-5l-2,2l-3-1l-2,2l2,2l-2,2l-6-2l1-2h-2v-4l-8,4l-7,6l3,4l4,1l1,3l-3,2v9l-11,1l-2,2l-2-1l-2,3l-3,1l-6-2l-4,3l1,4h-3l-2,2v5
		l-12-3l-4,4l-3-2l-4,4l-6,2l-2-2v2l-5,2l-4,4l1,6l-6,7h-2l-3-4l-3,1l-2-3l-7-3l-4-12l-1,2l-2-2l1-1l-6-4l-6,8l-1-2l-14,11l-2,1v-3
		l-2-2l-3,3h-3v4h2l1,2l1,7l-2,3l-2-1v3l-4,5l-2-1l-3,2l-1,4l-10-2l-2,1l-1,3l2,3l-3,3l-4-6l-5,2l-2,4l2,5l-1,4l5,3l4-3l3,4v11l2,1
		l1,7l-4,4v6l6,3l-1,2h3l1,5l-2,1v3l-11,9l-3,5l1,6l-11,6l-4,6l-1-2h-4l-5,3h-10l-3,4l-7-1l-6,4l-7,11l-6,5l-1,15l-5,6l1,3l7,6l-1,7
		l-3,6l8,6l-2,2l2,1l-1,1l6,1v2l-4,4l-1,9l-6,1v-5l-5-1l-3,6l1,1l-8,5v2l-3,2l1,1l-3,2l-2,5l2,5l-1,5l6,2l3-3l3,3l1,6l-9,7l-3,3v2
		h-2l-3,6l1,4l-5,1l-6,6l-12,2l-8,6l1,5l6,6l-1,4l-1-2l-5,1l-3,8h-5v2l-1-1l1,9l-1-1l-2,5l3,6l-4,3v4l-4,3v3h2v7l-2,1l1,3l-2,2l1,3
		l-2,2h2v6l-2,2l-5-1l-2,9h-4l-1,2l-5,1v8h3l1,2v2l-2,1l2,2l-1,2l4,1v3l2,2l-1,2l-1-1l-3,3h-2l1,3l3,1l3,5l-6-3l-1,1v2l5,5l9,1l3,3
		l2-2l4,7l4,1l1,2l1-2l6,1l5-4l5,4l1,3h3l-2,3l2,1l12-4l1-5l3-1v-2h2v3l3,3l-5,2v3l1,2l2-1l3,4l-1,4l3,1l1,3l5-1l4,9l-1,5l2,2l6-2
		l3-5l4,2l15-4l2,2l3-3h3l2,3l-3,3l-5,11l5,8l3,1l-1,1l3-1l2,2l1,2l-2,3l4,7h2l2,3l-1,2l3,5l-1,5l3,1v9h3l5,5l-8,8l-1,4v4l1,2h2v7
		l4,1v8l-4,3l1,3h2l1,2l-1,2h-2l3,2h4l5,21l9,8l3-1l6,4v9l13-1v2l3,1l16-3l3-2v-8l5-1l-2-4l2-4l8-1l5,2l7-13l-1-3l3-9l2-2l13-1l5-10
		l5-5l6-1l2-4v-8l9-8v-3l8-6l7-2l1-3l4-1l-1-7l-3-1v-4l-2-2h-4l1-7l-5-1l7-19l6-5l3,4l9,6l16-2L1054,857z M1027,858v-3l-4-3l-4-2
		l-4,1l-3,3l-2,10l2,5l6,1l10-8L1027,858z M1133,782"/>
</g>
</svg>
