<svg xmlns="http://www.w3.org/2000/svg" pointer-events="none" class="leaflet-zoom-animated" width="1975" height="1204" viewBox="-165 -100 1975 1204" style="transform: translate3d(-165px, -100px, 0px);"><g><path class="leaflet-interactive" stroke="black" stroke-opacity="1" stroke-width="2" stroke-linecap="round" stroke-linejoin="round" fill="#fff" fill-opacity="0.2" fill-rule="evenodd" d="M1259 496L1260 494L1258 494L1258 492L1250 485L1245 491L1241 490L1238 494L1236 491L1234 497L1223 497L1222 502L1219 503L1216 501L1212 502L1208 499L1205 501L1201 501L1201 497L1192 492L1188 493L1186 496L1179 500L1176 494L1172 494L1171 496L1161 486L1157 485L1156 487L1153 487L1151 489L1147 483L1147 480L1140 483L1135 481L1132 482L1126 478L1125 481L1104 478L1105 479L1098 481L1094 479L1094 475L1096 474L1095 471L1089 470L1079 474L1075 467L1073 468L1071 464L1067 464L1066 462L1061 461L1055 457L1052 452L1048 452L1045 455L1041 452L1037 452L1034 449L1032 449L1029 452L1028 451L1026 454L1022 451L1014 451L1011 454L1010 451L1005 451L1001 449L998 450L988 442L976 438L969 427L960 425L958 420L954 418L952 415L952 404L947 403L949 399L946 398L944 394L940 393L933 386L929 379L931 378L931 375L933 373L937 373L937 371L941 370L940 368L942 367L941 365L944 355L941 354L942 353L940 352L940 334L936 333L935 328L938 325L940 325L940 323L944 320L943 316L941 315L941 312L939 311L934 311L931 314L926 313L925 304L927 297L923 295L917 287L923 282L920 281L922 279L921 277L928 272L933 272L936 267L938 267L934 262L934 259L937 259L938 257L935 253L937 252L936 248L937 245L939 245L938 242L940 238L924 237L920 233L919 234L916 232L915 222L919 224L927 223L930 222L930 220L933 218L921 214L913 208L907 207L903 202L901 205L897 206L895 205L895 203L886 200L884 197L878 198L874 202L871 200L869 196L864 195L863 190L857 190L854 187L849 187L847 188L848 189L840 188L833 192L823 191L819 194L809 196L807 195L796 198L790 197L788 192L783 192L779 197L772 198L769 202L760 201L755 205L753 205L751 202L743 202L740 206L734 208L721 209L718 212L713 212L711 215L708 215L708 222L707 225L705 225L704 230L701 233L701 236L692 243L683 243L676 245L675 247L673 247L670 253L667 254L665 252L655 249L655 247L649 244L649 242L640 246L634 245L616 256L603 258L601 260L595 261L596 267L577 277L576 275L573 276L572 273L569 273L567 271L562 272L559 276L546 276L544 278L537 278L537 276L518 272L516 274L510 273L507 268L502 267L500 252L496 252L494 250L489 251L485 254L478 250L472 250L468 248L465 249L463 253L460 253L459 261L455 261L450 266L441 269L441 279L437 281L436 280L433 283L425 283L418 286L407 286L406 283L397 277L388 280L386 276L383 276L378 273L376 275L376 278L374 278L375 280L371 280L364 278L354 278L354 276L352 276L351 274L342 274L338 272L338 270L336 270L334 274L329 275L326 281L333 288L326 289L323 295L317 300L314 299L311 302L312 312L309 313L309 316L305 316L306 319L303 326L303 330L301 331L302 333L299 339L300 342L296 346L290 346L288 348L280 346L278 348L277 347L268 350L266 348L260 351L255 349L250 351L247 350L246 354L248 358L244 358L240 371L239 372L237 370L234 373L232 372L229 376L223 376L223 381L226 381L228 383L228 389L230 390L229 399L231 404L225 408L225 410L226 412L229 412L228 416L235 428L238 428L242 431L242 434L246 435L250 443L255 446L255 459L261 464L259 477L263 477L264 481L262 485L265 491L262 494L263 495L261 497L257 497L254 500L252 508L245 508L243 511L231 500L229 493L231 491L228 486L228 483L223 487L208 493L206 496L211 503L210 507L213 514L211 519L208 520L208 522L211 527L213 525L217 529L217 531L220 532L219 533L230 540L230 542L223 548L223 550L226 553L229 561L232 561L232 564L235 566L231 571L228 572L227 576L229 576L231 579L229 582L231 588L236 590L236 588L237 591L242 596L242 598L245 599L243 603L246 609L251 612L257 611L260 616L266 615L265 611L268 610L271 606L273 611L277 610L283 616L287 615L288 613L294 617L298 623L304 624L302 626L307 629L307 635L310 637L312 642L315 642L315 644L329 644L332 648L337 648L338 650L345 653L350 652L354 656L356 656L362 663L368 664L369 667L372 666L376 668L379 679L381 680L380 683L382 685L390 686L392 682L391 676L394 676L399 672L401 666L401 664L399 663L401 655L409 659L410 655L411 654L413 656L414 653L421 656L422 658L434 661L435 660L437 663L442 662L443 660L445 661L447 664L445 670L447 670L447 672L450 673L449 680L453 682L454 681L458 684L459 683L470 690L474 690L479 696L478 699L485 699L485 701L482 704L487 704L488 707L491 708L491 710L499 708L500 712L503 711L508 716L511 714L513 715L513 717L515 716L519 718L520 723L523 723L529 730L531 738L538 746L540 745L539 747L543 749L549 742L552 743L555 739L561 737L566 737L567 739L574 739L575 743L580 743L577 748L580 752L579 757L583 758L581 764L582 769L584 768L585 770L593 771L593 773L595 773L594 775L598 780L607 780L612 785L612 787L622 792L629 791L635 784L638 784L641 787L643 787L643 794L641 798L638 800L638 809L644 809L649 813L654 812L655 814L661 809L670 812L670 815L673 813L675 806L677 806L680 817L682 820L686 821L687 825L689 826L689 830L694 835L692 838L696 841L702 840L704 838L701 832L701 827L704 827L704 825L708 822L710 827L710 836L713 835L716 838L717 836L717 838L721 839L722 841L729 837L728 834L732 826L734 826L735 829L737 829L740 826L744 827L744 830L746 832L751 832L756 837L765 840L767 845L771 847L774 847L776 845L783 847L787 844L788 845L786 846L789 847L796 844L798 845L798 847L803 846L803 848L807 848L814 838L816 840L823 842L830 842L831 844L833 843L833 837L837 838L838 836L840 836L840 838L843 836L850 835L855 831L860 832L860 828L866 826L868 829L873 829L879 834L881 845L879 858L876 861L875 865L875 872L876 876L878 879L880 879L883 887L885 887L887 891L893 889L893 886L898 883L900 879L895 872L896 867L899 865L897 860L900 858L904 849L912 843L917 837L919 833L918 831L921 827L923 827L928 822L939 819L939 816L943 817L947 821L951 820L955 824L964 820L967 823L972 822L972 824L974 824L978 829L986 829L991 832L998 828L1003 831L1004 830L1007 836L1013 838L1015 837L1015 841L1022 845L1025 845L1028 837L1031 835L1035 835L1039 829L1047 834L1050 839L1057 842L1057 844L1054 844L1052 847L1057 847L1059 851L1053 861L1055 863L1055 867L1066 873L1069 871L1074 871L1078 873L1082 872L1086 878L1090 887L1087 887L1083 901L1090 909L1089 917L1120 910L1124 910L1133 914L1140 912L1149 915L1186 910L1200 903L1201 894L1205 888L1228 864L1244 863L1261 856L1276 846L1293 838L1300 823L1308 821L1318 815L1325 814L1328 812L1333 813L1333 816L1341 820L1344 820L1345 818L1350 819L1357 817L1358 823L1363 825L1365 825L1366 822L1368 823L1371 829L1376 829L1380 835L1390 839L1391 842L1397 842L1402 844L1404 848L1407 848L1407 852L1409 853L1410 850L1423 840L1426 843L1428 842L1427 840L1429 840L1428 836L1430 833L1428 829L1424 830L1423 828L1425 826L1427 819L1426 816L1429 816L1429 813L1431 812L1433 814L1434 811L1437 810L1435 809L1437 801L1436 799L1440 794L1442 796L1446 795L1450 797L1451 805L1455 810L1458 810L1459 807L1462 807L1469 815L1468 818L1470 820L1474 819L1474 822L1477 823L1479 822L1479 819L1485 816L1481 808L1483 808L1486 805L1492 816L1494 826L1502 821L1508 822L1514 817L1513 813L1516 810L1511 799L1508 798L1509 793L1506 785L1512 780L1510 776L1510 766L1508 763L1513 763L1517 760L1521 766L1521 774L1527 775L1527 773L1530 773L1530 770L1526 767L1527 762L1529 762L1533 758L1530 750L1531 745L1534 747L1535 745L1540 743L1536 736L1535 719L1532 713L1533 700L1536 690L1535 681L1533 676L1531 675L1532 671L1530 668L1530 653L1526 636L1526 634L1530 633L1529 629L1524 627L1524 625L1518 620L1520 612L1515 608L1511 600L1506 597L1508 597L1507 589L1509 586L1512 587L1518 593L1525 584L1518 576L1515 575L1510 568L1506 566L1506 564L1503 562L1504 560L1501 558L1501 555L1494 549L1495 547L1493 544L1496 542L1496 536L1487 527L1482 517L1482 510L1476 506L1473 506L1469 502L1459 498L1455 498L1452 496L1436 496L1432 492L1427 495L1426 494L1425 497L1428 498L1428 500L1425 503L1429 504L1431 512L1427 516L1426 514L1423 514L1420 523L1424 527L1422 529L1423 531L1420 531L1418 528L1416 530L1418 532L1415 532L1414 534L1405 533L1404 531L1399 533L1400 537L1397 535L1395 539L1390 535L1389 536L1386 534L1388 541L1391 545L1388 547L1388 550L1393 558L1389 561L1386 560L1384 557L1382 557L1382 559L1379 556L1376 558L1369 554L1365 548L1364 542L1355 542L1351 544L1353 546L1350 553L1354 555L1353 557L1355 562L1353 563L1354 565L1352 567L1349 567L1349 560L1343 558L1338 552L1338 550L1334 550L1328 560L1326 559L1326 556L1322 554L1314 553L1312 556L1308 555L1304 551L1301 544L1298 542L1300 536L1304 536L1302 534L1302 532L1304 532L1303 524L1300 522L1298 523L1298 525L1295 525L1292 522L1293 521L1290 512L1282 517L1280 515L1281 512L1292 510L1289 506L1280 507L1274 504L1271 506L1269 505L1268 500L1265 501L1262 499L1261 496z"/></g></svg>