<?xml version="1.0" encoding="utf-8"?>
<!-- Generator: Adobe Illustrator 26.5.0, SVG Export Plug-In . SVG Version: 6.00 Build 0)  -->
<svg version="1.1" id="图层_1" pointer-events="none"
	 xmlns="http://www.w3.org/2000/svg" xmlns:xlink="http://www.w3.org/1999/xlink" x="0px" y="0px" viewBox="0 0 1975 1204"
	 style="enable-background:new 0 0 1975 1204;" xml:space="preserve">
<style type="text/css">
	
		.st0{fill-rule:evenodd;clip-rule:evenodd;fill:#FFFFFF;fill-opacity:0.2;stroke:#000000;stroke-width:2;stroke-linecap:round;stroke-linejoin:round;}
</style>
<g>
	<path class="st0" d="M1337,641l-6,3v-5l-4-2l1-2l-6-3l1-3l2,2l3-2l1,1v-3h4v-1l5-6v-5l-2-1l5-3v-2l2,1v-2l3-1v-3h7l1-9l2,2l2-2h3
		l-1-2h2l2-6l-2-1l4-3l-1-2l-2,2l3-4l2,1v3l6-5l5,3v2l7-1v-7l3-3l7-6l7-2l2-2l2,1l-1-4l2-5l-2-7l2-2l-7-5l-6-1l1-2l-2-1v-3l-4-3l2-2
		v-6l-2-3l1-1h-2l-1-10l-2-3l1-2h2v-3l7-6l-5-5l-4,5v-7l4-9v-7l3-5l-1-2h2l2-5h2l-3-1l-2,2v-3l-3-1l-6,2l1-2l-3-3l-1-4l3-5h-2l-2-9
		l2-9l-5,3l-3-1l-3,2l-3,8h-2l1,2l-3,6l2,1l-2,3l1,2l-8,10v3l3,4l-3,3l-7-6l-3,9h-2l-8-4l1-3l-2-1l-3-1l-5,3l-3-1l-1-5h-3v2l-4,2
		l-1,3l-3-8l-2-1v-3l2-3l4-2l-1-2l3-8l-3-1l2-6l-4-3v-2l-3-2l-2-4l-1,3l-7,2l-1,2l4,2l3,5v2l-4,2l-1,3l3,1l-1,3l-8,1l-4-3l1-9h3
		l-1-7l-2-1l-1-10l4-1v-8l4-4l-1-3h-6l-1-3l-2,2l-3-1l-5,2v2h-4l-17-8l2-4l-1-4l5-5l1-5l-5-2v-17l-4-3l-1-10l-2-4l1-4l-2-2h-2l-2,7
		l-2,2l-6-6l-8,2l-1-2l-7-3l-6,7l-12,1l-3,4h-3l-2,7l-8-4l2-3v-4l-5-2l3-13l-7-9l-4,2v4h-2l-1,2l-5-1v-2h-6l-3,2l-2-9l-3-1l-2,3h-3
		l-5,4l-1-4l-3-1l-2,2h-3l1,8l2,1l-2,5l-5,1l3,7l-4,5l1,2h3l3,6h3l-4,6l1,3h-2l-3,6l-6,1l1,2l-2,3h-3l-5,3l-2,4l-4-2l-1-6l2-3h-4
		l2-5l-2-1v-2l-1,2l-12-2v2l-3,2v-5l-3,3l2,1l-3,1v-2l-3-1v4l-4,1v11l-4,1l-4-6l-2,2h-3l-2,3l-3-1l-3,4l5,7l-1,2h4l-2,10h-5v4l-3,1
		l-3-5l-1,2h-2v4l3,1v2l-7,3l2,11l-4,3l-2-1l-1-4h-5l-2-1v-2l-3,1l-2-2l-4,4l-1-5l4-1l4-4l-2-6l1-3l2,1l1-3l-2-2l3-1v-3h-3v-3h-2
		l-6-5l1-4l-2-3h-2l-2-4l-4-2l-2-3l-3,3l2,2h-2l2,5l4,3v4h2l2,5l-1,3h-2l1,4l-2,3l2,5h2l-2,2l-1-3l-4-2l-1,1l5,7l-2,2l-11-6l-4,5
		l1,8l-4,1l-5-4l-2-4l-5-1l-2-3l-6-3l-3-9h-8l-3-3v-4l-7-1v-4l-8-6v4l-2,2l1,1l-3,2v3l-4,2l-2-1v3l2,1l-2,4l2,1l-2,2h-7l-6-2l-1,2
		l-3,1l-1-3l-5,4l-1-1l-2,8l-8,3l-2,11l3,1l4,10l-3,8h4l2,4l6,2l1-5l6-1l-2-1v-2l2-1l1,4l4,1l3,7h3v2l2,1l-4,10l3,4l-1,2l3,1l9-3
		l1,5l5-2l1,2h2v-5h3l8-4l11,5l8,10l-3,5v3h5l6,8l-3,3l-1,4l3,1v3l2,1l-3,5l4,2l-1,1l-4,1l-8,6l-7,2l-6-3h-10l-6,4h-5l-7,3l-1-3
		l-7,2l-3,4h-4l-3-2l-8,2l-3,5l-5-1l-3,3l-5-6l1-2l-8-2l-1-4l-8-3l-11,2v2h-5l-7,8l1,12l-6,4l-4,6h4v4l-3,4l-1,10l-5,7l-3-6l-1,1
		l-3-2h-9l-8,7l-12,6l-1,3l-4,3l-3-2l1-4l-6-4l-2,4l-3,2l-2-4h-4l-8,4l-1-1l-8,2v-2l-6-1l-5-8l1-2l-3-1l1-1h-4l-7-3v-4l-1,1l-6-2
		l-3,3l1,3l-12,13l1,4l-3,3l-1-2l-2,1v2l-3-1l-2,4l-3-3l-2-6l-6-1l-9-7v-8l-5,2l-6-4l-4,14l-4,6v4l-3-1l-1,2l-5,1l-4,8h-2l-4,7l-2,1
		l1,2l-2,2h-6l-3,2l-1,3h4l1,4l-5-2l-2,2v3l3,4l-2,1l1,1l7-7l4,1l9,14l-2,6l2,5l-7,3l-2,8l4,10h2l1-2l2,3l-4,14l3,3v3l6,4l1,4l3-1
		l3,3l17-1l7,2l2-2l-1-6l7-11l6-1l4,1l1,2l5-1l2,2l2-1v-2l7,3l5-2l4-8v-3l3-1l6,10l-1,6l4,3h10l2,4l-2,4l6,2l3,5l-1,4l4,2l1,6l2,2
		l-3,3v3l-9,3l-1,3l-4,3v8l-4,7l1,10l-4,4l-4-2l-2,1l3,4l-5,18l-3,2l4,6l-3,4l1,2l-7,14l-6-4l-2,13v3l2,1l-2,1l3,5h3l1,3l3-3l5,3
		l-1,2l2,1v5l-2,3l2,4l2-3h4l5-5l3,2v-2h2l-3,17l14,7l1,8l-2,1l3,2l1-2h5v2l4,2l4-1l2,3l3-1l2,3l-2,1v6l2,3l-1,1h-2l-4-6l-3-1l-3,2
		l1,4l-6,10v3l-2,2h-6l7,1l3,3l2,6l-4,1v2l-3,1l-3,9l-4,1l-3,3l-6,9l1,8l-2,2l8,4l5,7l9,2l1,3l5,1l2-5l10-3l3-4v-4l5-3l17-5v-11l5-4
		v-3l7-4l2-3l2,1l3-4l4-1v2l7,3v4l9,1l4-3h3l7,3l1,6l6,10l6,2l6-2l4,5l10,1l12,9h4l5-4l10,1l2,7l7,6l7-9l6-2l4-6l3-1l3-4l-1-2l2-1
		l1-6l-1-5l-7-9l1-1l4,1l4-4l12,1l1-2l15-4l2-1v-2l10-3l3-4h4l8-7v-3l3-2l5-1l4,2l4-3l3,2l13-2l2-7l3-3l6,3l3-1l-2-2l4-3v-10l-4-2
		l-3-11l3-2l2,1l2-8l8-3l-2-6l16-2v-2l3-3l2,1l2,8l11,8l-1,1l2,2v4l-2,2l-1-1v4l6,2l2-3l7,4l-2,2v4l3,8l5-2l2,4l-2,9l5-1l1,2v-2l3-1
		l2-3h4v-2l2,1l3-8l4-1v8l5,6l-1,3l7-6l2,2l-1,4l5,6l-4,4l4,2l4-2l2,2l4-2v-2h4l4-2l2-3h3l4-3l10,1l5-3v-3h2l1-5l-1-4l2-2l-2-5l2-1
		l1-4l-2-1l5-1l2-2l-5-4l5-3l7,4l-2-3l1-2l5-2l5-8h3l7,6l3,7l2,1l3-3h4l3,6l4,1l2,5l3,1l4,8l2-4l-2-4l1-2l-1-4h-3l-1-2l2-1l1-7l3,2
		v-2l-3-2h2l1-4l5-2l2,2v-2l-4-2l2-6l2,1l1-2l-1-4l10-2l3,2l-1,3l3,4l-3,3l4,4l2-3h4l-1-1h4l1,2l8-2l10,6l8-5l-6-4l-1-8l6-13l-4-1
		l1-1h-2l-1,2l-4-2v2h-3l-4,7l-6-1l-1-5l11-4l1-3l1,1v-4l2,1l1-2h4l4,2l2-3l3-1h2l1,2l-1,4l2,3l5-4l-3-3l1-2l4,3v6l4,1l2,3h6l5-2
		v-15h3l4-5v-3l3-2l2-4v-2l-3-2l6-4l4-6l-4-3l-1-7l7,1l2-5l-3-3l-2,1l-2-7l1-1l-4-6l2-6l3-2l-2-3l-3,4l-13,4v-2l-7-3l-2-5l3-2l4-11
		l7-4l1-2h-3v-2l3-2v-4l3-2l-2-5l1-1h-2l1-4l-4-4l-1-4l-3,2l-6-7h9l4-3v-2l3,1l1-3l3-2l6-1l-1-10l-3-4h-2v-5l15-8l-1-5l-3,1l2-5
		l-2-2l-2-6l1-1l-3-1l-1,4l-4-2l4-2h-3l1-2h-2l2-6h-2l-2,3l-3-6h-3v2l-2-2l-6,1l1,2l-7,1h-3v-3l-2-1l-6,9l-2,2l-1-1l-1,3h-8l2-6l2-1
		h-7l-2,2l-1-1l-5,2l-10,7l1,4l-4,1V641z"/>
</g>
</svg>
