<?xml version="1.0" encoding="utf-8"?>
<!-- Generator: Adobe Illustrator 26.5.0, SVG Export Plug-In . SVG Version: 6.00 Build 0)  -->
<svg version="1.1" id="图层_1" pointer-events="none"
	 xmlns="http://www.w3.org/2000/svg" xmlns:xlink="http://www.w3.org/1999/xlink" x="0px" y="0px" viewBox="0 0 1975 1204"
	 style="enable-background:new 0 0 1975 1204;" xml:space="preserve">
<style type="text/css">
	
		.st0{fill-rule:evenodd;clip-rule:evenodd;fill:#FFFFFF;fill-opacity:0.2;stroke:#000000;stroke-width:2;stroke-linecap:round;stroke-linejoin:round;}
</style>
<g>
	<path class="st0" d="M1192,884l3-1l-1-2l2,2v4l4-5l1,2l3-1l5-4l1-5l3,1l1,3l18-4l15,2l8,3l13-4l-1,8l6,5l4-16l5-3v-5l3-6l6-1l1-5
		l7-4v2l3-4l-1-7l-3-2v-2l5-7l10-12l4-1l4-6l13-12l14-6l2-8l18-14l3-5l1,3l3,2l8-4l6,2v-3l-5-2l-1-3l2-4l13-5l10-8l9-1l1-5l4-2l3,3
		l6-2l5,4l1-7l4-1l1-5l3-3l9-1v-5l4-5h2v3l3,2l9-2l-7-6l2-3l3-1l4-6l-3-6l-4-2l-8,4l-2-1l2-6l6-2l3-6l2,1l1-7l6-7l1-6l-3-1v-2l1-2
		l5-2l4-6l-7-2l1-7l2-2l-1-3l-7,1l-2-6l-2,2h-3v-5l-3-4l2-4l-3-4h-4v-5l-3-1l-3-5v-9h-2l-3-5l1-4l-3-2l-4-8v-3l3-5l-2-1l-1-5h-2
		l-3-3l-11,4l-1-2l3-11l-1-2l2-1l-4-2v-4l-2-1l-1-4l1-15l1-2l5-1v-2l-7-3v-3h3l3-4l4-1l-1-2l8-11l-2-4h6v-2l4-4l-3-4h-8l-4-4l-2,1
		l-1,6l-6-1l2-3v-5l-1-1l-1,4h-3l4-5l-2-1l2-2l-4-2v-6l3-4l-8-4l-3,2l-6-1v-2l2-1l-2-5l4-2v-2l-2-1l2-4l-3-5l-5-2v-4l-4-2v-2l-3-2
		l-2,1l3-4l-3-2l1-5l2-2l-1-4l2-5l-8,1l-4-3l2-3l-4-4h-3l3-4l-3-4l4-4l-2-2l1-3l-2-5l-6-3h-2l-2,5h-3l-1-2l-2-16l2-5l1-11l-2-1v-4
		l-2-3l6-8l-1-7l2-3l-2-1l-3,3h-10v4l-4,4l-8,4l-2,4v7l-2,1v2h-3l1,3l-5,4l-5,7l-3,1v3l-3-1l-5,3l-2,2v4l-4-10h-8l1-6l1,1l4-2l3-4
		v-3l-2-3l-5,1l-7-5l12-13v-2l-4-1l-4-6l-9-5l1-1l-3-4v-9h-6l-2-4l-2,2l-6-2l-5,1v-6h-2v-2l-8,2l-6-4v-2l-5-6l-7-2l1-3l-7-5l3-8
		l-3-3l-6-2l-1-2l-1,2l-5,2l1,1l-7,11l1,3l-2,5h3l-2,3l2,1l-2,1l2,3h-2v6l-5,2l2,7l-4,2l3,6l-3,1l1,3l-3,4v8l-3,5h-2l2,2l-4,3l1,4
		l-6,1l-2-3l-4-1l-3-3l-12,6l-15,3l-10,12l1,7l-2,5l1,2l6,2l-1,2h-4l-14,6l-3,4l-10-2l-3,4l-3-3h-6l-1,6l-4,4l1,1l-16-13h-10l-4,2
		l-5-3l-2-4l1-1l-2-2l-21-2l-6,2l2,6l-1,1l2,2l11,1v3l-8,8v4l-5,1l-2,2l-2-3l-2,1v-2l-7-1l-4-5l-3-1v9l-2-2l-2,1l-10-3v-2l-3,1v-2
		h-3v2h-3v2l-7-1l-1,3h-3v3l-3,2l1,4h-3l2,1l-2,1l3,3l-1,3l-3-1l2,4l-5,4v4l-2-2l-1,3l-1-2l-2,1l-2,5v-2h-2l-1,2l-5,2l-2,5l-5,4h-3
		l-3-3l-1-5l-1,1l-3-3v-4l-4,5l-3-1l-3,2l-2-2l-1,2l-3-3l-4,4h-2l-1-2l-2,2h-3v4l-4-2l-6,4l-1,1l2,1l-2,5l-5,4l-1-1l-5,2v2l-4,2v3
		l-5,5h-2l-1,4h-5l-2,5l-3-2l-2,2l-8-2l-4-3l-4,2l-2-1l-1,5l-7-1l-1,4l-4,2l-6-1l-15,12l-5-2l-14,8l-1,4l4,1l-2,1v4l-5,1l1,6l-6,4
		l2,2l-6-2l-6,3l1,2l-4,3v4l-3-1l1,3l-2-2l-2,4l4,1l1,2l-6,1l-9,7v3l-8,11l2,5l-5,6l-7-2l-2-5l1-5l2-2h-2l2-8l-3,1l-5-10l-1-6h-2
		l-1-2v-7l-8-12l1-2l-3-2l-1-5l-4-3v-8l2-4l-1-8l-13,1l-4-3l-2,1l-3-3h-5l-2-3l-1,1l-1-4l-3-1l-2-3l-4,1l2-5l2-1v-6l-9-5l-1,6l-8,7
		l-5,1l-2,2h-5l-1,3l-6,3l-1,5l-5,6l4,2l3,6l2,1l1,5h5l1,2h2l1,3l-1,12l-6,7l-1,7l3,3l-3,6l2,3l-3,11l-3,4l1,2l3,1l-1,3l-2,1h2l1,3
		l-3,3l2,5v7l1-1l5,6l7,3l1,2l-1,3l-7-1l3,8h2l1,2v6l-4,3v6l-7,3l-1,2l2,2v9l-2-1v-2l-2,4l-7,1l1,7l-5,6v3h-5l-1,2l3,2l-1,3l-6,7
		l-7,2l-1,8l-6,4l1-2l-3,1l-5-2l-4,4v5l10,5l-2,2v3l-7,2l-4-2l-2,1l-2,6l1,6l-5,9l-1,6l8,4l-2,4l8,2l4,8h2l1,2l2-1l5,5l2-2l2,2l3-1
		l4-4h2l3,3l-6,7l2,2v3h9l1,1l-2,5l7,5l26,1l4-4l7,1l1,4l-2,4l7,8l-2,3l1,5l-2,5l2,7l7,11l-2,1l1,1l-3,6l6-3l3,6l3,2v-2h4l2,11l-3,6
		l4,4v6l1-1l2,2l5-2l3,3l-2,5l2,3h7l4-4l1-5l3-2h4l11-4h6l3-3l15-6l12-8h11l4-2l3-10l2-2l1-10l9-7l-1-7h2l1-2v-8l8-2l2-6h2l2-4l9-7
		l4-6v-10l2-3h13l5-5h7v-5l-7-1l2-7l-3-1v-3l1-1l1,2h2l2,5l3-3l2,1l2-1l2-6l3-1l1-5l3-1h3l6,4h10l19,3v-8h7l4,5h4l-1,5l7-4h3l3,3
		l6-1l5-5l1,1l4-5l5-2l1,6l4,3l-1,3l7,5l6,1l-2,6l3,13l9,1l5,4l8-1l3-3l1,2l-3,6l2,6l13,12l-2,2l1,4h5v2l-8-1v3h3l1,3l-3,3l-5-1l2,7
		h-4l1,4l-2,1l-5-3l-2,2v2l4,3l-4,4l-3-3l-6,1v11l-2,2l-11,1l5,12h3l1,3l-2,4l-2,1l-2-2l-11,14l-7,3l-7,17l-9-1l-5,6l-2-1l-1,3l-6,4
		l-7-1l-1,4l-4,5l-3,1l2,9l-4,2l6,7l-1,7l-6,1v6h-4l-2,2l-14,1l-8,6l-1,9l3,2l1,3h2l2-4l2,3v2l-7,4l1,3h2l-3,3v4l2,3l6-2l2,3l3-1
		l11,3v5l4,1v4l3,3l3-2l1,1l6-6l16-4l3-3l1,5l-1,3l-1-2l-5,3l2,5l-2,1l-1-2h-4l-4,1l-1,2l1,3l2-1l1,2h2l-1,3h-5l2,3l-2,1l2,6h4l2,1
		v2h2l2,4l-3,5l-6,3l-1-1l5-5l-6-7l-4,4l4,5l-1,4h-3l-7,7l-12,1l-4-6h-2l-6,8l2,6l-8,1l-7,5h-3v-2l-3-1h-6l-5,5v6l4,1l1,2l-3,4l3,9
		l-2,2l2,10l9,1l3-6l5-5l6-1l4-5l8,2l11-2l3,1l7-10l12,3l4-2l1,1l3-9l-9-5l-3,2l-1-2l5-3l2-4l-2-2l2-1l8,2l4-3l-1-2l4,1l2,8l3,4l4,1
		l4-3h3l1-1l-2-1v-4l-7-5h7l1,2h2l-3-7l7,5l4-6l4-2l5,3l1-3l-3-4l1-2h3l6-5l5-1v-2l-5-2l-1-7l4-1v-2l12-6l4-8l3-3l1,1l1-3l7-3l6-8
		l11,2l5-3l6-8l6-3l4-6l3,1l16-8v-3l2,3l3-3l-1-2l2-2h11l4,2l1-4l5-4l-1-2l2-1l1,2h2l-2-2l6-2l1,2l2-1l-1-2l5,3v2l4-5l6,2l2-2l-2-3
		h9l1-2l-3-1l1-3l-4-2l2-1l2,2v-3l2-1l13,2v4l6-2l1,1l7-7H1192z M819,779v-2V779z"/>
</g>
</svg>
