<?xml version="1.0" encoding="utf-8"?>
<!-- Generator: Adobe Illustrator 26.5.0, SVG Export Plug-In . SVG Version: 6.00 Build 0)  -->
<svg version="1.1" id="图层_1" pointer-events="none"
	 xmlns="http://www.w3.org/2000/svg" xmlns:xlink="http://www.w3.org/1999/xlink" x="0px" y="0px" viewBox="0 0 1975 1204"
	 style="enable-background:new 0 0 1975 1204;" xml:space="preserve">
<style type="text/css">
	
		.st0{fill-rule:evenodd;clip-rule:evenodd;fill:#FFFFFF;fill-opacity:0.2;stroke:#000000;stroke-width:2;stroke-linecap:round;stroke-linejoin:round;}
</style>
<g>
	<path class="st0" d="M1142,904l2,9l5,5v24l5,2l2,4l-3,6l-5,5l-1,9l-2,2l20,10l6,1h5v-2l7-3l4,1l1-3l4,3l-1,2h9l1,3l-4,3l-2,4l1,10
		l-7,3v6l7,13v6h-4l-2,3v10h4l2,4l10-2l2-3l-4-3l2-4l6-5l-6-8l-4-2v-3l3-2l2,1l5-2l2-4l4,7l3,2v2l5,2l1,3l-3,6v2l3,1l-1,7l-3,5l2,2
		l-8,7l2,11l4,1l1,6l2-4l4-2l4-5l3,8l3,2l2-2l9-2l4,2l-1,4l5,1l5,5h3l2-2v-6l3-5l2,1v2l9,5v-3l2-1l-3-9l11-15l-1-3l2-4l-2-1l3-5v-7
		h2v-3h2v-3l7-8l3,2l8-4v-10l2-1l3-7h3l-2-8l-2-2h-2l-1,3l-4,2l-4-3l-6,4l-3-2l-1-3l2-3l14-7l-3-4l7-6l-1-2l3-2l-5-5l-4-1l1-2h-3
		l1-7l-2-3l1-5l-2-3l2-6l3-3v-9l2-4l3-1l2-9l4-5l-1-5l-10-4h-4l-2-6l1-1l-3-6l-10-7l-1,2h-3l-3-4l-2-5l6-12l-2-2l-5-1l2-6l-1-10
		l-4-3l-1-3l-5-2l-3,2l-1,7l-6-1l-5,7l-10,1l3-16l2-2l-4-5l-7-1l-2-2l-1-5v-3l4-4l-2-7l1-3l5-4l-2-2v-5l-3,4l-3-2l3-7l-3-3l-2,2
		l-2-5l-3,2l-1-1l2-3l-4,5l1,3l-3-2l-3,1l-1-2h2l1-3l-2-7l-6,1l4,3v5l-2-2l-2,2l-4-5l-4-1l2-3h-7l2-2l-2-4l1-4l-2-2l1-11l-5-3h3
		l-2-7l-5-1v-2l-2-1l-4,1l-4,4v3l-4,3l-6,11l5,3l-1,2l-7,2l2,3l-2,2l-8-7h-5l2-8l-5,1l1-9l-3-1l-1-3h-2l1,4h-5v-5l4-3l-1-1l1-1l2,2
		l6-5l4,3l9-3l2,3v-17l5-11l-3-2l1-10h-3v-2l1-2h2l6-17l-3-2l3-15l3-4h-3l-4-3v-2l-4-4l1-2l-2-2h-3l-6-6l-1-3l-5,1l-2-3l-4-1v-3l3-1
		l2-5l-3-5l2-2l-2-6l2-3h10l2-2h4l3,3h5l2,4l4-6l4-1l-1-2l8-6l-2-8l5-3l4,1l2,9l2,1v3l3,2v2l3,2l8-4l4,5l8-5l12-16l5-2l4-5h4l2-2
		l2,1l2-3l4-2l5,3l3-2l1,2l3-2l2,2l-4,12l5,9l-1,1h3l1,2l5-5h4l5-5l5-2h-4l5-2l8-8l3,4l3-1l-3,3l6,5l3,5l-5,7l1,5l2,2l8-9l11-18l5-2
		l8-9h2v6l6-2l3-4v-6l7-2l4-3l2-4l-1-5l6-2l3-3v3l3-2l-1-5l12-10l7-2l14-8l7,2l2,2l9-2l2,1l2,11l7,7h5l2-7l4-3l1-5l6-9l-2-2l2-7l2-2
		l-1-1l2-2l-1-3l-5,1v-9l-3-1l2-5l-2-3v-4l5-6l2,1l4-2l1-5l2-2l-4-9v-10l-3-1l-1-6l2-5l-1-7l-4-7v-5h-2l-2-5l-11,1l-12-14h-4l-2,2
		l-3-2v-2l8-6l-7,1l-4-3l-5,1l-11-8h-3l-3,3l-3-2l-9,1l-3-2l1-3l4-2v-4l3-1l-5-6l1-7l-2-2v-6l-6-1l-1-3h-9l-5,2l-6-4l-20,3l-5-2
		l-10,4l-16-1l-4-2v-4l-5-5l2-3l3-1l-1-4l-6-3l-2,1l-6-2l-1-8l-28-23l-1,1l-12-6h-12l-5-3l-7-9l-11-3l-4-4l-1-6h-13l-4-3l-1-3l-12-9
		l-6-1l-7-6l-6,5h-4l-4-3h-7l-3,4h-2l7,7l4,9l4,2v4l-4,3l-10-4l-2,2h-3l3,7l-6,4l7,6l-3,4l-8-6l-2,2l-6,1l-1,4l3,2l2,4l-1,4l5,3
		l8,11h6l2,6l8,4l3-1v5l14,7l-5,5l2,1v7l5,5l-5,1l-6,6l-3,1l-1,3l-4-3l-10,10l1,2l-2,2l2,2v3h-8v7l-4,2l-8-1l-1,2h-4l-3-2l-3,3l-6,1
		l1,5h5l1,3l-3,3l1,6l-2,3l-4,1l-5,4l1,3l4,2v5l-4,1l-3,4l-6,3l-3,3v2l-10,2l-3,2l2,2l-1,3l2,1l7-3l-1,3l3,3l-6,12h-2l-4,7l-3,1l3,4
		l1,6l6,2l-1,3l-10,3l-3,9l-7-2l-2,5l2,10l9,3l-27,24l-15-5l-2-3l1-7h-2l-2-4l-4-1l-2,3h-2l-8,11l-3,1l-3-2v-3h-6l-1-2l-9,2l-3-3
		l-5,4l3,5h-2l1,2l-3,1l-1,3h-2l1,2l-3,1l-1-2v6l-4,1l2,5l4,4v5l11,7l-10,16l-6,5l2,3l-1,2l-3,2l-2-1l-9,13l-4,15l-3,5l-6,5l-6,16
		l-6,11l-15,16l-1,3l-5,2v5l-2-2l-3,1l-1,2l2,4l-2,3l-3,1l-1-2h-2l1,4h-4l-5-5l-2-5l-3,1l-4,8l-6,1v2l-5-2l-4,2l-4-5l-2,3l-6,1v2
		l-2,1h-3l-1-2l-1,2l-5-2l-1-6l-5-5l1-8h-3v-2l-3,1l1-8l-7-4l1-2h-2l-2-5l2-1l-3-3l-1,1v-2l6-3l-6-9h-4l-5-5l-3,1v3l-4-1l-3,3l-2-2
		h-3l-1-2l-5,1l1-1l-2-1l-1,2l2,1l-1,2l-1-2l-1,1l1,3h-5l4,4l-4,3l-5-2l2,2h-8l-1,2l-1-1v3l-7-3v7l-4,2l1-2l-4-1l2,2l-1,2l-4-1v4
		l-2-2v-5l-4,2l-3-3l1-3h-3l-1-10l-4-8l-1,1l-3-3h-2l2,4h-2v-2l-3,1l-1-3h-2v-4h-2l-1,2l-2-1l-6-7h-16v-2l-4-3l-3,2v-4l-5,1l2,2
		l-2,1v-5l-5,4l-2-2l2-2l-5-6l-5,3l-2,5l-2-1l-2,5l2,1l-4,8l-3,1l2,3l-6,1v7l2,2l2-1v3h-2v2h-9l-5-4h-4l-2,4l2,1l-1,3l3,3h4l1,2
		l-3,1v4h-5l-2,2l-2-1l-3,2l-2-2l-4,1l-2,3v2l4,2l5-4l2,1v3l-5,2l6,6l1-1l2,2h4v5l4,3l2-1l3,6h6l1,3l3-2l2,4l-4,4l-2,5l2,4l-2,1
		l-3,6l2,2l-1,3l4,1v7l-4,4l-6-3l-3,3l-1-1l-3,2l-4-2l-2,6l-3-1l-2,6l2,2l-3,3l1,2l-3,5l1,2h-2l-1-2l-2,2l2,1l-4,3l2,3h-2l-7-6l-3,3
		l2,6h-9l-3-2l-3,3l-2-1v6l-3,1l1,4h-5l-3,6h-2l1-1l-2-2l-2,4l1,3l-3,1l-2,4l1,4l5,5v7l3,3v2l-2,1l1,2l3-2l2,1l3-3l3,1l1,3h-2v2
		l-3,1h9l4,5v3l-2,2l2,1l-4,4v8h5l1-3l4,4l-2,4l5,3l3-2l2,5l4-2l10-1l3,1l-1,3l5-5l2,2l-1,2l2,2h3v-5l2,1l2-4l3-2l2,2l-4,1v4l3,6
		l-1,13l3,1l1,8l3-1l2,2l-3,1l-2,3l3,4v3l3,1l-3,6l4,6l-1,4l3,3h2l4,5l-1,2h-2l1,2l6-2l4,4l4-2l3,6l3,1v-4l2-2l8-6l5-1l-3-2l2-1l3,1
		l4,5l4-1l-1,8l2,2l4-3l5,5l6-2l3,1l4-4l8,6h2v2l5,4l2,4l-3,4l1,1l-2,1l4,8l1,8l3,1l3,5v7l3,2l-3,3l5,4l-1,3l4,7l-2,4l1,1l-2,1l2,5
		l1-2l3,3l3-1l-1-1l4-7l7,3l1-1l6,6l4-1l2-2l-7-8l1-3l5,3l1,4l3-3l-2,1l-3-5v-3l2-5l-1-5h3l2-2l-6-14l-8-8v-3l2-1l-2-4l4-4l3,6l6,2
		v3l7,5v8l3,4l5,3l2-1v5l3,2l2-2l1,4h-5l-1,2l4,3v2l-2,2l-2-1l-2,3l2,9l-6,6h-3v8l4-1l-1-4l2-1l3,3l4-1v3l3,2l2-3l7,3l-1,5l3,1l7-4
		l-4-10v-5l2-3l8-2v-2l-4-3v-5h3l1-2l2,1l3,6l3-2l1-5h5l4-14l-5-1v-2l2-1l-6-6l-1-4l4-5h3v2l4-5h4l3-3l5,9l7-1v-4l-2-3l2-5l-1-4l6-2
		v-5h3l1,4l3-1l-2-1l1-4l3-1l1,4h-2v2l5-1l1-3h9v2h7l2-2l2,4l-2,6l6,1l-3,4l2,9l5,2l2-6l12-4l4-4l-3-2l5-2l2,1l5-3l-1-2l3-5l1,1v-5
		l4-5l1-4h-4l-4-8h-5l-1-4l6-6l-1-4l-2,1l-2-7l1-2l3,2l4-1l3-7l-4-2l1-5l-2-5l5-1l2-3l4,2v4l2,1l7-5h4l3-3v-2h3l4,14l2,1l1-4h4l6,1
		l1,3l6,1l4-3l1-4l5-5l1,5h2l1,3l6,4l-4,20l7,3l-3,10l6,4l5,1v-5l3-1v-4h4l4-6h17l2-4l7-6l7,2l7,5l4-3l5-1l1,3l5,2l-1,3l3,1l3-3
		l2-10l6,1l1,2l-2,6l2,9L1142,904z M645,668l-2-1L645,668z M913,685v1V685z"/>
</g>
</svg>
