<svg xmlns="http://www.w3.org/2000/svg" pointer-events="none" class="leaflet-zoom-animated" width="1975" height="1204" viewBox="-80 664 1975 1204" style="transform: translate3d(-80px, 664px, 0px);"><g><path class="leaflet-interactive" stroke="black" stroke-opacity="1" stroke-width="2" stroke-linecap="round" stroke-linejoin="round" fill="#fff" fill-opacity="0.2" fill-rule="evenodd" d="M1146 1464L1139 1452L1140 1449L1143 1447L1140 1446L1141 1443L1133 1441L1127 1432L1129 1429L1127 1412L1130 1405L1136 1398L1136 1394L1140 1383L1141 1370L1147 1362L1153 1344L1158 1338L1162 1328L1159 1320L1159 1312L1156 1303L1157 1301L1153 1300L1153 1289L1151 1287L1152 1286L1147 1272L1148 1261L1150 1259L1150 1252L1148 1250L1151 1242L1150 1235L1152 1233L1152 1221L1142 1210L1142 1208L1146 1210L1146 1206L1148 1204L1146 1203L1145 1205L1144 1204L1146 1202L1141 1199L1143 1199L1145 1196L1145 1190L1141 1188L1144 1186L1145 1176L1141 1172L1144 1171L1147 1173L1145 1169L1148 1168L1155 1160L1167 1141L1169 1141L1168 1137L1170 1136L1170 1133L1166 1133L1164 1131L1165 1123L1174 1122L1179 1109L1176 1100L1179 1099L1179 1097L1171 1093L1170 1091L1175 1089L1175 1087L1168 1083L1160 1067L1154 1064L1153 1062L1155 1060L1152 1054L1152 1047L1154 1044L1153 1037L1154 1034L1158 1033L1159 1024L1165 1023L1170 1018L1175 1016L1177 1007L1182 1006L1183 1008L1186 1006L1186 1000L1189 998L1190 991L1188 990L1187 986L1190 977L1194 971L1193 968L1196 967L1198 961L1197 958L1199 956L1196 945L1197 942L1206 939L1210 935L1213 926L1212 924L1220 907L1217 907L1214 904L1215 902L1212 903L1212 899L1207 900L1205 898L1206 895L1203 895L1202 892L1211 880L1212 875L1210 873L1207 876L1201 877L1201 875L1194 881L1188 882L1178 897L1176 897L1173 906L1169 911L1163 911L1154 897L1152 900L1146 898L1144 901L1146 902L1142 906L1133 898L1130 894L1132 893L1120 889L1118 893L1119 896L1121 896L1126 909L1107 918L1103 917L1098 910L1095 913L1103 920L1097 926L1099 930L1094 928L1076 944L1078 946L1078 950L1076 951L1075 956L1065 965L1062 962L1056 967L1052 975L1046 977L1045 981L1049 985L1046 989L1044 989L1041 986L1033 994L1032 998L1024 1006L1020 1008L1020 1014L1016 1017L1012 1028L1013 1030L1010 1035L1012 1041L1022 1048L1020 1052L1022 1056L1019 1056L1017 1061L1010 1068L1005 1057L1002 1054L997 1053L1000 1059L996 1073L997 1083L995 1095L989 1095L988 1097L982 1099L973 1094L963 1099L955 1101L947 1097L943 1098L938 1102L927 1099L927 1093L924 1089L923 1083L901 1076L896 1072L893 1074L892 1081L890 1084L888 1083L879 1086L878 1092L876 1094L870 1094L869 1096L872 1097L872 1099L869 1099L866 1103L862 1103L863 1106L867 1106L865 1114L859 1118L857 1131L858 1140L862 1146L858 1147L864 1153L864 1158L861 1162L859 1159L861 1179L860 1181L862 1183L864 1182L867 1184L877 1184L882 1188L881 1190L883 1193L887 1192L892 1194L895 1192L899 1196L901 1195L908 1199L909 1198L914 1202L916 1201L919 1208L919 1212L922 1211L923 1213L923 1210L925 1209L927 1211L925 1215L930 1220L932 1217L933 1220L937 1221L937 1223L939 1223L941 1220L942 1215L945 1215L943 1218L944 1222L947 1222L948 1225L949 1222L951 1224L955 1223L960 1229L962 1235L961 1236L963 1236L966 1239L970 1239L971 1233L976 1237L981 1238L984 1243L983 1258L989 1271L987 1277L987 1284L984 1292L976 1293L976 1295L972 1297L970 1301L972 1303L972 1325L974 1331L981 1336L980 1342L982 1352L980 1361L979 1364L976 1366L974 1365L969 1368L957 1367L956 1365L946 1370L945 1365L942 1364L933 1367L929 1370L923 1371L920 1371L921 1369L912 1370L905 1365L899 1365L900 1369L899 1368L894 1370L893 1372L894 1374L896 1374L899 1380L899 1386L903 1389L906 1395L911 1396L910 1398L912 1398L912 1400L906 1402L907 1403L904 1402L895 1404L891 1406L892 1407L890 1407L890 1402L885 1402L882 1408L875 1408L872 1406L867 1407L863 1405L859 1406L856 1412L854 1410L854 1412L851 1410L850 1406L843 1403L841 1396L836 1395L833 1391L829 1391L828 1389L807 1387L807 1389L803 1390L798 1390L795 1388L792 1389L790 1395L787 1396L788 1399L786 1401L790 1412L793 1414L795 1424L791 1427L788 1426L787 1430L784 1431L783 1434L785 1437L783 1439L781 1437L771 1445L773 1446L773 1452L779 1452L784 1450L787 1451L792 1456L793 1455L794 1457L797 1457L796 1459L798 1460L800 1466L808 1468L805 1472L807 1476L803 1482L800 1480L797 1481L795 1478L790 1477L788 1483L791 1481L793 1482L794 1490L796 1492L793 1496L788 1497L788 1503L785 1506L786 1512L780 1519L781 1523L786 1522L787 1526L784 1532L787 1535L786 1541L791 1542L795 1549L795 1554L793 1556L794 1559L792 1562L787 1560L786 1561L784 1559L783 1551L777 1551L774 1554L770 1552L764 1557L759 1558L755 1556L756 1555L752 1556L752 1553L754 1553L750 1551L745 1553L741 1551L739 1552L735 1558L733 1557L728 1565L727 1576L724 1577L718 1575L716 1577L720 1582L719 1585L721 1587L730 1592L734 1592L739 1596L739 1601L736 1596L733 1602L735 1602L737 1606L735 1606L736 1610L734 1612L736 1613L735 1619L730 1625L727 1623L718 1628L711 1629L710 1631L705 1631L703 1628L698 1627L696 1628L696 1632L699 1634L700 1641L702 1640L703 1648L705 1647L706 1651L710 1648L713 1648L717 1644L718 1645L720 1643L722 1645L725 1643L727 1637L729 1638L740 1634L742 1637L744 1633L751 1637L751 1640L748 1642L753 1648L756 1648L756 1650L758 1649L758 1651L766 1651L768 1654L774 1653L778 1658L781 1659L783 1655L788 1656L790 1654L803 1651L809 1646L813 1646L814 1651L815 1649L817 1650L819 1648L825 1648L826 1650L835 1648L839 1649L843 1661L841 1667L845 1674L851 1676L854 1681L857 1682L862 1673L866 1671L868 1668L871 1668L873 1669L872 1672L873 1676L875 1677L875 1681L878 1680L881 1685L893 1681L899 1691L902 1689L909 1702L918 1705L923 1710L927 1707L926 1703L932 1701L936 1702L939 1700L941 1702L947 1696L953 1701L956 1699L962 1699L967 1697L968 1699L971 1699L971 1704L975 1707L978 1707L986 1715L991 1714L996 1721L1001 1722L1003 1725L1007 1727L1019 1730L1031 1739L1033 1745L1040 1747L1041 1750L1039 1751L1041 1756L1053 1757L1069 1755L1071 1753L1069 1752L1069 1748L1074 1746L1069 1737L1070 1734L1072 1734L1073 1730L1069 1723L1072 1714L1069 1711L1069 1702L1066 1702L1061 1694L1061 1685L1064 1682L1063 1679L1065 1678L1069 1670L1073 1668L1072 1662L1082 1660L1090 1664L1098 1662L1104 1664L1106 1667L1109 1667L1114 1663L1114 1660L1116 1659L1120 1662L1125 1658L1121 1652L1121 1643L1118 1642L1119 1639L1114 1635L1105 1630L1093 1628L1093 1630L1087 1631L1085 1628L1088 1611L1078 1605L1068 1606L1066 1604L1058 1603L1055 1601L1058 1599L1062 1592L1069 1593L1071 1592L1072 1588L1075 1591L1078 1590L1082 1593L1092 1591L1110 1597L1121 1595L1129 1601L1134 1599L1137 1601L1139 1598L1149 1599L1156 1590L1159 1591L1161 1595L1161 1600L1163 1602L1166 1601L1167 1604L1170 1607L1172 1607L1173 1603L1176 1601L1181 1601L1182 1596L1190 1596L1194 1590L1197 1590L1197 1583L1200 1582L1200 1577L1197 1571L1200 1567L1198 1555L1192 1550L1186 1549L1185 1546L1183 1546L1181 1542L1181 1536L1178 1531L1174 1531L1171 1527L1167 1525L1162 1525L1160 1521L1163 1519L1163 1517L1168 1515L1168 1512L1166 1512L1163 1505L1160 1506L1160 1498L1165 1491L1163 1489L1157 1488L1157 1485L1153 1485L1147 1482L1145 1478L1150 1473L1152 1474L1150 1464L1148 1464zM1200 1566L1200 1567zM749 1644L749 1644z"/></g></svg>