<svg xmlns="http://www.w3.org/2000/svg" pointer-events="none" class="leaflet-zoom-animated" width="1975" height="1204" viewBox="-165 -100 1975 1204" style="transform: translate3d(-165px, -100px, 0px);"><g><path class="leaflet-interactive" stroke="black" stroke-opacity="1" stroke-width="2" stroke-linecap="round" stroke-linejoin="round" fill="#fff" fill-opacity="0.2" fill-rule="evenodd" d="M1442 372L1453 369L1456 370L1452 361L1449 361L1446 356L1442 356L1439 353L1439 350L1435 347L1436 346L1424 339L1425 337L1415 333L1413 329L1407 326L1409 319L1407 315L1403 314L1404 313L1400 309L1402 306L1397 298L1392 298L1386 303L1385 306L1380 306L1380 303L1378 301L1366 297L1367 295L1361 286L1347 282L1341 287L1339 291L1332 285L1330 286L1321 282L1316 273L1313 273L1303 265L1299 267L1297 265L1296 261L1299 257L1299 249L1301 248L1298 246L1294 249L1290 248L1284 239L1280 237L1278 238L1272 236L1269 239L1268 237L1265 238L1263 235L1260 235L1259 233L1257 236L1255 236L1255 232L1253 231L1251 233L1244 229L1245 227L1242 222L1239 224L1237 215L1230 213L1229 211L1223 209L1221 206L1215 212L1218 215L1217 216L1224 219L1226 226L1230 229L1232 241L1227 240L1226 237L1210 227L1200 224L1184 215L1183 212L1177 209L1172 203L1171 197L1169 195L1165 196L1162 189L1158 186L1157 183L1148 176L1144 175L1137 167L1130 162L1130 160L1134 157L1129 153L1120 152L1115 149L1114 146L1108 143L1107 140L1102 140L1100 144L1097 145L1094 151L1089 153L1090 155L1087 158L1081 155L1075 156L1072 153L1073 151L1070 150L1068 147L1059 146L1058 156L1055 160L1056 163L1042 175L1034 167L1025 164L1018 158L1006 155L1005 150L988 141L984 136L981 136L979 133L976 134L973 131L957 127L939 127L943 134L939 139L937 161L942 164L941 175L944 179L943 185L944 187L947 188L947 198L939 202L923 196L924 200L921 202L924 205L924 207L915 208L912 210L916 213L915 218L908 225L909 231L911 232L912 240L893 234L886 234L882 238L879 245L880 248L875 250L874 247L872 247L871 249L860 245L858 245L857 247L855 246L841 233L838 234L835 226L826 223L824 220L807 232L804 230L801 233L799 230L797 232L793 230L791 231L789 229L784 232L781 228L779 228L777 225L778 223L773 221L771 218L767 220L764 218L763 219L762 217L751 218L748 221L743 222L729 222L719 226L717 225L717 217L703 178L667 182L665 184L657 183L648 177L647 173L648 171L659 171L659 166L654 166L644 159L608 161L606 163L594 159L596 145L590 138L591 131L589 129L582 133L576 133L573 130L568 131L566 134L563 133L547 137L546 136L532 138L529 142L529 145L524 146L525 149L511 150L503 155L486 157L476 162L476 164L474 165L454 167L446 171L445 170L442 172L437 172L421 180L419 179L413 182L381 189L378 191L378 189L371 190L364 188L361 190L364 193L360 196L361 197L353 199L354 201L347 202L347 206L343 210L338 211L334 208L329 210L317 209L315 211L315 217L317 220L321 221L318 227L331 239L337 240L338 232L353 230L352 298L358 299L358 301L365 301L383 312L385 315L384 321L388 322L392 327L396 325L403 327L406 332L408 344L411 346L413 350L413 358L422 363L422 369L424 372L423 376L425 379L416 380L413 378L408 380L408 384L400 385L399 389L395 391L385 390L379 395L377 399L372 401L371 404L371 409L374 413L371 414L369 420L371 420L372 428L379 428L379 431L381 432L388 431L399 435L399 445L401 446L398 458L403 461L400 467L405 470L404 476L406 477L406 484L403 485L399 483L394 483L389 491L383 493L379 491L376 485L365 479L357 480L353 478L349 480L327 476L317 471L317 467L310 466L309 463L305 463L308 465L307 470L306 474L299 480L300 487L292 485L286 487L277 484L272 489L261 492L254 491L252 489L251 492L254 495L254 500L252 502L253 504L257 506L259 505L263 508L262 509L264 511L269 510L274 512L285 510L287 512L284 517L285 521L282 522L282 532L280 534L284 541L279 541L278 546L278 550L284 553L282 553L276 560L274 559L269 563L260 565L259 566L261 569L259 574L262 576L255 581L257 582L261 591L263 593L267 593L268 595L265 614L267 617L272 619L278 617L279 615L282 617L286 615L289 617L288 621L291 622L291 626L293 627L289 629L287 632L288 634L284 634L281 636L280 639L280 644L284 647L287 647L285 654L288 656L289 671L287 673L293 679L293 681L289 684L290 688L289 695L287 696L288 698L283 700L283 703L277 703L273 708L274 710L272 711L277 721L284 727L286 732L290 731L296 738L299 739L296 743L297 745L304 747L304 762L307 766L312 768L313 775L326 778L338 795L342 798L349 797L369 811L372 810L378 814L385 813L387 817L389 813L397 813L399 815L403 814L408 818L411 814L417 811L435 817L436 819L438 818L438 816L442 814L445 815L447 818L446 819L449 822L457 825L458 827L464 829L467 832L472 831L474 837L478 836L477 838L483 845L489 844L489 842L496 841L500 838L501 840L506 840L508 845L505 847L505 853L507 855L514 855L514 853L518 854L520 853L519 851L524 853L528 851L531 854L542 854L545 856L548 855L550 851L559 856L562 855L567 859L567 857L575 857L578 854L580 855L580 858L582 859L584 866L593 864L594 862L600 863L602 867L606 867L606 871L609 872L613 877L619 873L621 880L624 880L625 883L629 882L635 877L637 872L644 872L653 875L653 878L657 883L661 884L665 882L670 886L672 886L674 883L682 887L683 885L686 885L685 882L687 878L696 880L696 878L703 877L703 873L705 870L709 873L713 868L713 870L718 869L721 866L723 866L725 861L739 874L738 877L741 877L743 882L747 884L750 883L752 889L760 889L767 893L780 891L781 895L784 896L769 899L767 904L770 906L776 904L779 902L780 899L782 899L786 915L789 918L794 918L793 915L796 914L799 917L801 927L798 930L801 933L794 935L793 938L797 943L800 952L806 958L807 961L813 961L813 959L815 959L816 957L827 959L831 961L835 968L838 965L837 962L842 953L850 954L850 957L855 963L865 967L866 977L870 977L872 974L871 971L874 970L874 966L871 962L872 961L867 958L868 951L870 951L871 947L868 944L871 944L874 941L878 943L887 942L888 950L893 958L903 965L907 962L911 965L912 963L920 969L922 969L923 966L926 966L927 962L921 953L920 949L923 948L925 945L920 940L919 934L917 932L924 932L928 934L930 938L930 934L932 934L933 932L937 935L939 933L936 929L938 927L943 927L945 929L951 930L954 929L958 931L959 928L962 929L963 927L961 924L962 922L965 926L970 926L969 923L971 920L967 919L966 914L969 902L971 901L973 902L973 904L980 902L980 895L977 888L973 887L978 880L972 876L973 874L975 873L976 875L983 871L984 874L988 877L1009 877L1006 877L997 868L992 867L981 858L981 855L977 850L977 840L976 838L974 838L976 831L990 827L988 825L991 822L991 820L986 810L990 804L995 802L1000 788L1004 789L1004 787L1006 787L1011 781L1004 779L1003 777L997 777L995 775L992 775L989 769L990 763L983 763L980 760L979 757L982 752L980 747L981 744L976 734L978 733L978 729L984 729L988 726L990 727L997 724L1000 726L1002 722L1002 715L1005 715L1006 713L1003 704L1014 698L1015 695L1018 694L1028 696L1036 703L1042 703L1052 708L1065 706L1070 707L1069 711L1072 714L1073 718L1073 721L1070 724L1072 726L1072 729L1070 731L1073 734L1075 733L1078 742L1086 746L1087 750L1093 755L1089 757L1093 761L1092 766L1101 774L1100 781L1104 786L1104 793L1102 796L1107 797L1106 802L1112 810L1121 813L1121 815L1126 817L1133 817L1133 819L1135 819L1136 821L1141 821L1144 827L1146 828L1145 831L1147 831L1149 839L1154 839L1155 837L1158 837L1164 839L1165 841L1173 842L1179 850L1182 849L1183 851L1188 852L1190 855L1192 855L1191 854L1196 839L1195 831L1202 832L1205 823L1204 821L1206 821L1210 827L1211 832L1219 834L1218 837L1223 838L1223 841L1225 841L1228 856L1223 862L1225 863L1225 865L1232 866L1234 869L1237 856L1246 856L1252 852L1250 858L1251 859L1253 855L1256 859L1258 859L1265 872L1276 877L1275 869L1277 866L1279 868L1281 867L1278 862L1284 864L1285 862L1286 865L1288 863L1300 869L1313 860L1317 861L1316 865L1324 860L1327 856L1328 845L1322 837L1318 836L1318 827L1323 828L1323 821L1319 817L1322 815L1320 812L1321 810L1319 810L1317 806L1318 802L1323 797L1333 797L1341 809L1341 803L1343 801L1350 802L1364 815L1366 808L1369 806L1368 804L1371 803L1374 797L1371 793L1368 794L1365 791L1367 784L1370 779L1375 778L1377 772L1377 768L1375 768L1373 772L1363 771L1361 757L1359 752L1357 753L1356 750L1345 752L1345 754L1341 756L1338 754L1330 753L1328 751L1326 753L1321 754L1321 747L1323 745L1324 740L1316 732L1314 733L1311 732L1310 729L1306 729L1297 713L1295 712L1292 704L1285 697L1289 690L1288 688L1290 682L1294 680L1297 675L1302 675L1313 681L1328 681L1327 684L1336 689L1350 693L1351 695L1357 694L1357 696L1359 695L1363 697L1363 699L1366 700L1365 703L1367 705L1370 704L1371 707L1373 706L1373 708L1376 703L1383 703L1385 700L1386 702L1393 705L1394 698L1398 699L1399 692L1403 691L1403 686L1405 685L1411 687L1414 678L1421 678L1413 668L1413 664L1411 661L1406 658L1395 656L1391 652L1390 620L1396 617L1403 619L1402 616L1406 608L1412 605L1413 603L1417 602L1418 600L1423 600L1429 588L1434 587L1431 577L1423 572L1426 571L1426 568L1423 563L1424 559L1426 558L1434 561L1438 558L1438 553L1439 554L1443 546L1443 541L1451 546L1461 547L1465 551L1469 547L1464 548L1465 546L1471 544L1468 541L1467 533L1465 533L1462 528L1460 520L1462 515L1465 515L1469 510L1475 512L1478 511L1483 514L1483 503L1486 495L1484 492L1485 490L1479 487L1478 485L1483 483L1487 473L1490 471L1495 471L1490 468L1491 466L1481 461L1479 457L1474 457L1472 450L1467 442L1469 438L1464 431L1467 430L1462 427L1463 425L1460 425L1455 421L1452 414L1453 411L1455 412L1460 407L1463 408L1458 401L1451 396L1445 388L1443 388L1443 386L1438 385L1443 379L1443 375zM1474 456L1473 453z"/></g></svg>