<?xml version="1.0" encoding="utf-8"?>
<!-- Generator: Adobe Illustrator 26.5.0, SVG Export Plug-In . SVG Version: 6.00 Build 0)  -->
<svg version="1.1" id="图层_1" pointer-events="none"
	 xmlns="http://www.w3.org/2000/svg" xmlns:xlink="http://www.w3.org/1999/xlink" x="0px" y="0px" viewBox="0 0 1975 1235"
	 style="enable-background:new 0 0 1975 1235;" xml:space="preserve">
<style type="text/css">
	.st0{fill-rule:evenodd;clip-rule:evenodd;fill:#FFFFFF;stroke:#000000;stroke-width:0.5;stroke-miterlimit:10;}
</style>
<path class="st0" d="M1144,939h-10l-5-2l-2,5l4,5l2,1l4-3h4c0,0,2.6-2,3-3c0.3-0.6-0.5-2.6,0.2-2.7c4.6-1.1,7.3-0.5,11.8,1.7
	c4.2,2.1,0,19,0,19l-3,3l-6-1l-2,2l2,4l11,6l4,5l-5,10v6l2,2l11-1l9-6l2,1l5,36l5,6l17-2l7-4l1-6l-8-13v-11l8-7l11-6l7-2l4,1l13,21
	l6,2l20,1l6-2l1,3l6,3l1-3l-2-2l3-6l-3-3l-1-4l-5-1l-1-2l-4-23l-4-7v-2l3-1l4,1l2-4h5l1-5l-9,1l-2-2l1-9l-6-9l-1-5l-3-3v-3l3-4l6-3
	l4-7l1-11l-2-8l4-4l-19-19l-9-12l-3-7l4-16l23-25l5-1l6,2l8,16l-7,15l-1,9l2,11l9,5l1,5l8,15l4,2l9-2l3-8l6-4l1-5l3-1l8,2l5,8l11,8
	l4,6h3l4-2l2-7l9-1l3-6v-4l-2-5l-6-5v-17l-3-2l-7-1l-1-5l9-5l8-9l8-2l3-6l1-7l-4-12l-4-2l-5-6l-1-6l-5-6h-18l-3-3l-6-13v-5l-3-4
	l-6-3l-16-3l-6-5l-4-8l-8-38l1-2l13,1l3-8l3-3v-15l-5-4l-3-5l-2-12l4-12v-7l6-11l-3-10l3-6l6-4h6l12,12h10l2,2l1,5l3,1l3-2h4
	c0,0,2.8,1.1,3,2c0.4,1.8-2.7,4.7-4,6c-0.6,0.6-3,2-3,2v8l1,3l4,1l3,3v6h-3v4l-2,1l2,3l2,1l2-3l2,3l-3,2l3,6l-1,8l2,5l-7,7l1,7
	l12,16l5,2l7-4l11,5l5,1h-1l-11,3l-3,5l4,8v5l3,1v7l4,6l9-1l2,2l2,1l9-7l1-10l-7-7l-3-5c0,0-0.1-4.7-1-6c-0.8-1.2-4.7-1.6-5-3
	c-0.2-0.9,2-3,2-3l-1-7l5-4l-1-2l3-5l-2-6l3-4l-8-8l-10-4v-6l3-2v-4l-2-6l-5-4v-17c0,0-8.8-2.1-11-4c-1.7-1.5-4-5.8-4-8
	c0-0.6,1-2,1-2l-3-4l2-6l-1-2l12-3l4,8l3,1l-3,10l1,5h8l7,6l15,5l2,2c0,0,0.6,6.1,0,8c-1.2,3.8-5.3,14.3-9,13c-4-1.4,1-17,1-17l-7-5
	l-11-3l-2,10l4,5h2l3-4v-3l2,1v9l3,8c0,0,1.5,0.8,2,1c1,0.5,3.2,1.2,4,2c2,2,5,10,5,10l9,7l-2,5l2,7l10,12h6l4-2l7-9l3,1l-1,5l6,14
	l2,12l4,3l5-1l7-14l-3-6v-13l7,3h3l1-2l2,1l1-7l7,3l8-5v-4l2-3l8-2l-7-6l2-4l6-1l3-3l1-10h2l11,8l4-1l2-3l1-8l-4-9l4-5l1-4l-2-11
	l1-10l-9-10h-6l-7-10l-11-7l-1-5l4-13l6-3l-1-8l4-6l7-6l7-2l5,2l10,13l5,4h13l5-4l-7-18l-5-4l-1-3v-8l-3-11l4-8l-2-3l-6,1l-4-6l-5,1
	l-1-6h-3l-3,3l-15,5h-4l-5-3h-13l-6-13l1-5l5-7l-2-13l-2-4c0,0-4.6-2.9-6-4c-3-2.5-11.6-7.2-11-11c0.2-1.1,4-2,4-2l2-10l6-6l1-8
	l-4-5l-4-2l3-7l-3-6h-4l-5-3l-13,13l4,4l2,7l2,2v7l2,2l-1,10c0,0,3.3,2.8,4,4c0.6,1.1,1.6,3.9,1,5c-0.2,0.5-2,1-2,1l1,4l-2,5l2,6
	l-1,3h-2l-5,5l-4-1l-4,3l-1,4l2,4v5l3,3l-1,7l-3,6h-2l-8-6h-9v-16l-4-6l1-14l3-4l10-3l3-4v-5l-5-14l-1-11l-6-10l-3-2l-5,3l-1,5l-4,4
	l1,14l-7,8l-4-1l2-9l-3-10l-2-1l-8,4l-2-1l-2-5l1-6l-4-6l-7-1l-14,8l-6,8l-10,7l-13,26h-15l-3,9l-9,2l-17,15l-4,10v7l-5,5h-4l-11-4
	l-31,5l-26-2l-4,4v5l-3,6l-8,3l-23,2l-9-2l-15-12l-15-9l-5-8l3-15l5-9h11v14l13,1l3,2l6-3l16-1l11-6l6-8l2-5l-1-3l-8-2l-5,3l-5,11
	l-6,4l-8-2l-4-3l1-5l6-1l-2-2l-6-2l-1,2l-2-3l-11-4l2-14l2-3l4-2l7,3h7l8-1l6-4h4l2,5l4,2l18,21l2,14l5,5h8l20-10l6-6l6-11l7-6l16-7
	l3-5l9-2l19-9l14-9l15-5l10-7l3-4l1-5l3,1l9-6l12-12l7-10l8-5l16-14v-5l-4-5h-10l-17,11l-27,9l-10,6h-2l-7-6c0,0-3.2-0.3-4-1
	c-0.6-0.5-1.6-2.4-1-3s3,1,3,1l8-3l3-3v-4l3-1l6,3h4l3-6l8-2l7-9l4-1v-3l-5-4l-4,1v-5l-4-6l-12-6l-3,3l3,2v13l-4,7l-4,2v2l-4,3l2,1
	l-1,2l-3-1l-2-6l-4,1l-1,3l-3-3l-2,2h-3l-1-2v6h3l2,2l-1,5c0,0-1.8,0.5-2,1c-0.4,1.1,2.7,3.1,2,4c-0.6,0.8-4-1-4-1l-2-2l-1-5l-4-1
	l-7,2l-1-3l-5,1l2-4l-16-1l4-14h4v-5l10-11l-9-1l-6,5l-2-1l6-11l-2-3l-11,1l-2-2h-3l2,5l-3,4l-10-3l-8,2l-1-2l2-7l2-3l7-4v-4l-3-4
	h-6l-3-8h-5l-5-10l6-7l-1-2l-3,1l-4-2h-5l-1,4l-7-2l-3,3l-3-1l-2-4l-8-1l-5,4l-16,30l-9,1l-2,9h-3l-3,3l-5-5h-2l-2,2v3l-9,3
	c0,0-2,2.6-3,3c-1.4,0.6-5.2,1.3-6,0c-0.3-0.5,1-2,1-2l-2-1c0,0-0.9,1.5-1,2c-0.1,0.2,0.2,0.9,0,1c-0.5,0.3-2-1-2-1v-2l3-10l6-3
	l11-16l3-2l15-2l-3-2l-1-11l-2-3l-7-4l-6-8l-2-1l-4,3h-6l-5-5l-16,1l-5-2l-8,1l-1,2l-3,1l-4-1l-4,3l-5-2l-2,2l-11-2l-1,2l-7-2l-1-9
	h-14l-3-4h-3l-6,5l-3-1l-3-5h-2l-3,3l-7,11l-8,2l-1,7l-3,1l-1,5l3,4v-2h2l-1,3l-6,5l-1,5l-7,2l-1-2h-5l-1-2l-9-1l-5,4h-9l-4,4h-6
	l-6,4l-5,7l-7,2l-3,7l-6,2h-3l-2-3v-10l-2-2l-3,5l-9-2l-12,3l-8-6l-5-1l-6,4l-5,7l-10,2l-4,4l1,4l11,6l2,6l-2,3l-6,7l-10,6l-3-1
	l-2-4l-5-2l-16,4l-5,3l-8,10l-1,11l-2,3l-11,5l-29-8l-21-3l-2,1l-4,3l-1,4l10,16l-6,9l-8,3l2,9l-2,6l-3,2h-8l-4-8l-10-10l-20-5
	l-10,1l-2,18l-4,6l-12,9l-10,10l-17,32l-34,14l-7,5l-9,11l-10,19l-13,19l-7,4l-42,14l-26,31l-1,5l14,4l7,6l2,5l7,20l2,12l-1,7l-5,10
	v4l4,8l44,28h22l10,6l5-2l-6-13l8-7l15-7l14-2l11,1l11,3l30,15l34,5l5,2l10,7l3,4l3,6v5l-7,16l-15,13l-124,75l-6-1l-6-8v-5l6-3h22
	l11-11l3-16l-1-7l-8-4l-33,4l-17,5l-3-6l-3-1l-83,29l-3,6l6,7l-2,7l-7,13l1,9l4,6l-1,12l-14,16l-3,9l-18,7l-11,1l-3,3l-9,20l-4-4h-7
	l-7,3l-10,8l3,10l3,1l12-3l1,2l-2,9l-5,4l-13,3l-4,3l-1,13l-2,2l-3-1l-5,2l-5,4l-4,6v21l3,10l5,6l-3,10l1,5l1,4l8,8l-4,19l8,1l3-2
	l7-1l11-12l4-2l4-1l12,3l9-4l22-16l3-5l3-11l5-3l9-2l4,1l2,9l9,11l12,9h20l32-4l5-7v-12l-2-3l1-2l21-6l16-17l22-2l20-9l11,1v3l-5,10
	l1,8l5,10l9,12l12,10l10,1l14-10l12-3l4-6l11-7l2-6l3-2l5,2l5-5l2-7l3-3v-3l-1-3l-16-5l-4-7l-10,2l-7-7l-6-2l-1-2l1-6l4-5l22-10l1-3
	l-3-7l-25-26l2-7l6-2l5,6l4,1l7,6l9,3l18-2l1-9l-5-17l4-4v-17l-5-2v-4l2-2l7-1l4-4l2-4l-2-9l4-12l9-4l13,1l19-4l9-6l3-5v-10l15-25
	l4-5l10-5l7-1l14,2l10,7l9,10h55l7,8l5,10l5,5l8,5l13,5l9,7l4,6l1,5l-1,6l-3,5l-17,9l-11,10l-18,11l-2,5l-1,12l2,7l13,15
	c0,0,23.3,24.7,22,35c-2.8,8.3-15.3,18-23,22c-1.2,0.4-5-1-5-1l-3-4l-7,7h-4l-2,2l-10,3l-3,3l-1,4l9,5l-4,7l6,3l-21,15l4,19h12l12-7
	l2-4v-6l2-1l4,3l4,8l-2,15l3,7l-2,26l-3,5l-7,4l-2,4v9l4,5l10,3l5-1l3,3l8,1l4-7l3-2l7,9l7,1l1-9l-7-14v-3h2l15,14l8,5h4l3-3l-1-5
	l-13-24l1-7l14-12l13,1l8-11l-1-3l-4-4l-11,1l-3-4h-5l-7,2l-5,4l-9-1l-8,2l-12,7l-1,3l-4-7l15-11l4-5l1-3v-5l-4-7l1-4v-6l-6,2v5
	l-1,3l-2,6l-2,1l-5-3l-4-5v-2l2-1l-2-7l-10-6l-1-5l5-11c0,0-0.6-3.2,0-4c9.4-5.1,27.3-16,37-15c4.1,1,11,13,11,13l12,9l9,3l9,12l8-4
	l8,1l9,4l4-2l4-16l6-13l8,1L1144,939"/>
</svg>
