<?xml version="1.0" encoding="utf-8"?>
<!-- Generator: Adobe Illustrator 27.2.0, SVG Export Plug-In . SVG Version: 6.00 Build 0)  -->
<svg version="1.1" id="图层_1" pointer-events="none"
	 xmlns="http://www.w3.org/2000/svg" xmlns:xlink="http://www.w3.org/1999/xlink" x="0px" y="0px" viewBox="0 0 1975 1204"
	 style="enable-background:new 0 0 1975 1204;" xml:space="preserve">
<style type="text/css">
	
		.st0{fill-rule:evenodd;clip-rule:evenodd;fill:#FFFFFF;fill-opacity:0.2;stroke:#000000;stroke-width:2;stroke-linecap:round;stroke-linejoin:round;}
</style>
<g>
	<path class="st0" d="M904,589l-2-1l-1,3l5,2v24l-6,9l-3-2v-2h-6l-5,5l1,3l-4,8l1,2h-2l-1,2l1,2l-5,8l1,3l-2,8l-3,2l1,6l-2,2l4,13
		l-4,9l-4,2l3-3v-2l-2-1v-3l-5-8v-11l-3-2l-13,11l-18,23l-13,6l-3,8l-3,3l-14,7l-4,5l-8,4l-4,10l-4,3v2l10,14l6,3h4v2l-3,2v5h3l2-2
		v9l5,5v2l7-1l3-8l7,1l1-6l-4-2v-2l5,4l5-2l-2,8l3,1l1-4l2,3l-2,1l3,4v3l-2,2l-15,2l1,3l-3,2l-2-2l-4,1l-1-1l-1,3h-2v9l8,13l2-2l7,3
		l6-2l3,2l13-5h2l1,3v-2l2,1l-1,1l2,2l-2,1l3,4l-1,3l2,4v2l-1-1v2l-2,1v3l5,4v2l-2,1l1,2l-3,2l7,5v4h4v2h2l-1,2l2,2h3v5h4l4,3l2-1
		v-2l7,1l1-2l1,2h4l3-6v2l4,1l1,4h2v3l2-2l8,1v-2l2,2l4-4l-1-2l4,1l4-1l1-2l2,1h1l2,11l-1,1l5,5l14,7l5-1l3-3l3,1l1-2l8-3l6,5l4,1v2
		h8l6,12l-5,8l3,7v10l2-4l2,1l3-3l3,3v-2h6l7,4l1,2l-5,2l2,5l-1,2l6,7v7l1-1l2,2l2-2v6l3,2l1-1l2,2l7-2l4-3l-2-2l2-3l-2-3l2-2l-2-4
		l5,1l2-6l7-5l3,2l2,7l-1,11l9,17l-1,2h5v10l4,6v4l2,3l4-1l3,2l1-2l8-3v-12l2-2l4,1l5-5h13l4-7h2l1-2l5,2v7l2,3l10-8l2-5l2-1l-1,7
		l2,3l-1,2l3,8l-2,2l1,2l2,2l1-1l5,3l1-1l8,7l1-1l3,6h2l5-5l3,4l5,1l5-3l-5-3v-3h2v-26l1-3h2l-9-43l-2-5l-1,1l-3-5l4-1l3-5l5,2l5-5
		l6,2v-2l10-9l-2-2l1-3h4l5-8h2v3l5,3l33,10l7,4h3l7-6v-7l-1-2l-1,1v-3l2-3l-1-1l2-1l1-8l7-5h4l2-4l-1-1l2-2l-2-2l2-3l-1-2l2,1l-2-2
		v-3l2-3l3,1l2-2l-1-2h4l3-8l-3-5l5-4v-2l3,1v-3h2l1-2v-3h-2v-2l3-2l-2-4h-2l3-10l4-2l2-10l-2-3l3-7l-1-3l4-7l4-3v-3l-3-5l1-5l7-8h7
		l1-2h2l10-16v-4l-5-3v-5l-3-2l-2-4v-4l6-11l-1-4l19-10v-3l-7-1l-3,2l-2,4h-3l-5-3h-7l-11,3l-2-1l-3,3h-3l-4,3l-8,1l-4,3l-1,3l-6,1
		l-1,3l-4,2l-16-2l-3,2l-2,5l-5,2l-3,5l-5-2l-2,1l1,4l-4,6v4l-4,2l-7-4h-2l-3,4h-12l-1,3l-10-3l-7,3l-2-4l-4-2l-5,2l-4-1l-7,3l-6-1
		l-1-8l-3-7l-9-8l-1-3l5-11l3-3l-5-7l2-6l-2-2l-3,2l-2-1l-1-5l-3-3l7-16l-1-2l-7,1l-2-3l-9,3l-2-1l-10-10l-4-2l-1-4h-2v-4l-5-3l1-3
		l-3-3h-6l-2-9l-6-1l-2,6l-4-3l-8,3l-2-2l-1-5l-7-3l-4,2l-1-1l2-5l-1-3h-2v2l-8-3l-7,1l-3,4l-2-2h-3l-1,2l-6-1l-4-3h-8l-5-5l-1-7
		l-5-1l-2-3l1-9l-3-3l5-10l1-7l-10-4l-3-4l2-7l-4-2l4-8l-4-6l1-6l-3-2l-6-12l-3-1l-4-7h-2l-1-11l4-8l-1-1l-4,2l2,1l-1,3l-3-2l-1-3
		l6-3l-1-4l-6-1l1-5l2-2l-6-3l-2-3l3-2v-6l-3-1l-6-12l-4-4v-7h2l3-6l-3-3l-9-3l1-3l5-4l-4-1l-1-9l-3-3h-2v-4l-3-4l-2-2l-4,2l-2-4
		l1-3h3l1-2l-2-3l3-2l-2-3l-4,3l-5-10h-4l-4,3l-1-1v-4l3-1l1-4l-3-1l-3-6l-4,2l-2-4l-8-3l-5-4h-10l-4,3l1,3l-2,2l-1-4h-5l-2-5l-6,1
		l-6-2l-9-12l-4,3l-4-5l-1,1l-6-6l-7-2l-1,1l-5-5l-2,4h-2l1-4h-2v3h-2v-2l-7-2l-8,5l-2-1l-7,2l-2,2l-20,1l-5-4l-5,3l-2-1l-4,4h-9
		l-7,3l-2-1l-9,5l8,7l-1,5l5,3v3l2,2l-1,4l-4,1l-2,7l-3,3l1,1l-7,9l-13,10l2,2l3-1l10,10l6,1l2,2l-1,2l2,5l6,3l5-1l1-4l4-3l-1-2l3-1
		l-1-1l4-5l2,3l5,1v2l4,4l2-1l1,7l14,3l-1,6l-6,3v5l2,7l2-1l1,5l-2,2l2,3v7l5,10l-1,2l3,3l-2,2v3l8,13h6l6,4l2-2l2,1l12-4l3-6l4,3
		l2-1l4,5l7-1v-2h6l6,5h3l4-8l6,4h3l3-2v-2h5l3-4v-4l6-4l1-8h2v2l2-1l6,3l3-1v2l7,7l6,11h2l3,7l-1,1l5,2v5l4,2l1-1v3l4,3l-1,4h2v2
		l-3,3l1,1h-2l-2,4l-2-1l1,1l-4,6l-2-1l-2,2l3,3l-1,5l2,6l-9,7l-4,1l1,3l-2-1v7l-3,2l-1,6l-5,3l2,2l-5,2v2l3,1l-3,1l1,3l-3,4h-2l3,5
		v3l-3,1l2,2v9L904,589z"/>
</g>
</svg>
